<mxfile host="app.diagrams.net" modified="2023-05-29T18:16:39.345Z" agent="Mozilla/5.0 (Windows NT 10.0; Win64; x64) AppleWebKit/537.36 (KHTML, like Gecko) Chrome/113.0.0.0 Safari/537.36" etag="zI_OUHcT4oy_irFnTy53" version="21.3.2" type="device" pages="4">
  <diagram id="Fvf6Bio8_pcPCD-24Vxd" name="Malte, Mikkel">
    <mxGraphModel dx="1434" dy="788" grid="1" gridSize="10" guides="1" tooltips="1" connect="1" arrows="1" fold="1" page="1" pageScale="1" pageWidth="827" pageHeight="1169" math="0" shadow="0">
      <root>
        <mxCell id="0" />
        <mxCell id="1" parent="0" />
        <mxCell id="WBhchhXUHo2wvyw4GKbI-6" value="Display Driver&lt;br&gt;Graphic + Fonts&lt;br&gt;Touch Driver&lt;br&gt;&lt;br&gt;&lt;br&gt;&lt;br&gt;&lt;br&gt;&lt;br&gt;" style="rounded=1;whiteSpace=wrap;html=1;fillColor=#f5f5f5;fontColor=#333333;strokeColor=#666666;" parent="1" vertex="1">
          <mxGeometry x="500" y="120" width="260" height="180" as="geometry" />
        </mxCell>
        <mxCell id="WBhchhXUHo2wvyw4GKbI-2" value="" style="rounded=1;whiteSpace=wrap;html=1;movable=1;resizable=1;rotatable=1;deletable=1;editable=1;locked=0;connectable=1;" parent="1" vertex="1">
          <mxGeometry x="110" y="60" width="350" height="260" as="geometry" />
        </mxCell>
        <mxCell id="WBhchhXUHo2wvyw4GKbI-5" value="" style="shape=image;verticalLabelPosition=bottom;labelBackgroundColor=default;verticalAlign=top;aspect=fixed;imageAspect=0;image=data:image/jpeg,/9j/4AAQSkZJRgABAQAAAQABAAD/2wBDAAMCAgICAgMCAgIDAwMDBAYEBAQEBAgGBgUGCQgKCgkICQkKDA8MCgsOCwkJDRENDg8QEBEQCgwSExIQEw8QEBD/2wBDAQMDAwQDBAgEBAgQCwkLEBAQEBAQEBAQEBAQEBAQEBAQEBAQEBAQEBAQEBAQEBAQEBAQEBAQEBAQEBAQEBAQEBD/wAARCAGFAiQDAREAAhEBAxEB/8QAHwAAAQUBAQEBAQEAAAAAAAAAAAECAwQFBgcICQoL/8QAtRAAAgEDAwIEAwUFBAQAAAF9AQIDAAQRBRIhMUEGE1FhByJxFDKBkaEII0KxwRVS0fAkM2JyggkKFhcYGRolJicoKSo0NTY3ODk6Q0RFRkdISUpTVFVWV1hZWmNkZWZnaGlqc3R1dnd4eXqDhIWGh4iJipKTlJWWl5iZmqKjpKWmp6ipqrKztLW2t7i5usLDxMXGx8jJytLT1NXW19jZ2uHi4+Tl5ufo6erx8vP09fb3+Pn6/8QAHwEAAwEBAQEBAQEBAQAAAAAAAAECAwQFBgcICQoL/8QAtREAAgECBAQDBAcFBAQAAQJ3AAECAxEEBSExBhJBUQdhcRMiMoEIFEKRobHBCSMzUvAVYnLRChYkNOEl8RcYGRomJygpKjU2Nzg5OkNERUZHSElKU1RVVldYWVpjZGVmZ2hpanN0dXZ3eHl6goOEhYaHiImKkpOUlZaXmJmaoqOkpaanqKmqsrO0tba3uLm6wsPExcbHyMnK0tPU1dbX2Nna4uPk5ebn6Onq8vP09fb3+Pn6/9oADAMBAAIRAxEAPwD9U6ACgAoAKACgAoAKACgAoAKACgAoAKACgAoAKACgAoAKACgAoAKACgAoAKACgAoAKACgAoAKACgAoAKACgAoAKACgAoAKACgAoAKACgAoAKACgAoAKACgAoAKACgAoAKACgAoAKACgAoAKACgAoAKACgAoAKACgAoAKACgAoA+f9X+E/ws+KH7U/jX/hZnw08KeLf7M+H/hL7F/bujW1/wDZfM1HxD5nlecjbN3lpu24zsXPQUAdX/wyd+yx/wBG0/Cr/wAI3Tv/AIzQAf8ADJ37LH/RtPwq/wDCN07/AOM0AH/DJ37LH/RtPwq/8I3Tv/jNAB/wyd+yx/0bT8Kv/CN07/4zQAf8Mnfssf8ARtPwq/8ACN07/wCM0AH/AAyd+yx/0bT8Kv8AwjdO/wDjNAB/wyd+yx/0bT8Kv/CN07/4zQAf8Mnfssf9G0/Cr/wjdO/+M0AH/DJ37LH/AEbT8Kv/AAjdO/8AjNAB/wAMnfssf9G0/Cr/AMI3Tv8A4zQAf8Mnfssf9G0/Cr/wjdO/+M0AH/DJ37LH/RtPwq/8I3Tv/jNAB/wyd+yx/wBG0/Cr/wAI3Tv/AIzQAf8ADJ37LH/RtPwq/wDCN07/AOM0AH/DJ37LH/RtPwq/8I3Tv/jNAB/wyd+yx/0bT8Kv/CN07/4zQAf8Mnfssf8ARtPwq/8ACN07/wCM0AH/AAyd+yx/0bT8Kv8AwjdO/wDjNAB/wyd+yx/0bT8Kv/CN07/4zQAf8Mnfssf9G0/Cr/wjdO/+M0AH/DJ37LH/AEbT8Kv/AAjdO/8AjNAB/wAMnfssf9G0/Cr/AMI3Tv8A4zQAf8Mnfssf9G0/Cr/wjdO/+M0AH/DJ37LH/RtPwq/8I3Tv/jNAB/wyd+yx/wBG0/Cr/wAI3Tv/AIzQAf8ADJ37LH/RtPwq/wDCN07/AOM0AH/DJ37LH/RtPwq/8I3Tv/jNAB/wyd+yx/0bT8Kv/CN07/4zQAf8Mnfssf8ARtPwq/8ACN07/wCM0AH/AAyd+yx/0bT8Kv8AwjdO/wDjNAB/wyd+yx/0bT8Kv/CN07/4zQAf8Mnfssf9G0/Cr/wjdO/+M0AH/DJ37LH/AEbT8Kv/AAjdO/8AjNAB/wAMnfssf9G0/Cr/AMI3Tv8A4zQAf8Mnfssf9G0/Cr/wjdO/+M0AH/DJ37LH/RtPwq/8I3Tv/jNAB/wyd+yx/wBG0/Cr/wAI3Tv/AIzQAf8ADJ37LH/RtPwq/wDCN07/AOM0AH/DJ37LH/RtPwq/8I3Tv/jNAB/wyd+yx/0bT8Kv/CN07/4zQAf8Mnfssf8ARtPwq/8ACN07/wCM0AH/AAyd+yx/0bT8Kv8AwjdO/wDjNAB/wyd+yx/0bT8Kv/CN07/4zQAf8Mnfssf9G0/Cr/wjdO/+M0AH/DJ37LH/AEbT8Kv/AAjdO/8AjNAB/wAMnfssf9G0/Cr/AMI3Tv8A4zQAf8Mnfssf9G0/Cr/wjdO/+M0AH/DJ37LH/RtPwq/8I3Tv/jNAB/wyd+yx/wBG0/Cr/wAI3Tv/AIzQAf8ADJ37LH/RtPwq/wDCN07/AOM0AH/DJ37LH/RtPwq/8I3Tv/jNAB/wyd+yx/0bT8Kv/CN07/4zQAf8Mnfssf8ARtPwq/8ACN07/wCM0AH/AAyd+yx/0bT8Kv8AwjdO/wDjNAB/wyd+yx/0bT8Kv/CN07/4zQAf8Mnfssf9G0/Cr/wjdO/+M0AH/DJ37LH/AEbT8Kv/AAjdO/8AjNAB/wAMnfssf9G0/Cr/AMI3Tv8A4zQAf8Mnfssf9G0/Cr/wjdO/+M0AH/DJ37LH/RtPwq/8I3Tv/jNAB/wyd+yx/wBG0/Cr/wAI3Tv/AIzQAf8ADJ37LH/RtPwq/wDCN07/AOM0AH/DJ37LH/RtPwq/8I3Tv/jNAB/wyd+yx/0bT8Kv/CN07/4zQB+Rf/BXb4e+Afhr+0l4b0L4c+B/D/hXTZ/A9ndy2eiaZDYwSTtf36tK0cKqpcqiKWIzhFHYUAfuTQAUAFAHlXhz/k6f4h/9k/8ABv8A6cfEdAHqtABQAUAFABQAUAFABQAUAFABQAUAFABQAUAFABQAUAFABQAUAFABQAUAFABQAUAFABQB87/tlaprllY/CbTdGj8Y3UWtfEa20+/03wnrz6PqGpWx0rU5DbrcrdWoVd8UbkNOgPljkkAUAeeWvin9ov4W+MNB8H+HbWbw9o/xP8a/2XoFj8SNQn8Uajo1nBorT3MzSwai7OJLm3cpE15IAueY9+1ADrNC/aU+J+oeJ/Dfiu90vwuPh34w+Iep/Dyw02K2uBrdnLatdQx3s1wZTE4kmsJy0AgjaOOWM+ZJtYkA8n8G/tlfF26+HXha38B+C21HUtI8AaV4o1OyPhrxL4mm1y6vGlMenwXdu872B8u1lH2q+knLvMnyFYpHIBa8LftA/FjXvib8Xvhr4X1ibRbq+1jUdXsL/wAZW95PHp1jBodhIdLsbdJ4tt4JLjzmiEqCJFlk2yHO0A+mf2U9S8Ua1+zL8Ktb8Z68da1nUvB2k3t1fusgkuDLaxurStJJI8k21lEkpb944d9qBtigHqlABQAUAFABQAUAFABQAUAFABQAUAFABQAUAFABQAUAFABQAUAFABQAUAFABQAUAFABQB+K3/Bav/k6fwt/2T+x/wDTjqNAH7U0AFABQB5V4c/5On+If/ZP/Bv/AKcfEdAHqtABQAUAFABQAUAFABQAUAFABQAUAFABQAUAFABQAUAFABQAUAFABQAUAFABQAUAFABQBheJvBHhfxjd+H77xHpn2ufwvqy65pL+dJH9mvVgmgEuEYB/3VxMu19y/PnGQCACPxH4A8JeLdd8N+JfEOk/a9S8IXsmo6NN58sf2W4kgeB32owV8xSyLhww+bIGQCADh9X/AGcPAcPia/8AiR4E0qx0bxxNcXGo2F9qBvdQ0ux1G4jWOe9TShdRWy3EiKQ8sYjkcszM7Fn3AGJov7HHwZh+HXg7wB4q0u91v/hE/Dlv4ZkvItSvNOOrWce1mhvY7WZFuoDIGcQT+bGhkkAHzvuAOtk/Z3+DUs1zO3gmFWu/Edv4tl2Xdwi/2pDbrbJMoEgCL9nXyWhUCJ42dHRldwQDp/AHgPwz8MPBuk/D/wAGWt3a6FoVuLTT7e51C4vXggBO2IS3DvKUUHailiEQKi4VVAAOgoAKACgAoAKACgAoAKACgAoAKACgAoAKACgAoAKACgAoAKACgAoAKACgAoAKACgAoAKAPxW/4LV/8nT+Fv8Asn9j/wCnHUaAP2poAKACgDyrw5/ydP8AEP8A7J/4N/8ATj4joA9VoAKACgAoAKACgAoAKACgAoAKACgAoAKACgAoAyfFninQvA3hXWfGvim++xaL4f0+41TUbnynk8i1gjaSWTYgZ22ojHCgscYAJ4oA4D/hpb4df9C58Vf/AA0/ir/5XUAH/DS3w6/6Fz4q/wDhp/FX/wArqAD/AIaW+HX/AELnxV/8NP4q/wDldQAf8NLfDr/oXPir/wCGn8Vf/K6gA/4aW+HX/QufFX/w0/ir/wCV1AB/w0t8Ov8AoXPir/4afxV/8rqAD/hpb4df9C58Vf8Aw0/ir/5XUAH/AA0t8Ov+hc+Kv/hp/FX/AMrqAD/hpb4df9C58Vf/AA0/ir/5XUAH/DS3w6/6Fz4q/wDhp/FX/wArqAD/AIaW+HX/AELnxV/8NP4q/wDldQB2vgPx54Z+JXhmDxf4QurufTZ7i7tAbvT7ixnjntriS2uIpLe5SOaJ0mhlQq6KcoaAOgoAKACgAoAKACgAoAKACgAoAKACgAoAKACgAoAKACgAoAKACgAoAKACgAoAKACgAoAKACgAoAKACgAoAKAPxW/4LV/8nT+Fv+yf2P8A6cdRoA/amgAoAKAPKvDn/J0/xD/7J/4N/wDTj4joA9VoAKACgAoAKACgAoAKACgAoAKACgAoAKACgAoA8q/ax/5NY+Mn/ZP/ABD/AOm6egD1WgAoAKACgAoAKACgAoAKACgAoA8q/Zp/5J1q/wD2UDx3/wCpVqlAHqtABQAUAFABQAUAFABQAUAFABQAUAFABQAUAFABQAUAFABQAUAFABQAUAFABQAUAFABQAUAFABQAUAFABQB+K3/AAWr/wCTp/C3/ZP7H/046jQB+1NABQAUAeVeHP8Ak6f4h/8AZP8Awb/6cfEdAHqtABQAUAFABQAUAFABQAUAFABQAUAFABQAUAFAHlX7WP8Ayax8ZP8Asn/iH/03T0Aeq0AFABQAUAFABQAUAFABQAUAFAH5nfGf9tr44fsz/DDWdN+HfwI1FrO48d+NwPG+qILjSonfxRqfyRxwMcSAsVHntH86HEciYYgH0V+zD8Z/ixefArwjr+ufBn4q/EDVPEGnprN94iTUvC6w3s1wPMYQxnVo/KiTcI0j8qIgRjciuWFAHqX/AAuT4i/9GnfFX/wZeFf/AJc0AH/C5PiL/wBGnfFX/wAGXhX/AOXNAB/wuT4i/wDRp3xV/wDBl4V/+XNAB/wuT4i/9GnfFX/wZeFf/lzQAf8AC5PiL/0ad8Vf/Bl4V/8AlzQAf8Lk+Iv/AEad8Vf/AAZeFf8A5c0AH/C5PiL/ANGnfFX/AMGXhX/5c0AH/C5PiL/0ad8Vf/Bl4V/+XNAB/wALk+Iv/Rp3xV/8GXhX/wCXNAB/wuT4i/8ARp3xV/8ABl4V/wDlzQAf8Lk+Iv8A0ad8Vf8AwZeFf/lzQAf8Lk+Iv/Rp3xV/8GXhX/5c0AH/AAuT4i/9GnfFX/wZeFf/AJc0AH/C5PiL/wBGnfFX/wAGXhX/AOXNAB/wuT4i/wDRp3xV/wDBl4V/+XNAB/wuT4i/9GnfFX/wZeFf/lzQAf8AC5PiL/0ad8Vf/Bl4V/8AlzQAf8Lk+Iv/AEad8Vf/AAZeFf8A5c0AH/C5PiL/ANGnfFX/AMGXhX/5c0AH/C5PiL/0ad8Vf/Bl4V/+XNAB/wALk+Iv/Rp3xV/8GXhX/wCXNAB/wuT4i/8ARp3xV/8ABl4V/wDlzQBa8JfGe+1/x/Z/DnxL8H/GvgvUtR0e+1uxl1ubSJoLmCzmtIZ1VrC+uWVw19bkB1UEFsHjFAHpdABQAUAFABQAUAFABQAUAFABQB+K3/Bav/k6fwt/2T+x/wDTjqNAH7U0AFABQB5V4c/5On+If/ZP/Bv/AKcfEdAHqtABQAUAFABQAUAFABQAUAFABQAUAFABQAUAISBySB25oA8r/ax/5NY+Mn/ZP/EP/punoA9VoAKACgAoAKACgAoAKACgAoAKAPJP2dbO01H4X69Yahaw3NtcePPHsU0MyB45EbxTqgKsp4II4INAHd+BvAPg74aaCPC3gPQLXQ9FjuJrmDTrMFLa3aVy8ghj+7EhdmbYgChmYgDJoA6CgAoAKACgAoAKACgAoAKACgAoAKACgAoAKACgAoAKACgAoAKACgDyrxH/AMnT/Dz/ALJ/4y/9OPhygD1WgAoAKACgAoAKACgAoAKACgAoA/Fb/gtX/wAnT+Fv+yf2P/px1GgD9qaACgAoA8q8Of8AJ0/xD/7J/wCDf/Tj4joA9VoAKACgAoAKACgAoAKACgAoA8/+LfxD8VeBpfB2keCvCWleINa8Z+IH0K2h1TWpNLtYNmm3t88rzR21y/3LBkCiLlnGSADQBlf8JH+1P/0Rv4Vf+HL1H/5RUAH/AAkf7U//AERv4Vf+HL1H/wCUVAB/wkf7U/8A0Rv4Vf8Ahy9R/wDlFQAf8JH+1P8A9Eb+FX/hy9R/+UVAHL/FHVPjvqfw28UWfxB+E/wpsvDTaRdtq13/AMLQ1KI2lqsTNJOsg0HMbRqC6uOVZQw5AoA+APgr8Zv+CgHjj9l34pWXjPwn/wAJR8Lz4B19f+Em8UzPaXkdv/Z0w3WtwVMl/wAbyCyOGYBTNEOQAfr2M4G4AHvigBaACgAoA84+LHjfUvB3i74S2Ntq6WNh4o8ayaHqavGjC5hbQ9VnihywJQm6t7UgqQxKhc7WYEA+bdO8TyfHXxN8G9J+M2r2XiHwN4j134hwNZXEUX9m61f6drMkOkW9zGoEM6JaRTPEjBt7wb2DMoagD6J+COhfCrwlc+NfB3wi1ac6VpGvlLvRIEI0vQL57eKSazscRqkaEsJpII3ZY5Z5OIyxWgD1CgAoAKACgD5q+CWtfH208L+IbfwV8NPh/quip8QPHH2a81Txxe6fdS58T6kX328ek3CJhywGJWyoDHaSVAB6B/wkf7U//RG/hV/4cvUf/lFQAf8ACR/tT/8ARG/hV/4cvUf/AJRUAH/CR/tT/wDRG/hV/wCHL1H/AOUVAB/wkf7U/wD0Rv4Vf+HL1H/5RUAH/CR/tT/9Eb+FX/hy9R/+UVAB/wAJH+1P/wBEb+FX/hy9R/8AlFQAf8JH+1P/ANEb+FX/AIcvUf8A5RUAH/CR/tT/APRG/hV/4cvUf/lFQAf8JH+1P/0Rv4Vf+HL1H/5RUAH/AAkf7U//AERv4Vf+HL1H/wCUVAB/wkf7U/8A0Rv4Vf8Ahy9R/wDlFQAf8JH+1P8A9Eb+FX/hy9R/+UVAB/wkf7U//RG/hV/4cvUf/lFQAf8ACR/tT/8ARG/hV/4cvUf/AJRUAH/CR/tT/wDRG/hV/wCHL1H/AOUVAB/wkf7U/wD0Rv4Vf+HL1H/5RUAVE+KHxo0Dxv4J8NfEb4WeCtO03xprFxokV9onja71Ge2nj0y9v1ZoJtLtlZCti6EiUEF1ODzQB7BQAUAFABQAUAFAHlXiP/k6f4ef9k/8Zf8Apx8OUAeq0AFABQAUAFABQAUAFABQAUAFAH4rf8Fq/wDk6fwt/wBk/sf/AE46jQB+1NABQAUAeVeHP+Tp/iH/ANk/8G/+nHxHQB6rQAUAFABQAUAFABQAUAFABQB5V8ZP+Si/An/soF5/6iuvUAeq0AFABQAUAVNU0nS9csJdL1rTra/s59vm29zEssUmCGG5WBBwQDz6UAeaftYAL+yv8Y1UAAfD/wAQgAf9g6egD1agAoAKACgDi/iX8IfAnxeXw7a/EHRbbWdO8Oas+sxaZeW0NxZ3czWN1Z7LiGVGWRAl5I4AwRIkZzgEEAnuPhH8KLzwWnw3u/hj4Tn8JRyGZNAk0W2bTlkMplLC2KeUGMjM+dudzFupzQBseGPCvhfwToVr4X8GeG9L0DRrEOLXTtLs47W1gDOXbZFGAi5ZmY4AyWJ6mgDVoAKACgAoA8q/Zp/5J1q//ZQPHf8A6lWqUAeq0AFABQAUAFABQAUAFABQAUAFABQAUAFABQAUAeSfFu7tb34gfAqezuYp4x8Q7+MvE4Zd6eF9fV1yO6srKR2IIPSgD1W2u7W8RpbO5inRJHiZo3DAOjFXUkd1YEEdQQQaAJqACgAoAKACgDyrxH/ydP8ADz/sn/jL/wBOPhygD1WgAoAKACgAoAKACgAoAKACgAoA/Fb/AILV/wDJ0/hb/sn9j/6cdRoA/amgAoAKAPKvDn/J0/xD/wCyf+Df/Tj4joA9VoAKACgAoAKACgAoAKACgAoA8q+Mn/JRfgT/ANlAvP8A1FdeoA9VoAKACgAoAKAPKv2sf+TWPjJ/2T/xD/6bp6APVaACgAoAKACgAoAKACgAoAKACgDyr9mn/knWr/8AZQPHf/qVapQB6rQAUAFABQAUAFABQAUAFABQAUAFABQAUAFABQB+Yf7fv7Mfxln/AGlvA2sfAbxNr+iab8XdZWz1RNOvJorax1lLOWCa+dI2UDfprXO4gbikd3k/PggH6N/D3wJ4d+GHgbQfh54StPs2j+HdPh06zQnLeXGgUM5/idsFmbqWJJ5NAHQ0AFABQAUAFAHlXiP/AJOn+Hn/AGT/AMZf+nHw5QB6rQAUAFABQAUAFABQAUAFABQAUAfit/wWr/5On8Lf9k/sf/TjqNAH7U0AFABQB5V4c/5On+If/ZP/AAb/AOnHxHQB6rQAUAFABQAUAFABQAUAFABQB5V8ZP8AkovwJ/7KBef+orr1AHqtABQAUAFABQB5V+1j/wAmsfGT/sn/AIh/9N09AHqtABQAUAFABQAUAFABQAUAFABQB5V+zT/yTrV/+ygeO/8A1KtUoA9VoAKAPKv2sf8Ak1j4yf8AZP8AxD/6bp6AD/hk79lj/o2n4Vf+Ebp3/wAZoAP+GTv2WP8Ao2n4Vf8AhG6d/wDGaAD/AIZO/ZY/6Np+FX/hG6d/8ZoAP+GTv2WP+jafhV/4Runf/GaAD/hk79lj/o2n4Vf+Ebp3/wAZoAP+GTv2WP8Ao2n4Vf8AhG6d/wDGaAD/AIZO/ZY/6Np+FX/hG6d/8ZoAP+GTv2WP+jafhV/4Runf/GaAD/hk79lj/o2n4Vf+Ebp3/wAZoAP+GTv2WP8Ao2n4Vf8AhG6d/wDGaAD/AIZO/ZY/6Np+FX/hG6d/8ZoAP+GTv2WP+jafhV/4Runf/GaAD/hk79lj/o2n4Vf+Ebp3/wAZoAP+GTv2WP8Ao2n4Vf8AhG6d/wDGaAD/AIZO/ZY/6Np+FX/hG6d/8ZoAP+GTv2WP+jafhV/4Runf/GaAD/hk79lj/o2n4Vf+Ebp3/wAZoAP+GTv2WP8Ao2n4Vf8AhG6d/wDGaAD/AIZO/ZY/6Np+FX/hG6d/8ZoAP+GTv2WP+jafhV/4Runf/GaAD/hk79lj/o2n4Vf+Ebp3/wAZoAP+GTv2WP8Ao2n4Vf8AhG6d/wDGaAD/AIZO/ZY/6Np+FX/hG6d/8ZoAP+GTv2WP+jafhV/4Runf/GaAD/hk79lj/o2n4Vf+Ebp3/wAZoAP+GTv2WP8Ao2n4Vf8AhG6d/wDGaAD/AIZO/ZY/6Np+FX/hG6d/8ZoA5/4TfD3wD8Nf2kviRoXw58D+H/Cumz+B/B93LZ6JpkNjBJO1/wCIVaVo4VVS5VEUsRnCKOwoA91oAKACgAoA/Fb/AILV/wDJ0/hb/sn9j/6cdRoA/amgAoAKAPKvDn/J0/xD/wCyf+Df/Tj4joA9VoAKACgAoAKACgAoAKACgAoA8q+Mn/JRfgT/ANlAvP8A1FdeoA9VoAKACgAoAKAOf+IXgrSviV4A8S/DnXbi7g03xVo97ol5LaOqzxwXMLwyNGzKyhwrkglWGcZB6UAcV/wpv4i/9HY/FX/wW+Ff/lNQAf8ACm/iL/0dj8Vf/Bb4V/8AlNQAf8Kb+Iv/AEdj8Vf/AAW+Ff8A5TUAH/Cm/iL/ANHY/FX/AMFvhX/5TUAH/Cm/iL/0dj8Vf/Bb4V/+U1AB/wAKb+Iv/R2PxV/8FvhX/wCU1AB/wpv4i/8AR2PxV/8ABb4V/wDlNQAf8Kb+Iv8A0dj8Vf8AwW+Ff/lNQAf8Kb+Iv/R2PxV/8FvhX/5TUAH/AApv4i/9HY/FX/wW+Ff/AJTUAH/Cm/iL/wBHY/FX/wAFvhX/AOU1AHVfDH4e2fwv8IR+ErLXtV1v/iYalqlxqOqeR9qurq+vZ724kcW8UUQzNcyYCRqoXAxxQB1dABQB5V+1j/yax8ZP+yf+If8A03T0Aeq0AFABQAUAFABQAUAFABQAUAFABQAUAFABQAUAFABQAUAFABQAUAFABQAUAFABQB5V4c/5On+If/ZP/Bv/AKcfEdAHqtABQAUAFAH4rf8ABav/AJOn8Lf9k/sf/TjqNAH7U0AFABQB5V4c/wCTp/iH/wBk/wDBv/px8R0Aeq0AFABQAUAFABQAUAFABQAUAeVfGT/kovwJ/wCygXn/AKiuvUAeq0AFABQAUAFABQAUAFABQAUAFABQAUAFABQAUAFABQAUAFAHlX7WP/JrHxk/7J/4h/8ATdPQB6rQAUAFABQAUAFABQAUAFABQAUAeUeKP2oPg54P8R+JPC2tap4ja88HCJvEEth4P1m/s9LWS2S5Vri7t7V7eJfIkWQs0gCrksRg4AO/0rxboeuX4sdHnubxXsINTivYrKZrC4t5t3ltDebPs8xIXOxJGYKVYgBlJANigDntQ8f+EtL8caP8OL/VvK8Ra9ZXeo6fZeRK3nW9q0Szv5gUxrtM0XDMCd3AODgA6GgAoAKACgAoAKACgAoAKACgAoAKAPKvDn/J0/xD/wCyf+Df/Tj4joA9VoAKACgAoA/Fb/gtX/ydP4W/7J/Y/wDpx1GgD9qaACgAoA8q8Of8nT/EP/sn/g3/ANOPiOgD1WgAoAKACgAoAKACgAoAKACgDyr4yf8AJRfgT/2UC8/9RXXqAPVaACgAoAKACgAoAKACgAoAKACgAoAKACgAoAKACgAoAKACgDyr9rH/AJNY+Mn/AGT/AMQ/+m6egD1WgAoAKACgAoAKACgAoAKACgAoA+U9L8ZP8LPjr+0Vd+Ivhl4+1pPE9/o11oUGmeC9Uv7TWhFoFrC0K3cVu9qgMqtEWlkVFOdxADEAHienfs/eN/BenTeC/HXhfxZd2mn/AAw8AaXe3mleG21yy+22mq3E89rLaqynUrSImNLi3hZpZLcnC/NQAzxL4f0Gw0T4YaZ4y+C0cPg+T40zzLpeheCtU0qLWrL/AIR+bzLhPDtyZri2hDrIklqqkTiCWQRnzzvAGw/D34s+H/smuaB8GvFd/oFv4W+Jx8NeHWt7qyks9Ju7u1bTtNkZMTWkksSymOAMk6qdkex0GwAydL8Ha38NZ/iR8UND+HKaPpfgqz8H+L9CGm+ANQ8G6Vqd3p93dR38UdrfSySfaHtLiW3LuY5JDIrCNlIeQA+/Pgl4Gl+Gvwj8JeB7tV+3aVpUEeouH3edfsu+6lJycl52lc44yxxxQB29ABQAUAFABQAUAFABQAUAFAHlXhz/AJOn+If/AGT/AMG/+nHxHQB6rQAUAFABQB+K3/Bav/k6fwt/2T+x/wDTjqNAH7U0AFABQB5V4c/5On+If/ZP/Bv/AKcfEdAHqtABQAUAFABQAUAFABQAUAFAHlXxk/5KL8Cf+ygXn/qK69QB6rQAUAFABQAUAFABQAUAFABQAUAFABQAUAFABQAUAFABQAUAeVftY/8AJrHxk/7J/wCIf/TdPQB6rQAUAFABQAUAFABQAUAeY/Ff4ua14I8W+Dfh34P8NaJq/iTxp/aEtkuu+IP7GsRFZpG0qCdYLiSW4YzxlII4WLIk7llWI5AOL0/9sLwzYa7b+G/ih4K8Q+A72x8M6jr/AIll1Sxums9Ie1u/sojW5WDyriGdo7poJwyiVUgCoXnWNQDq5v2pfgfZ6Hda7qfirUNNWy1S20Wew1Hw/qVpqaX1zGZLaH+z5rdbstMoPlYixIQQhYgigDb8MfHP4W+MYNEl0DxM0sviDV7zQLO0nsLm2u01G0hmmube4tpo1mtXjjt5GYTpH/yzHWSMMAUF/aN+D03inSfBVn4mu73XNcuLu3sbKz0W/uZJPst9JY3EreXCwjgjuYnRp3KxBRv3+WQ5AOg8Uax8O4PGPg/w94sgsJvEOo3V3c+GVubAzyJcQWzGeSGTYRA4gkkG4spKuygnJFACeP8A4p+Cvhkmm/8ACWX98LnWZ3ttOsNN0q71S+vJEjMknlWlnFLPIERSzsqFVGCxGRQB57qX7Rf7LnjlfDmman4g0vxNBrEr6xowbQbnULcCxvXt21EOIGjhhhuImP2tisSKolEgjIcgGlZ/tXfAW60LWPE0/jS50zTND0621m6uNX0PUNND6fcSeVDeQC5gjNzbs+F86EOmWXLDcuQDM8VftefCXQvBF/4003Ubi4/snxBo+gahp+p2F7pF5aPfzwKs0lvcwLOEFvM9whEREoiZYyW6AG5fftN/BrT/AAzp/iu417WGt9UvbzT7exh8M6pNqontA5ulk01Lc3kIiEZLtJCqqGjJIEiFgD0TQdd0fxRoeneJfD2owahpWrWkN9Y3cDbori3lQPHIh7qysCD6GgC/QAUAFABQAUAFABQB5V4c/wCTp/iH/wBk/wDBv/px8R0Aeq0AFABQAUAfit/wWr/5On8Lf9k/sf8A046jQB+1NABQAUAeVeHP+Tp/iH/2T/wb/wCnHxHQB6rQAUAFABQAUAFABQAUAFABQB5V8ZP+Si/An/soF5/6iuvUAeq0AFABQAUAFABQAUAFABQAUAFABQAUAFABQAUAFABQAUAFAHlX7WP/ACax8ZP+yf8AiH/03T0Aeq0AFABQAUAFABQAUAFAHj3xj8CfEjxfqk+n2/g74dfEfwLqunww3fhTxpO1jHZX0Mrst3DPHY3fnCRZFVo5I1MbW8bxv87qADx3Sv2Tfjdpunta6v4u8NeKL3TdM8H/ANnahqd/eK91NomqTagdPuFaGRxaySXDKs5lmkHkwl4pCoAALGt/C79oBfjh4Z+I8vhjwvrHiHVtSu/EWpaWNSu4/D+mWum2L6fp1p/aZs3kNwx1e6ut5tl3sjIsQEJnABs2PwD+OPg/xBonxG8Mr4B13xbcN4m1XWotU1K8stPsNZ1ZrERTWoitpZLqK2t7Rrba/kPKrM5aMvtjAOq/Zz/Z8134Q6p/avii90nULqDwdofhq3ubV3eVp4ZLq61KZi0abRPeXjOAM5EaE7T8oAN34g/sp/AT4o/EPSPib43+GfhzVNZ0wzm4Nzo1lOmrCSAQIL3zYWecRKqmLLDYVGOBigDhf2lfEfjb4d/E/wAO/E34feFLvxZrNh4V1jR4dIfw/rl3AjXU1tKk8Vzp9jcxJKXs1RoZmgDqykyxhd1AGP8ADr9mD4oeFvhnr9rp2vaT4c8Zaj8MdJ8JaNqFrIwl03UVW7udQlZ40xEJb69YhoS5URoy8qooA4XXf2c/jppHjEeJV8NaXqE3ifWPC2l2Wl3HjnXvE0FpY6Zc3mr3n27UdSgaSCG4ltbKIOkWxWcL5UjnE4B65pf7P3xB174maV8V/iJJ4XjvrrxXD4g1nS9Nu57iC0ttP0y7tNKtreZ4I2uWWa7e6lkdIfnKoqlU+cA4/wAUfsufGO78Py2unL4C1a+1a78S6zP9r1G702bQ9fv9Se5stY07UYLWS7EkFuyW7QKYAyxqPMI3bgD6t0KyvtM0TT9N1PVH1O8tLWKC4vZIxG11KqANKVHCliC2BwM0AXqACgAoAKACgAoAKAPKvDn/ACdP8Q/+yf8Ag3/04+I6APVaACgAoAKAPxW/4LV/8nT+Fv8Asn9j/wCnHUaAP2poAKACgDyrw5/ydP8AEP8A7J/4N/8ATj4joA9VoAKACgD5/wDhv4d+KPxQ0nW/Ft7+0n8QNE/4rDxTpdvp2l6b4d+y2trY65e2VvGhuNLllOIbaPJeRmLZOeaAOr/4U38Rf+jsfir/AOC3wr/8pqAD/hTfxF/6Ox+Kv/gt8K//ACmoAP8AhTfxF/6Ox+Kv/gt8K/8AymoAP+FN/EX/AKOx+Kv/AILfCv8A8pqAD/hTfxF/6Ox+Kv8A4LfCv/ymoAP+FN/EX/o7H4q/+C3wr/8AKagDJ1n9nLxR4g1HQtW1f9qP4q3F34Z1B9U0uT7F4YT7PdPa3Fo0mF0cB8wXdwmGBX5843KpABrf8Kb+Iv8A0dj8Vf8AwW+Ff/lNQAf8Kb+Iv/R2PxV/8FvhX/5TUAH/AApv4i/9HY/FX/wW+Ff/AJTUAH/Cm/iL/wBHY/FX/wAFvhX/AOU1AB/wpv4i/wDR2PxV/wDBb4V/+U1AB/wpv4i/9HY/FX/wW+Ff/lNQAf8ACm/iL/0dj8Vf/Bb4V/8AlNQBa/Z41zxNr/w2lm8X+JLvxBqWneKPFGiHUruC3hnuYLDXb6zt2kW2jihD+TbxAlI1BIJxzQB6XQAUAFABQAUAFABQAUAFABQAUAFAHlX7WP8Ayax8ZP8Asn/iH/03T0Aeq0AFABQAUAFABQAUAFABQAUAFABQAUAFABQAUAFABQAUAFABQAUAFABQAUAFABQB5V4c/wCTp/iH/wBk/wDBv/px8R0Aeq0AFABQAUAfit/wWr/5On8Lf9k/sf8A046jQB+1NABQAUAeVeHP+Tp/iH/2T/wb/wCnHxHQB6rQAUAFAHlX7NP/ACTrV/8AsoHjv/1KtUoA9VoAKACgAoAKACgAoAKACgAoAKACgAoAKAPKv2af+Sdav/2UDx3/AOpVqlAHqtABQAUAFABQAUAFABQAUAFABQAUAeVftY/8msfGT/sn/iH/ANN09AHqtABQAUAFABQAUAFABQAUAFABQAUAFABQAUAFABQAUAFABQAUAFABQAUAFABQAUAeVeHP+Tp/iH/2T/wb/wCnHxHQB6rQAUAFABQB+K3/AAWr/wCTp/C3/ZP7H/046jQB+1NABQAUAeVeHP8Ak6f4h/8AZP8Awb/6cfEdAHqtABQAUAeVfs0/8k61f/soHjv/ANSrVKAPVaACgAoAKACgAoAKACgAoAKACgAoAKACgDyr9mn/AJJ1q/8A2UDx3/6lWqUAeq0AFABQAUAFABQAUAFABQAUAFABQB5V+1j/AMmsfGT/ALJ/4h/9N09AHqtABQAUAFAGd4i8QaN4T8P6n4p8RX8VjpWj2c1/fXUpwkFvEheR29gqk/hQBoAhgGUgg8gigBaACgAoAKACgAoAKACgAoAKACgAoAKACgAoAKACgAoAKACgAoA8q8Of8nT/ABD/AOyf+Df/AE4+I6APVaACgAoAKAPxW/4LV/8AJ0/hb/sn9j/6cdRoA/amgAoAKAPKvDn/ACdP8Q/+yf8Ag3/04+I6APVaACgAoA8q/Zp/5J1q/wD2UDx3/wCpVqlAHpOsXGpWuk3t1o2nR6hqENtJJaWklx5CXEwUlI2k2t5YZsAttOM5wcYoA+d7v9tHSP8AhWXgH4j2PhS2SLxh4Z1rxLqSahqU8UOhRaXbBrtZXgtZpZQl3JDbFkhz85cKxAjYA1/Cn7ZHw11Xx94i+HninzdCvdG1vTNFtbpLa9u7K6e+s7ee2eW5W2WGzMsk7wxpO6tIYiRydqgG/b/tYfAy80y71iw8R61eWtprf/CNhrXwpq8zXeqAzhrS1RLYtdyJ9lnZ1gEmxU3NtVlJAOJ179uf4awatFb+FbeTVdGuPA2ueMk1y6tNUtbS3fTbpbeW1ugljLLb4YT73ZC8bJEnlM08IYA9Du/2lfg5pXibTfBeteLlt9Z1AadG/k2F5NY2txfIWtLee9EIt7eaUDMcU7xyOGjIT50yAR+Ff2oPgj418aw/D7w34svLnWbjUdQ0eBZNC1CC2mv7EObu2S6kgW3eaNY3coJC2wBgCpBIB6rQB51qf7QXwq0jxm3gO+1vUhqcWqWuiTTx6DqEunW+o3KxGC0m1BIDaRTuJ4MRvKrEzRjGXUEASz/aG+D9/wCPLr4bWni1pNctZ7u0I/s67FnNdWsQmurWG9MX2ae4hjJaSCKVpU2SblBjfaAYPhP9r79nnxrp97q+g+PZhYWPh+fxXJd32iahYQSaTCypNdQyXMEazpG7Kj+UWKudpAbigDXtf2kPhBNoPibxHe6/qejWvg+3t7rWYtd8PalpN3bxXBdbdltbuCOeXznjeOIRoxkkUxpuf5aAOm+H3xK8G/FHSLnW/BepXFzDYXsum3sN3YXFjd2V3GFLwXFtcpHNBIFdG2yIpKujDKspIB09AHlX7NP/ACTrV/8AsoHjv/1KtUoA9VoAKACgAoAKACgAoAKACgAoAKACgDyr9rH/AJNY+Mn/AGT/AMQ/+m6egD1WgAoAKACgD4Q/4K1/EL4k2HwOT4W/Dbwd4j1KHxCJL/xRqunabPNbadpNriRkmmRdsW9wGJLcRwyBhtfNAHqv/BPb4h/Ejxl+zto/h34weDvEnh7xZ4NA0Oca3ps9pJf2saj7Ncp5qgyfuysbNkkvExONwoA+mqACgAoAKACgAoAKACgAoAKACgAoAKACgAoAKACgAoAKACgAoA8q8Of8nT/EP/sn/g3/ANOPiOgD1WgAoAKACgD8Vv8AgtX/AMnT+Fv+yf2P/px1GgD9qaACgAoA8q8Of8nT/EP/ALJ/4N/9OPiOgD1WgAoAKAPKv2af+Sdav/2UDx3/AOpVqlAHqtAHyHqH7GnjdrP9oDS7LxLokth480bUtJ+H9vNNNGmix6m8t3qMc6rGVjje+kVl8sP8kYOASVoAhn/ZV+Nd7N468EXV94HXwV8QvEXhzV7/AFBL+6OqWUGm29gs0UcH2YRytM9iFUtMgjVi+HLbFANWz/Zr+NXhz4V+H/B2g+JNMkuLDxvr+v6xp9h4q1Hw+uq6bfXF7PBANUs7dru3aOSe2kdETa5iZS2MEgHAWv7EPxw0/wAC33hZNb8F3l3rHhDx74Uu7ibWNRxCda1CK/s7lXlgmlnIeIxSrK+9Q3mCSZsqQDu9b/ZY+K1xF4j+Hulav4TPgnx9rvh3xHrupXFzcjVtOm0+KyS4trWEQmO4SQ6bbmOV5ojF5so8ttqlgDe8K/s1+OtD/wCFd/a9W0J/+ES+KHibxre+XPMfMsdR/tTyI4sxDMy/b4d6ttUbXwzYG4A9u/4V9oP/AAm3/CwPt/iX+1PL8ryP+Em1L+zduzZn+zvP+x7sc7vJzu+bO7mgDxfxJ8DvizffGOfxj4XfQfDlleeJNO1W617RvFusWNxdWEAgE1teaEEfTr24kjikt/tUkikRtEwQNCqkA5Lw7+x14r0Hxta2sg0fUvCej+JtV8T6bqN/4y8QyXCSXTXE0caaKkqabbTRy3cyG5UyCSMMxgV5XwAWtL/ZS+I2m+D/AIb6FJceBNSuPBvwl1TwHqFrqyXN3p99fXIsNoaNVjd7VhaSq7bkcb1IRuQACK8/ZW+KvinwR4o0LWvEP9ixm80DVvC+gH4g654gt7e/0y5a4d31W6jhv7Vbn9zDi2x9n8oTJvclKAPU/wBnb4Qa38MV8Wa14o0vSrHWPFWpRXUqWXifWfEMphhgWGH7RqGqSGWeQKpGUhhVVCLtbbuoA9ioA8q/Zp/5J1q//ZQPHf8A6lWqUAeq0AFABQAUAFABQAUAFABQAUAFABQB5V+1j/yax8ZP+yf+If8A03T0Aeq0AFABQAUAeVftY/8AJrHxk/7J/wCIf/TdPQB6rQAUAFABQAUAFABQAUAFABQAUAFABQAUAFABQAUAFABQAUAFABQB5V4c/wCTp/iH/wBk/wDBv/px8R0Aeq0AFABQAUAfit/wWr/5On8Lf9k/sf8A046jQB+1NABQAUAeVeHP+Tp/iH/2T/wb/wCnHxHQB6rQAUAFAHlX7NP/ACTrV/8AsoHjv/1KtUoA9VoAKACgAoAKACgAoAKACgAoAKACgAoAKAPKv2af+Sdav/2UDx3/AOpVqlAHqtABQAUAFABQAUAFABQAUAFABQAUAeVftY/8msfGT/sn/iH/ANN09AHqtABQAUAFAHlX7WP/ACax8ZP+yf8AiH/03T0Aeq0AFABQAUAFABQAUAFABQAUAFABQAUAFABQAUAFABQAUAFABQAUAeVeHP8Ak6f4h/8AZP8Awb/6cfEdAHqtABQAUAFAH4rf8Fq/+Tp/C3/ZP7H/ANOOo0AftTQAUAFAHlXhz/k6f4h/9k/8G/8Apx8R0Aeq0AFABQB5V+zT/wAk61f/ALKB47/9SrVKAPVaACgAoAKACgAoAKACgAoAKACgAoAKACgDyr9mn/knWr/9lA8d/wDqVapQB6rQAUAFABQAUAFABQAUAFABQAUAFAHlX7WP/JrHxk/7J/4h/wDTdPQB6rQAUAFABQB5V+1j/wAmsfGT/sn/AIh/9N09AHqtABQB43qf7SGj6B8Y7/4e6/odxaeGbSWx0Y+Ky4Nlb+ILiMTrp1z/AM8S8E9m0ch+Rnl8slWaISAHslABQAUAFABQAUAFABQAUAFABQAUAFABQAUAFABQAUAFAHlXhz/k6f4h/wDZP/Bv/px8R0Aeq0AFABQAUAfit/wWr/5On8Lf9k/sf/TjqNAH7U0AFABQB5V4c/5On+If/ZP/AAb/AOnHxHQB6rQAUAFAHzr8Jfi1oHw10DXvCHi/wl8SoNSg8ceMLsi0+G3iG+gkgufEOoXNvLHcW1lJDKjwzROGR2GHFAHa/wDDS3w6/wChc+Kv/hp/FX/yuoAP+Glvh1/0LnxV/wDDT+Kv/ldQAf8ADS3w6/6Fz4q/+Gn8Vf8AyuoAP+Glvh1/0LnxV/8ADT+Kv/ldQAf8NLfDr/oXPir/AOGn8Vf/ACuoAP8Ahpb4df8AQufFX/w0/ir/AOV1AB/w0t8Ov+hc+Kv/AIafxV/8rqAD/hpb4df9C58Vf/DT+Kv/AJXUAH/DS3w6/wChc+Kv/hp/FX/yuoAP+Glvh1/0LnxV/wDDT+Kv/ldQAf8ADS3w6/6Fz4q/+Gn8Vf8AyuoAP+Glvh1/0LnxV/8ADT+Kv/ldQAf8NLfDr/oXPir/AOGn8Vf/ACuoAP8Ahpb4df8AQufFX/w0/ir/AOV1AB+zMl5/wq64vb3SNV0z+0/GHi/VLe31TTp7C6+y3XiLUbi3ke3uESWLfDLG4DorbXHHNAHqtABQAUAFABQAUAFABQAUAFABQAUAeVftY/8AJrHxk/7J/wCIf/TdPQB6rQAUAFABQB5V+1j/AMmsfGT/ALJ/4h/9N09AHqtAFPWNX07w/pF9r2sXSW1hpttLd3U7/dihjUs7n2Cgn8KAPK/gl4Gs/EnwOI+I/h6C8l+JZvPEfiDTb+JZFP8AaTmUWkqnIPkwPDb9+IByepAMnw74i179nfXrD4cfEfV7vVPAGqXCWXhPxZeymSbT5nO2LSdTlbkkkhLe6Y/vOIpT5ux5wD3agAoAKACgDifiD8aPhp8Lb7TNM8c+J00+71ZZZLaBLaa4kEMQHmTyLCjGKBCyK0z7YwzopYFgCAb/AIW8X+E/HGjxeIPBXifSdf0uf/VXumXsd1A/GeJIyVPUd6ANegAoAKACgAoAKACgAoAKACgAoAKAPKvDn/J0/wAQ/wDsn/g3/wBOPiOgD1WgAoAKACgD8Vv+C1f/ACdP4W/7J/Y/+nHUaAP2poAKACgDyrw5/wAnT/EP/sn/AIN/9OPiOgD1WgAoAKACgAoAKACgAoAKACgAoAKACgAoAKACgAoAKACgAoAKACgAoAKACgAoAKACgAoAKACgDyr9rH/k1j4yf9k/8Q/+m6egD1WgAoAKACgDyr9rH/k1j4yf9k/8Q/8ApunoA9VoA8k/aQJ8Q+GND+EMB3S/ErXLfQLpAM50pQ1zqe4dlayt7iHJ43zxjnIUgHrQAUBVAAHAAoAz/EXh3QfF2g3/AIX8UaRaappGqW72l7ZXcQkhuIXGGR1PBBBoA8a8O+Ite/Z316w+HHxH1e71TwBqlwll4T8WXspkm0+Zzti0nU5W5JJIS3umP7ziKU+bsecA92oAKAPO/iz8Wf8AhAv7O8LeFtG/4STx54k8yPQNAjl8vzdmPMurmTB+z2cW5TJMQcZVEDyOiMAHwm+E3/CBf2j4p8U6z/wknjzxJ5cmv6/JF5fm7M+Xa20eT9ns4tzCOEE4yzuXkd3YAPFP7P8A8KPFWry+J38Mf2L4imwX17w9dS6RqbkHI33Nq0ckqgk/JIWQ5IKkEggGR/wiH7Qfgn5vBvxM0nx1Yx526b40sxaXZHZV1KxjCqB0zJZyseCWJB3AB/w0B/wjB8n4w/DLxZ4I2nDal9k/tbSD/t/bLLzPJTr81ykHI6cjIB6J4W8YeE/HOjxeIPBXifSdf0ufmK90y9juoH4zxJGSp6+tAGvQAUAFABQAUAFABQAUAFAHlXhz/k6f4h/9k/8ABv8A6cfEdAHqtABQAUAFAH4rf8Fq/wDk6fwt/wBk/sf/AE46jQB+qn7WP/JrHxk/7J/4h/8ATdPQB4D/AMM6fs+f9EJ+Hn/hL2P/AMaoAP8AhnT9nz/ohPw8/wDCXsf/AI1QAf8ADOn7Pn/RCfh5/wCEvY//ABqgA/4Z0/Z8/wCiE/Dz/wAJex/+NUAH/DOn7Pn/AEQn4ef+EvY//GqAD/hnT9nz/ohPw8/8Jex/+NUAH/DOn7Pn/RCfh5/4S9j/APGqAD/hnT9nz/ohPw8/8Jex/wDjVAB/wzp+z5/0Qn4ef+EvY/8AxqgA/wCGdP2fP+iE/Dz/AMJex/8AjVAB/wAM6fs+f9EJ+Hn/AIS9j/8AGqAD/hnT9nz/AKIT8PP/AAl7H/41QAf8M6fs+f8ARCfh5/4S9j/8aoAP+GdP2fP+iE/Dz/wl7H/41QAf8M6fs+f9EJ+Hn/hL2P8A8aoAP+GdP2fP+iE/Dz/wl7H/AONUAH/DOn7Pn/RCfh5/4S9j/wDGqAD/AIZ0/Z8/6IT8PP8Awl7H/wCNUAH/AAzp+z5/0Qn4ef8AhL2P/wAaoAP+GdP2fP8AohPw8/8ACXsf/jVAB/wzp+z5/wBEJ+Hn/hL2P/xqgA/4Z0/Z8/6IT8PP/CXsf/jVAB/wzp+z5/0Qn4ef+EvY/wDxqgA/4Z0/Z8/6IT8PP/CXsf8A41QAf8M6fs+f9EJ+Hn/hL2P/AMaoAP8AhnT9nz/ohPw8/wDCXsf/AI1QB7H+xlp2n6P8BrfSNIsLexsbHxZ4xtrW1toliigiTxJqSpGiKAFVVAAUAAAACgD3CgAoAKACgAoAKACgDyr9rH/k1j4yf9k/8Q/+m6egD1WgAoAKACgDyr9rH/k1j4yf9k/8Q/8ApunoA9VoA8j0cjxx+0nrmskiTTvhpokXh+2OcgarqPl3d4COm5LWLTdp6gXMg4BO4A9coAKAM7xF4d0HxdoN/wCF/FGkWmqaRqlu9pe2V3EJIbiFxhkdTwQQaAPGvDviLXv2d9esPhx8R9Xu9U8AapcJZeE/Fl7KZJtPmc7YtJ1OVuSSSEt7pj+84ilPm7HnAOy+LPxZ/wCEC/s7wt4W0b/hJPHniTzI9A0COXy/N2Y8y6uZMH7PZxblMkxBxlUQPI6IwAfCb4Tf8IF/aPinxTrP/CSePPEnlya/r8kXl+bsz5drbR5P2ezi3MI4QTjLO5eR3dgD0SgAoAKACgDzrxT+z98KPFWry+J38Mf2L4imwX17w9dS6RqbkHI33Nq0ckqgk/JIWQ5IKkEggGR/wiH7Qngn5vBvxM0nx1Yx526b40sxaXZHZV1KxjCqB0zJZyseCWJB3AC/8NAf8IwfJ+MPwy8WeCNpw2pfZP7W0g8ff+2WXmeSnUbrlIOR05GQD0Twt4w8J+OdHi8QeCvE+k6/pc/MV7pl7HdQPxniSMlT19aANegAoAKACgAoAKAPKvDn/J0/xD/7J/4N/wDTj4joA9VoAKACgAoA/Fb/AILV/wDJ0/hb/sn9j/6cdRoA/VT9rH/k1j4yf9k/8Q/+m6egDhKACgAoAKACgAoAKACgAoAKACgAoAKACgAoAKACgAoAKACgAoAKACgAoAKACgDqf2RP+SLt/wBjl40/9SbU6APZ6ACgAoAKACgAoAKAPKv2sf8Ak1j4yf8AZP8AxD/6bp6APVaACgAoAKAPKv2sf+TWPjJ/2T/xD/6bp6APVaAMPwr4O0TwdHqiaNHLv1nVbrWb2WaQu8tzO+WJPoqhI1HZI0HbNAG5QAUAFAGd4i8O6D4u0G/8L+KNItNU0jVLd7S9sruISQ3ELjDI6nggg0AcV8IvgZ4U+D66jdaZqGr65q+pssU+s65eve332KIsLSyEzkt5MEZ2qufmbfI+6SR2YA9GoAKACgAoAKACgAoAKAPOvFP7P3wo8VavL4nfwx/YviKbBfXvD11LpGpuQcjfc2rRySqCT8khZDkgqQSCAdp4e0qbQ9FtNHuNd1DWZLOMRNfag0bXM2OhkMaIpbGBkKCcZOSSSAaNABQAUAFABQB5V4c/5On+If8A2T/wb/6cfEdAHqtABQAUAFAH4rf8Fq/+Tp/C3/ZP7H/046jQB+qn7WP/ACax8ZP+yf8AiH/03T0AcJQAUAFAHmfx5+L+ofBzQNE1XSvCtvr91resrpEdvcak1jHHm1ubgyGRYZSeLYrt2clhyMUAeRf8Nj/EH/oi/h7/AMLOf/5W0AH/AA2P8Qf+iL+Hv/Czn/8AlbQAf8Nj/EH/AKIv4e/8LOf/AOVtAB/w2P8AEH/oi/h7/wALOf8A+VtAB/w2P8Qf+iL+Hv8Aws5//lbQAf8ADY/xB/6Iv4e/8LOf/wCVtAB/w2P8Qf8Aoi/h7/ws5/8A5W0AH/DY/wAQf+iL+Hv/AAs5/wD5W0AH/DY/xB/6Iv4e/wDCzn/+VtAB/wANj/EH/oi/h7/ws5//AJW0AH/DY/xB/wCiL+Hv/Czn/wDlbQAf8Nj/ABB/6Iv4e/8ACzn/APlbQAf8Nj/EH/oi/h7/AMLOf/5W0AH/AA2P8Qf+iL+Hv/Czn/8AlbQAf8Nj/EH/AKIv4e/8LOf/AOVtAB/w2P8AEH/oi/h7/wALOf8A+VtAB/w2P8Qf+iL+Hv8Aws5//lbQAf8ADY/xB/6Iv4e/8LOf/wCVtAHpHwH+PGsfGDWPEuia34Is/D8/h+20+6VrXWHv0uEunulAJa3hKFTans2d46YoA9hoAKACgDqf2RP+SLt/2OXjT/1JtToA9noAKACgAoAKACgAoA8q/ax/5NY+Mn/ZP/EP/punoA9VoAKACgAoA4r43+CtV+JXwX8ffDnQri0g1LxV4X1XRLOW7dlgjnubSSGNpGVWYIGcEkKxxnAPSgDn/wDhI/2p/wDojfwq/wDDl6j/APKKgA/4SP8Aan/6I38Kv/Dl6j/8oqAD/hI/2p/+iN/Cr/w5eo//ACioAP8AhI/2p/8Aojfwq/8ADl6j/wDKKgA/4SP9qf8A6I38Kv8Aw5eo/wDyioAP+Ej/AGp/+iN/Cr/w5eo//KKgA/4SP9qf/ojfwq/8OXqP/wAoqAD/AISP9qf/AKI38Kv/AA5eo/8AyioAP+Ej/an/AOiN/Cr/AMOXqP8A8oqAD/hI/wBqf/ojfwq/8OXqP/yioAP+Ej/an/6I38Kv/Dl6j/8AKKgA/wCEj/an/wCiN/Cr/wAOXqP/AMoqAD/hI/2p/wDojfwq/wDDl6j/APKKgA/4SP8Aan/6I38Kv/Dl6j/8oqAD/hI/2p/+iN/Cr/w5eo//ACioAP8AhI/2p/8Aojfwq/8ADl6j/wDKKgD4b/bQ+J/7XXgP9ovwDN8HNAsdJ+Iuu6VL/aPhzwf4hu/EUGqWEUyrBPe2c+nW0ceCbmMXGHbahG6IRqSAfd/wG174+eIPBNrfftB+AfDHhXxC0MZe30XWHvNznO/zIzHsgI+XCpPODk/MMYoA9KoAKACgAoA8q8Of8nT/ABD/AOyf+Df/AE4+I6APVaACgAoAKAPxW/4LV/8AJ0/hb/sn9j/6cdRoA/VT9rH/AJNY+Mn/AGT/AMQ/+m6egDhKACgAoA+eP20v+RX8A/8AY5D/ANNGpUAfO1ABQAUAFABQAUAFABQAUAFABQAUAFABQAUAFABQAUAez/scf8lB+Iv/AGBvDv8A6P1WgD6poAKACgDqf2RP+SLt/wBjl40/9SbU6APZ6ACgAoAKACgAoAKAPKv2sf8Ak1j4yf8AZP8AxD/6bp6APVaACgAoAKACgAoAKACgAoAKACgAoAKACgAoAKACgAoAKACgAoAqW+kaVaahd6ta6baw3t/5YurlIVWWcIMIHcDLbRwMnjtQBboAKACgAoAKAPKvDn/J0/xD/wCyf+Df/Tj4joA9VoAKACgAoA/Fb/gtX/ydP4W/7J/Y/wDpx1GgD9VP2sf+TWPjJ/2T/wAQ/wDpunoA+W/ir+1p8JfhjrMHguDUZPFPjK+uUsbPw7ohSe5e5dgiRyOSI4SWZQQzb8HIU0Aey2xuGt4mu4445yimVY3Lor45CsQCRnOCQM+goAkoA+eP20v+RX8A/wDY5D/00alQB87UAFABQAUAFABQAUAFABQAUAFABQAUAFABQAUAFABQB7P+xz/yUH4i/wDYG8O/+j9VoA+qNy+ooATen98fnQB4lof7XHwtb4iat8IvH17/AMIX4u0m8Nr9n1WRVtb1TgxS29zwhWRGRlWTY53gBTQB9L/shMrfBUspBB8ZeNCCO4/4SbUqAPaKACgAoAKACgAoAKAPKv2sf+TWPjJ/2T/xD/6bp6APVaACgAoAKACgAoAKACgAoAKACgAoAKACgAoAKACgAoAKACgAoAKACgAoAKACgAoA8q8Of8nT/EP/ALJ/4N/9OPiOgD1WgAoAKACgD8Vv+C1f/J0/hb/sn9j/AOnHUaAP1T/azVX/AGWPjIGUEf8ACAeITgjuNOnIoA+Gvir/AME9vhJ4p1q38a/DW0sfCWvWVzHeLZSWS3eiXjowby57NvlVG2hSsZC4JyjUAeyW37O3wDe3ie7+Anw5inZFMiJ4bsnVXxyAxhG4A98DPoKAJP8AhnT9nz/ohPw8/wDCXsf/AI1QB4j+1R8KPhb4F0jwLq/gj4a+FfD19N4s+zSXWlaNbWkrxHStRYxl4kUlSyKducZUHsKAPIKACgAoAKACgAoAKACgAoAKACgAoAKACgAoAKACgAoA9F/Zm+HPw98f/EHx3/wnfgTw94k+waNoP2X+19LgvPs++fU9/l+arbN2xM4xnauegoA+iP8AhnX9n3/ohXw9/wDCYsv/AI1QAv8Awzt+z9/0Qv4e/wDhMWX/AMaoA8U0P/gn38K9S+ImrfEn4k6dp12L27Mth4Y0W1XT9IsIFwsUbLEFaZwqoWYCNWYuWRs0AfZ37GenafpHwHg0rSbG3srKy8WeMbe2treJY4oYk8SakqIiKAFVVAAAGAABQB7fQAUAFABQAUAFABQB5V+1j/yax8ZP+yf+If8A03T0Aeq0AFABQAUAFABQAUAFAHy/+zJ+zJ+zbr/7Nvwo13Xf2fPhrqOpaj4H0K7vLy78J2E09zPJYQtJLJI0RZ3ZiWLEkkkk0Ael/wDDJ37LH/RtPwq/8I3Tv/jNAB/wyd+yx/0bT8Kv/CN07/4zQAf8Mnfssf8ARtPwq/8ACN07/wCM0AH/AAyd+yx/0bT8Kv8AwjdO/wDjNAB/wyd+yx/0bT8Kv/CN07/4zQAf8Mnfssf9G0/Cr/wjdO/+M0AH/DJ37LH/AEbT8Kv/AAjdO/8AjNAB/wAMnfssf9G0/Cr/AMI3Tv8A4zQAf8Mnfssf9G0/Cr/wjdO/+M0AH/DJ37LH/RtPwq/8I3Tv/jNAGT+zl4T8K+BvFHxs8LeCvDOleH9FsviBbfZtO0uyjtLWDf4Y0N32RRhUXc7sxwOWYk8k0Ae10AFABQAUAFABQAUAeVeHP+Tp/iH/ANk/8G/+nHxHQB6rQAUAFABQB+K3/Bav/k6fwt/2T+x/9OOo0Afqp+1j/wAmsfGT/sn/AIh/9N09AHCUAFABQB88ftpf8iv4B/7HIf8Apo1KgD52oAKACgAoAKACgAoAKACgAoAKACgAoAKACgAoAKACgD2f9jj/AJKD8Rf+wN4d/wDR+q0AfVNABQAUAdT+yJ/yRdv+xy8af+pNqdAHs9ABQAUAFABQAUAFAHlX7WP/ACax8ZP+yf8AiH/03T0Aeq0AFABQAUAFABQAUAFAHlX7J3/JrHwb/wCyf+Hv/TdBQB6rQB8dpYeOv2uvj38UNAf4x+PPAPgD4VX1v4b0+DwVq/8AZt1qWqND5l3PcTqrMwjLIqxfd6EjO4EAw9D/AGpPiD8EPgR+0FpfxI15fF3i/wCA2ojTdP1i8RUOqW98qf2VLchMAybpQsgHJC4yWJYgGf8AEr4cfH79nX4IRftRW37SXxE8S+N/DkFnrnivw9reqJJoGpW7vH9stILPZttNis2x05+U8ZYFQD6uvPj78KtM8TeA/BeqeJWtNd+JdrJeeGrF7Kd2vI44llfMiI0cRVGB+d1z0GaAPn1LDx1+118e/ihoD/GPx54B8AfCq+t/DenweCtX/s261LVGh8y7nuJ1VmYRlkVYvu9CRncCAY3h79qXx58D/gZ+0BpvxP13/hL/ABZ8BdSXTrHV7pFRtWt75U/sqS5CADzN0qrJjkhepOWIBRi+GXxNVLAeGf2/Lq6/aPRba/vvCms+LLc6C8xKPcWb6NEhkjhVd6h0j39+N3ygH3NbG5NtEbxYluCi+aIiSgfHzbSQCRnOMgUAS0AeVfBv/kovx2/7KBZ/+oroNAHqtABQAUAFABQAUAFAHlXhz/k6f4h/9k/8G/8Apx8R0Aeq0AFABQAUAfit/wAFq/8Ak6fwt/2T+x/9OOo0Afqp+1j/AMmsfGT/ALJ/4h/9N09AHCUAFABQB88ftpf8iv4B/wCxyH/po1KgD52oAKACgAoAKACgAoAKACgAoAKACgAoAKACgAoAKACgD2f9jj/koPxF/wCwN4d/9H6rQB9U0AFABQB1P7In/JF2/wCxy8af+pNqdAHs9ABQAUAFABQAUAFAHlX7WP8Ayax8ZP8Asn/iH/03T0Aeq0AFABQAUAFABQAUAFAHlX7J3/JrHwb/AOyf+Hv/AE3QUAeq0AfKP7JV7beFf2hP2lfhbrFxHBrc/jZfF1rbyfI9zp99bRlJY1P30UptZlyAxAOMigD5m+KXg+6+Lfwv/by+IngcvqOk63rWg21ldQDzIrkaAYpr1oiPvqBv+YEg4yOnIB9M/to/Fbwf4q/YN8R+K9G1e2vYfiBotpY6DHayCV7+7vJI1jghUcu4JbKgZAR8gbTgA+iPhj4dn8IfDbwn4Tus+douh2GnSZIJ3Q26RnkdeVoA+d/2Sr228K/tCftK/C3WLiODW5/Gy+LrW3k+R7nT762jKSxqfvopTazLkBiAcZFAHy58YfCF58V/hb+3Z8TPAry6jpOq+IfD9vZ3Fu+YLtdCMb3zIQMSIivI2QSpKKQeM0Aep/tD/Cr9lTRv2Aj8RfBWkeHbK8ttHstV8K+KrJYxq9zrRZHicXi4mluJJgwkBYtneSAU4APt/wCH1z4hvfAXhq88XRiPXZ9Is5dUQLtC3bQoZhjt85bigDfoA8q+Df8AyUX47f8AZQLP/wBRXQaAPVaACgAoAKACgAoAKAPKvDn/ACdP8Q/+yf8Ag3/04+I6APVaACgAoAKAPxW/4LV/8nT+Fv8Asn9j/wCnHUaAP1T/AGsjj9lj4yE5/wCRA8Q9v+odPQB+dnxb/wCChMkXj62+EPwk8I6ja6vd6lDpc+r69pF0XtXkdU3Raai/aZWAbIVgHJGPKbIoA+krb44+C4LeKCTS/iPO0aKjSyfDnX98hAxubbYgZPU4AHoBQBJ/wvbwT/0A/iH/AOG58Q//ACFQB4j+1R8SvDvjHSPAumaRp3iq3mi8Weezar4T1XTIio0rUVwJbu3jjZssPkDFiMkDCkgA8goAKACgAoAKACgAoAKACgAoAKACgAoAKACgAoAKACgD0X9mbx3ongn4g+O/7ZsfEVx9t0bQfL/sjw5qGq7dk+p58z7HBL5f3hjft3YbGdpwAfRH/C9vBP8A0A/iH/4bnxD/APIVAB/wvbwT/wBAP4h/+G58Q/8AyFQB8zxf8FApfh18YdY+FfxJ8NatrOkx3yrperW2j3On6msEwR4UubC5SN3cCQKXVY923cqPuGQD76/Yw1GDVvgNBqlrHcpDd+LPGE8a3NvJbyqr+JNSYB45FV0bBGVYBlOQQCCKAPcaACgAoAKACgAoAKAPKv2sf+TWPjJ/2T/xD/6bp6APVaACgAoAKACgAoAKACgDyr9k7/k1j4N/9k/8Pf8ApugoA9VoA8r+MX7LnwF+PmoWGr/Ff4eW2s6jpkTQW19FeXNlcrE2cxGa2kjd4+W+RiV+Y8cmgDtPBXw/8E/DjwlZ+BPAvhfTtE8P2EbRQafaQhIVViS2R/EWJJYnJYkkkk0AeXeFP2JP2V/BPjeL4ieGfg3pNnrdtcm8tXM9xLbWk5IPmwWskjW8DAgEGONSCOMUAd54p+DXw28afEHwn8U/E3hz7Z4o8D/af7Bv/tlxH9j+0Jsm/do4jk3KMfvFbHbFAGB8Yv2XPgL8fNQsNX+K/wAPLbWdR0yJoLa+ivLmyuVibOYjNbSRu8fLfIxK/MeOTQB2ngr4f+Cfhx4Ss/AngXwvp2ieH7CNooNPtIQkKqxJbI/iLEksTksSSSSaAPK/D/7Dv7KPhXxtD8QtB+C+j2usW139vtv39w9nbXOQRLDZtIbaJwQCGSMEEAjFAHulABQB5V8G/wDkovx2/wCygWf/AKiug0Aeq0AFABQAUAFABQAUAeVeHP8Ak6f4h/8AZP8Awb/6cfEdAHqtABQAUAFAH4rf8Fq/+Tp/C3/ZP7H/ANOOo0Afqp+1j/yax8ZP+yf+If8A03T0AeE/E/4IfDH4wWsMfjrwvBdXlmQ1lqcJMF/ZODuVobhMSJhgGxnaSBkGgDt7aKSG3ihluHuHjRVaVwoaQgcsQoABPXgAegFAElAHzx+2l/yK/gH/ALHIf+mjUqAPnagAoAKACgDy/wAc+Lde0DxreWunyXMdo+i2bz3ZHmW+mI11MklyYifnfG0AAHhct8qEEAf4s8Yaj4GspbHw9qUF7FpWmLeMLy3vNSuZyWY5knRtsKkA4dyQTnAVVBIBga1f+JpfGNzNP4hkSyGv21qbeGS7ixA2nGcIAlyqjG3khQWf5idv7ugDZs/ij4om0a81uTRd0EmiXWq2zDSbyGKzkjjMkcU00mEnDKR88ZUEqcDDA0AP1Xxx4/0pNUZ28Pyf2bokOvHFpON8blwYP9bww8tv3nTp8nPABZ174jatp+uCLT5bCeyTUbKykgGnXUkiiYoGL3SnyInHmAhDuOMZIJ2gAmbxf4kGp3Gnaq9tp6yPewxW0mnXUUm1EkaJ4rvcYZnZVVigCkAt3TBAOZ0Tx3r974Bsr2SVWWxOkWcq3Mtwt5PNK8JadnSRT5ZVyF+9vIbJwChAN/TvH/if7ZZXuqx6WdLvdW1HTBFbwSC4QW4mKSb2kKknySCu0dc55wACz4I8eeIPEeoWYv8ASJPsOqWjXcUkWlXcC2RyGSKSaUeXPuRuHj2jcpwCGBoA7+gAoAKACgD2f9jj/koPxF/7A3h3/wBH6rQB9U0AFAHAeC/gX8NfA/iXU/HOnaBHeeKtZuZbu+12/Pn3sjyElgjtxCmDtEcQRQABjigD2j9kT/ki7f8AY5eNP/Um1OgD2egAoAKACgAoAKACgDyr9rH/AJNY+Mn/AGT/AMQ/+m6egD1WgAoAKACgAoAKACgAoA8q/ZO/5NY+Df8A2T/w9/6boKAPVaACgAoAKACgAoAKACgAoAKAPKvg3/yUX47f9lAs/wD1FdBoA9VoAKACgAoAKACgAoA8q8Of8nT/ABD/AOyf+Df/AE4+I6APVaACgAoAKAPxW/4LV/8AJ0/hb/sn9j/6cdRoA/VT9rH/AJNY+Mn/AGT/AMQ/+m6egDhKACgAoA+eP20v+RX8A/8AY5D/ANNGpUAfO1ABQAUAFAFF9E0uXUZ9Vls0kubq1WymZyWV4FZmCFSduMu/bJzzQBhy/C/wTNaCxl0u4a2+zLZtD/aFzskhQsURx5mHCF22bs7OAuABgA0V8H+HVu1vxp5Nwt1FehzPIT58cHkI/Lc4j+XHQ9Tk80AVI/h34PiF0q6SxS7tprNka5mZI4Jc+ZHCpbEKnPSMKOmOgoAuXnhHw9fi6W70/wAwXunrpc/71xvtVLER8Nxy7cjnnr0oAqXfw98JX1295c6bMzvPHdFFvJ1i8+MKElEauEEgCKN4G4gYJ5NAElv4G8MWt39rhsZgQ0zpEbyZoImlDCRo4S/lxkh3GVUH5m9TQBG3w98IPDawHSD5dnbQWkKi4lGIoZBJEpw3zbXXILZPLDOGIIBcg8J+H7f7J5Nht+w3k2oQfvXOy4l3+Y/J5z5j8HIGeAMDABFpPgvw1ol+dT03TmjnCPHHunkkSBGbcyQozFYlJ/hQKOAMYFAG5QAUAFABQB7P+xx/yUH4i/8AYG8O/wDo/VaAPqmgAoAKAOp/ZE/5Iu3/AGOXjT/1JtToA9noAKACgAoAKACgAoA8q/ax/wCTWPjJ/wBk/wDEP/punoA9VoAKACgAoAKACgAoAKAPKv8Ahk79lj/o2n4Vf+Ebp3/xmgA/4ZO/ZY/6Np+FX/hG6d/8ZoAP+GTv2WP+jafhV/4Runf/ABmgA/4ZO/ZY/wCjafhV/wCEbp3/AMZoAP8Ahk79lj/o2n4Vf+Ebp3/xmgA/4ZO/ZY/6Np+FX/hG6d/8ZoAP+GTv2WP+jafhV/4Runf/ABmgA/4ZO/ZY/wCjafhV/wCEbp3/AMZoAP8Ahk79lj/o2n4Vf+Ebp3/xmgA/4ZO/ZY/6Np+FX/hG6d/8ZoAP+GTv2WP+jafhV/4Runf/ABmgDtfBXw98A/DXSpdC+HPgfw/4V02e4a7ls9E0yGxgknZVVpWjhVVLlURSxGcIo7CgDoKACgAoAKACgAoAKAPKvDn/ACdP8Q/+yf8Ag3/04+I6APVaACgAoAKAPxW/4LV/8nT+Fv8Asn9j/wCnHUaAP1U/ax/5NY+Mn/ZP/EP/AKbp6AOEoAQEEAg5B6GgBaAPnj9tL/kV/AP/AGOQ/wDTRqVAHztQAUAFABQAUAFABQAUAFABQAUAFABQAUAFABQAUAFAHs/7HH/JQfiL/wBgbw7/AOj9VoA+qaACgBAQQCDkHoaAOq/ZE/5Iu3/Y5eNP/Um1OgD2egAoAKACgAoAKACgDn/iF4K0r4leAPEvw5124u4NN8VaPe6JeS2jqs8cFzC8MjRsysocK5IJVhnGQelAHFf8Kb+Iv/R2PxV/8FvhX/5TUAH/AApv4i/9HY/FX/wW+Ff/AJTUAH/Cm/iL/wBHY/FX/wAFvhX/AOU1AB/wpv4i/wDR2PxV/wDBb4V/+U1AB/wpv4i/9HY/FX/wW+Ff/lNQAf8ACm/iL/0dj8Vf/Bb4V/8AlNQAf8Kb+Iv/AEdj8Vf/AAW+Ff8A5TUAH/Cm/iL/ANHY/FX/AMFvhX/5TUAH/Cm/iL/0dj8Vf/Bb4V/+U1AB/wAKb+Iv/R2PxV/8FvhX/wCU1AB/wpv4i/8AR2PxV/8ABb4V/wDlNQAf8Kb+Iv8A0dj8Vf8AwW+Ff/lNQAf8Kb+Iv/R2PxV/8FvhX/5TUAH/AApv4i/9HY/FX/wW+Ff/AJTUAH/Cm/iL/wBHY/FX/wAFvhX/AOU1AB/wpv4i/wDR2PxV/wDBb4V/+U1AB/wpv4i/9HY/FX/wW+Ff/lNQAf8ACm/iL/0dj8Vf/Bb4V/8AlNQAf8Kb+Iv/AEdj8Vf/AAW+Ff8A5TUAH/Cm/iL/ANHY/FX/AMFvhX/5TUAH/Cm/iL/0dj8Vf/Bb4V/+U1AB/wAKb+Iv/R2PxV/8FvhX/wCU1AB/wpv4i/8AR2PxV/8ABb4V/wDlNQAf8Kb+Iv8A0dj8Vf8AwW+Ff/lNQAf8Kb+Iv/R2PxV/8FvhX/5TUAH/AApv4i/9HY/FX/wW+Ff/AJTUAH/Cm/iL/wBHY/FX/wAFvhX/AOU1AGr8PPhJL4G8Va9411f4leK/GeteINP07S5rnXY9Nj8i1spLuSGOJLG0tk+/f3BYsGY5UZAGKAPQKACgAoAKAPxW/wCC1f8AydP4W/7J/Y/+nHUaAP1T/ayz/wAMsfGTAB/4oDxD/wCm6egD8tv2ofid+17aePdL8PfETRIvB3w1vNVt7a4utD1KaKxubV5VVhc6pHE00IKllP7pPlyfJbHIB9kW+qfHy0gjtbX4VfDiGGFBHHHH45vVVFAwFAGkYAA4AFAEn9uftB/9Ew+Hn/hd33/yooA8R/ao1H4pXmkeBYvG/g7wrpNiPFm6ObSvEtzqErS/2VqOFMcthbgLtLHdvJBAG05JAB5BQAUAFABQAUAFABQAUAFABQAUAFABQAUAFABQAUAFAHov7M198QrL4g+O/wDhA/C/h3WN+jaD9q/tfXp9N8rE+p7PL8qzuPMzl852YwuN2TtAPoj+3P2g/wDomHw8/wDC7vv/AJUUAH9uftB/9Ew+Hn/hd33/AMqKAPjLwv8AEj9rTRv2k/F/g/4I+HLXXvDlrq7LqWjHUZdQ0LS7hgrXMUV9NFbtb7ZDLiJVUKcqEk2gkA+8P2Wte/aOh+EZTQfhV8N7y0/4SzxaxlvPH99ay+cfEOoGZfLTRpRtWUuqtvy6qrFULFFAPW/+Ej/an/6I38Kv/Dl6j/8AKKgA/wCEj/an/wCiN/Cr/wAOXqP/AMoqAD/hI/2p/wDojfwq/wDDl6j/APKKgA/4SP8Aan/6I38Kv/Dl6j/8oqAD/hI/2p/+iN/Cr/w5eo//ACioAP8AhI/2p/8Aojfwq/8ADl6j/wDKKgA/4SP9qf8A6I38Kv8Aw5eo/wDyioAP+Ej/AGp/+iN/Cr/w5eo//KKgA/4SP9qf/ojfwq/8OXqP/wAoqAD/AISP9qf/AKI38Kv/AA5eo/8AyioAP+Ej/an/AOiN/Cr/AMOXqP8A8oqAD/hI/wBqf/ojfwq/8OXqP/yioAP+Ej/an/6I38Kv/Dl6j/8AKKgA/wCEj/an/wCiN/Cr/wAOXqP/AMoqAD/hI/2p/wDojfwq/wDDl6j/APKKgA/4SP8Aan/6I38Kv/Dl6j/8oqAD/hI/2p/+iN/Cr/w5eo//ACioAP8AhI/2p/8Aojfwq/8ADl6j/wDKKgA/4SP9qf8A6I38Kv8Aw5eo/wDyioAP+Ej/AGp/+iN/Cr/w5eo//KKgA/4SP9qf/ojfwq/8OXqP/wAoqAD/AISP9qf/AKI38Kv/AA5eo/8AyioAP+Ej/an/AOiN/Cr/AMOXqP8A8oqAD/hI/wBqf/ojfwq/8OXqP/yioAP+Ej/an/6I38Kv/Dl6j/8AKKgA/wCEj/an/wCiN/Cr/wAOXqP/AMoqAD/hI/2p/wDojfwq/wDDl6j/APKKgA/4SP8Aan/6I38Kv/Dl6j/8oqAD/hI/2p/+iN/Cr/w5eo//ACioAP8AhI/2p/8Aojfwq/8ADl6j/wDKKgA/4SP9qf8A6I38Kv8Aw5eo/wDyioAP+Ej/AGp/+iN/Cr/w5eo//KKgA/4SP9qf/ojfwq/8OXqP/wAoqAD/AISP9qf/AKI38Kv/AA5eo/8AyioAP+Ej/an/AOiN/Cr/AMOXqP8A8oqAD/hI/wBqf/ojfwq/8OXqP/yioAP+Ej/an/6I38Kv/Dl6j/8AKKgA/wCEj/an/wCiN/Cr/wAOXqP/AMoqAD/hI/2p/wDojfwq/wDDl6j/APKKgA/4SP8Aan/6I38Kv/Dl6j/8oqAPir9tb9gH9qf9sH4p6V8TM/Crwl/Znh+DQvsX/CU6jf8AmeXc3E3m+Z/ZcWM/adu3acbM55wAD7V/ax/5NY+Mn/ZP/EP/AKbp6APP7q1tr22ls723iuLedDHLFKgdHUjBVlPBBHY0ALbW9vZ28VpaQpDBAixxxooVUQDAUAdAAMYoAkoA+eP20v8AkV/AP/Y5D/00alQB87UAFABQAUAFABQAUAFABQAUAFABQAUAFABQAUAFABQB7P8Ascf8lB+Iv/YG8O/+j9VoA+qaACgCtp+m6dpFolhpVjb2dtHkpDBGI0Uk5OFHHJJJ9zQB2X7In/JF2/7HLxp/6k2p0Aez0AFABQAUAFABQAUAFABQAUAFABQAUAFABQAUAFABQAUAFABQAUAFABQAUAFABQAUAFABQAUAFABQAUAFABQAUAFABQAUAFAHlX7WP/JrHxk/7J/4h/8ATdPQBwlABQAUAfPH7aX/ACK/gH/sch/6aNSoA+dqACgAoAKACgAoAKACgAoAKACgAoAKACgAoAKACgAoA9n/AGOP+Sg/EX/sDeHf/R+q0AfVNABQAUAdT+yJ/wAkXb/scvGn/qTanQB7PQAUAFABQAUAFABQAUAFABQAUAFABQAUAFABQAUAFABQAUAFABQAUAFABQAUAFABQAUAFABQAUAFABQAUAFABQAUAFABQAUAeVftY/8AJrHxk/7J/wCIf/TdPQB5V4u8aeEvAOiTeI/GviTTtE0yDh7m+uFiTd2UFj8zHHCjJPYGgDWtp0ureK5jSRVmRZFWSNkcAjOGVgCp9QQCO9AElAHzx+2l/wAiv4B/7HIf+mjUqAPnagAoAKACgAoAKACgAoAKACgAoAKACgAoAKACgAoAKAPZ/wBjj/koPxF/7A3h3/0fqtAH1TQAUAYPhXx34Q8bLe/8It4gs9Ql0y5ksr+COT9/Z3CMVeKeI4eJwVI2sAeKAPR/2RP+SLt/2OXjT/1JtToA9noAKACgAoAKACgAoAKACgAoAKACgAoAKACgAoAKACgAoAKACgAoAKACgAoAKACgAoAKACgAoAKACgAoAKACgAoAKACgAoAKAPKf2shn9lj4yYJH/FAeIf8A03T0AfmX8fP2N/jxL8T9K+L+l/ETWviVp+lalBfPp909tHqtpAkqu6WscqGyk4UkJ5aqWwPKfJyAfWdt8N/Gd1bxXUX7RfxGCTIsi79O0BGwRkZVtLBU+xAI70ASf8Kw8bf9HF/EP/wB8Pf/ACroA8R/ao8HeIvD2keBb3V/iv4q8Twv4s8pbTVbbSo4kY6VqJ8wG0s4JNwAIwXK4Y5UnBAB5BQAUAFABQAUAFABQAUAFABQAUAFABQAUAFABQAUAFAHov7M3hfW/EnxB8d/2N8RvEXhX7Po2g+Z/ZEGnyfad0+p48z7Zaz427TjZt++2d3GAD6I/wCFYeNv+ji/iH/4A+Hv/lXQAf8ACsPG3/RxfxD/APAHw9/8q6APkaw/ZC+Ovj79onXvi7YfETXvBGjm+CW2t3Yt4tZ1SOJUjaUW1nHBEiSmIn94iMVZS6SEsSAfo3+xhaT2HwGgsrrUrnUZrfxZ4wiku7lY1luGXxJqQMjiNVQMxBY7VVck4AGAAD3GgAoAKACgAoAKACgAoAKACgAoAKACgAoAKACgAoAKACgAoAKACgAoAKACgAoAKACgAoAKACgAoAKACgAoAKACgAoAKACgAoA8q/ax/wCTWPjJ/wBk/wDEP/punoA4SgAoAKAPnj9tL/kV/AP/AGOQ/wDTRqVAHztQAUAFABQAUAFABQAUAFABQAUAFABQAUAFABQAUAFAHs/7HH/JQfiL/wBgbw7/AOj9VoA+qaACgAoA6n9kT/ki7f8AY5eNP/Um1OgD2egAoAKACgAoAKACgAoAKACgAoAKACgAoAKACgAoAKACgAoAKACgAoAKACgAoAKACgAoAKACgAoAKACgAoAKACgAoAKACgAoA8q/ax/5NY+Mn/ZP/EP/AKbp6AOEoAKACgDwD9sfSta1Lwj4Mn0Xw9rOr/YPFi3NzFpWmT30sUR0zUI/MMcCO+3fJGu7GAXGetAHzf8AYvFH/RNfiH/4ROr/APyNQAfYvFH/AETX4h/+ETq//wAjUAH2LxR/0TX4h/8AhE6v/wDI1AB9i8Uf9E1+If8A4ROr/wDyNQAfYvFH/RNfiH/4ROr/APyNQAfYvFH/AETX4h/+ETq//wAjUAH2LxR/0TX4h/8AhE6v/wDI1AB9i8Uf9E1+If8A4ROr/wDyNQAfYvFH/RNfiH/4ROr/APyNQAfYvFH/AETX4h/+ETq//wAjUAH2LxR/0TX4h/8AhE6v/wDI1AB9i8Uf9E1+If8A4ROr/wDyNQAfYvFH/RNfiH/4ROr/APyNQAfYvFH/AETX4h/+ETq//wAjUAH2LxR/0TX4h/8AhE6v/wDI1AB9i8Uf9E1+If8A4ROr/wDyNQAfYvFH/RNfiH/4ROr/APyNQAfYvFH/AETX4h/+ETq//wAjUAe3fse6Tr9r4x8f6rqvhXxFpFrdaZoVvbyavo11p/nSRy6k0gjFxGhfaJY8lQQN6+tAH1DQAUAFAHU/sif8kXb/ALHLxp/6k2p0Aez0AFABQAUAFABQAUAFABQAUAFABQAUAFABQAUAFABQAUAFABQAUAFABQAUAFABQAUAFABQAUAFABQAUAFABQAUAFABQAUAFAHlX7WP/JrHxk/7J/4h/wDTdPQBwlABQAUAFABQAUAFABQAUAFABQAUAFABQAUAFABQAUAFABQAUAFABQAUAFABQB1P7In/ACRdv+xy8af+pNqdAHs9ABQAUAFABQAUAFABQAUAFABQAUAFABQAUAFABQAUAFABQAUAFABQAUAFABQAUAFABQAUAFABQAUAFABQAUAFABQAUAFABQB5V+1j/wAmsfGT/sn/AIh/9N09AHCUAFABQAUAFABQAUAFABQAUAFABQAUAFABQAUAFABQAUAFABQAUAFABQAUAFAHU/sif8kXb/scvGn/AKk2p0Aez0AFABQAUAFABQAUAFABQAUAFABQAUAFABQAUAFABQAUAFABQAUAFABQAUAFABQAUAFABQAUAFABQAUAFABQAUAFABQAUAFAHlX7WP8Ayax8ZP8Asn/iH/03T0AcJQAUAFABQAUAFABQAUAFABQAUAFABQAUAFABQAUAFABQAUAFABQAUAFABQAUAdT+yJ/yRdv+xy8af+pNqdAHs9ABQAUAFABQAUAFABQAUAFABQAUAFABQAUAFABQAUAFABQAUAFABQAUAFABQAUAFABQAUAFABQAUAFABQAUAFABQAUAFABQB5V+1j/yax8ZP+yf+If/AE3T0Aflx/w9s/6t/wD/AC6//uOgA/4e2f8AVv8A/wCXX/8AcdAB/wAPbP8Aq3//AMuv/wC46AD/AIe2f9W//wDl1/8A3HQAf8PbP+rf/wDy6/8A7joAP+Htn/Vv/wD5df8A9x0AH/D2z/q3/wD8uv8A+46AD/h7Z/1b/wD+XX/9x0AH/D2z/q3/AP8ALr/+46AD/h7Z/wBW/wD/AJdf/wBx0AH/AA9s/wCrf/8Ay6//ALjoAP8Ah7Z/1b//AOXX/wDcdAB/w9s/6t//APLr/wDuOgA/4e2f9W//APl1/wD3HQAf8PbP+rf/APy6/wD7joAP+Htn/Vv/AP5df/3HQAf8PbP+rf8A/wAuv/7joAP+Htn/AFb/AP8Al1//AHHQAf8AD2z/AKt//wDLr/8AuOgA/wCHtn/Vv/8A5df/ANx0AH/D2z/q3/8A8uv/AO46AD/h7Z/1b/8A+XX/APcdAB/w9s/6t/8A/Lr/APuOgA/4e2f9W/8A/l1//cdAB/w9s/6t/wD/AC6//uOgA/4e2f8AVv8A/wCXX/8AcdAH6J/8E/vF3/Cf/sq+GvHn9n/YP+Ek1nxPq/2XzfN+z/aNf1CXy9+1d+3fjdtGcZwOlAH0TQAUAFABQAUAFABQAUAFABQAUAFABQAUAFABQAUAFABQAUAFABQAUAFABQAUAFABQAUAFABQAUAFABQAUAFABQAUAFABQAUAf//Z;rotation=0;movable=1;resizable=1;rotatable=1;deletable=1;editable=1;locked=0;connectable=1;" parent="1" vertex="1">
          <mxGeometry x="147.06" y="90" width="277.68" height="197.11" as="geometry" />
        </mxCell>
        <mxCell id="WBhchhXUHo2wvyw4GKbI-4" value="" style="shape=flexArrow;endArrow=classic;html=1;rounded=0;fillColor=#d5e8d4;strokeColor=#82b366;strokeWidth=3;" parent="1" source="WBhchhXUHo2wvyw4GKbI-5" target="WBhchhXUHo2wvyw4GKbI-6" edge="1">
          <mxGeometry width="50" height="50" relative="1" as="geometry">
            <mxPoint x="440" y="200" as="sourcePoint" />
            <mxPoint x="500" y="200" as="targetPoint" />
          </mxGeometry>
        </mxCell>
        <mxCell id="WBhchhXUHo2wvyw4GKbI-7" value="" style="ellipse;whiteSpace=wrap;html=1;fillColor=none;strokeColor=#82b366;strokeWidth=5;" parent="1" vertex="1">
          <mxGeometry x="260" y="130" width="150" height="140" as="geometry" />
        </mxCell>
        <mxCell id="WBhchhXUHo2wvyw4GKbI-8" value="ESP32 µC" style="rounded=0;whiteSpace=wrap;html=1;" parent="1" vertex="1">
          <mxGeometry x="520" y="210" width="60" height="40" as="geometry" />
        </mxCell>
        <mxCell id="WBhchhXUHo2wvyw4GKbI-9" value="Display" style="rounded=0;whiteSpace=wrap;html=1;" parent="1" vertex="1">
          <mxGeometry x="620" y="200" width="120" height="60" as="geometry" />
        </mxCell>
        <mxCell id="WBhchhXUHo2wvyw4GKbI-10" value="" style="endArrow=classic;html=1;rounded=0;entryX=0;entryY=0.25;entryDx=0;entryDy=0;" parent="1" target="WBhchhXUHo2wvyw4GKbI-9" edge="1">
          <mxGeometry width="50" height="50" relative="1" as="geometry">
            <mxPoint x="580" y="220" as="sourcePoint" />
            <mxPoint x="630" y="170" as="targetPoint" />
          </mxGeometry>
        </mxCell>
        <mxCell id="WBhchhXUHo2wvyw4GKbI-11" value="" style="endArrow=classic;html=1;rounded=0;entryX=1;entryY=0.5;entryDx=0;entryDy=0;" parent="1" target="WBhchhXUHo2wvyw4GKbI-8" edge="1">
          <mxGeometry width="50" height="50" relative="1" as="geometry">
            <mxPoint x="620" y="240" as="sourcePoint" />
            <mxPoint x="670" y="190" as="targetPoint" />
          </mxGeometry>
        </mxCell>
        <mxCell id="25sq_P9i6crdWEw2msae-1" value="" style="shape=flexArrow;endArrow=classic;html=1;rounded=0;fillColor=#d5e8d4;strokeColor=#82b366;strokeWidth=3;exitX=0.25;exitY=1;exitDx=0;exitDy=0;entryX=0.75;entryY=0;entryDx=0;entryDy=0;" parent="1" source="WBhchhXUHo2wvyw4GKbI-6" target="25sq_P9i6crdWEw2msae-2" edge="1">
          <mxGeometry width="50" height="50" relative="1" as="geometry">
            <mxPoint x="730" y="444.5" as="sourcePoint" />
            <mxPoint x="860" y="400" as="targetPoint" />
          </mxGeometry>
        </mxCell>
        <mxCell id="25sq_P9i6crdWEw2msae-2" value="Web enable&lt;br&gt;&amp;amp;&lt;br&gt;User Interface&lt;br&gt;&lt;br&gt;&lt;br&gt;&lt;br&gt;&lt;br&gt;&lt;br&gt;" style="rounded=1;whiteSpace=wrap;html=1;fillColor=#f5f5f5;fontColor=#333333;strokeColor=#666666;" parent="1" vertex="1">
          <mxGeometry x="350" y="360" width="210" height="140" as="geometry" />
        </mxCell>
        <mxCell id="25sq_P9i6crdWEw2msae-11" value="" style="group" parent="1" vertex="1" connectable="0">
          <mxGeometry x="390" y="430" width="67.5" height="45" as="geometry" />
        </mxCell>
        <mxCell id="25sq_P9i6crdWEw2msae-9" value="" style="rounded=0;whiteSpace=wrap;html=1;fillColor=none;movable=1;resizable=1;rotatable=1;deletable=1;editable=1;locked=0;connectable=1;" parent="25sq_P9i6crdWEw2msae-11" vertex="1">
          <mxGeometry width="67.5" height="45" as="geometry" />
        </mxCell>
        <mxCell id="25sq_P9i6crdWEw2msae-3" value="" style="rounded=0;whiteSpace=wrap;html=1;container=0;" parent="25sq_P9i6crdWEw2msae-11" vertex="1">
          <mxGeometry x="4.402173913043498" y="3.2142857142857224" width="58.69565217391304" height="38.57142857142857" as="geometry" />
        </mxCell>
        <mxCell id="25sq_P9i6crdWEw2msae-4" value="" style="rounded=0;whiteSpace=wrap;html=1;container=0;" parent="25sq_P9i6crdWEw2msae-11" vertex="1">
          <mxGeometry x="27.880434782608745" y="16.071428571428555" width="5.869565217391304" as="geometry" />
        </mxCell>
        <mxCell id="25sq_P9i6crdWEw2msae-5" value="&lt;font style=&quot;font-size: 2px;&quot;&gt;12:30 15/05&lt;/font&gt;" style="rounded=0;whiteSpace=wrap;html=1;container=0;fontSize=2;" parent="25sq_P9i6crdWEw2msae-11" vertex="1">
          <mxGeometry x="4.402173913043498" y="3.2142857142857224" width="17.608695652173914" height="6.428571428571429" as="geometry" />
        </mxCell>
        <mxCell id="25sq_P9i6crdWEw2msae-6" value="&lt;font style=&quot;font-size: 5px;&quot;&gt;Coffee ++&lt;/font&gt;" style="rounded=0;whiteSpace=wrap;html=1;container=0;fontSize=5;" parent="25sq_P9i6crdWEw2msae-11" vertex="1">
          <mxGeometry x="33.75" y="3.2099999999999795" width="29.35" height="16.79" as="geometry" />
        </mxCell>
        <mxCell id="25sq_P9i6crdWEw2msae-7" value="&lt;span style=&quot;color: rgb(0, 0, 0); font-family: Helvetica; font-size: 5px; font-style: normal; font-variant-ligatures: normal; font-variant-caps: normal; font-weight: 400; letter-spacing: normal; orphans: 2; text-align: center; text-indent: 0px; text-transform: none; widows: 2; word-spacing: 0px; -webkit-text-stroke-width: 0px; background-color: rgb(251, 251, 251); text-decoration-thickness: initial; text-decoration-style: initial; text-decoration-color: initial; float: none; display: inline !important;&quot;&gt;Coffee --&lt;/span&gt;" style="rounded=0;whiteSpace=wrap;html=1;container=0;fontSize=5;" parent="25sq_P9i6crdWEw2msae-11" vertex="1">
          <mxGeometry x="33.75" y="28.928571428571445" width="29.34782608695652" height="12.857142857142858" as="geometry" />
        </mxCell>
        <mxCell id="25sq_P9i6crdWEw2msae-12" value="" style="shape=image;verticalLabelPosition=bottom;labelBackgroundColor=default;verticalAlign=top;aspect=fixed;imageAspect=0;image=data:image/png,iVBORw0KGgoAAAANSUhEUgAAALYAAACaCAYAAAAEnrJJAAAAAXNSR0IArs4c6QAAAARnQU1BAACxjwv8YQUAAAAJcEhZcwAADsMAAA7DAcdvqGQAABbTSURBVHhe7Z0JuFVjF8ffyjwWboaEEElKRIPxKqFCZCpjRabIkPEhhcwzj1CmDJnnIcRNKskQKUMUSWZlnvm+81udXbfTPfcMe+93v3vv9Xue89yx2737/M/a613vf623zv8y/PPPP4aHosSdpZZaSh51+eC///6TTypK3PG0LMLOBG35QFHijqdlFbaSKBYTtqIkDRW2kkhU2EoiUWEriUSFrSQSFbaSSFTYSiJRYSuJRIWtJBIVtpJIxN33xx9/ZD9UiuXff/81P/30k/n111/Nzz//bH777Tfzww8/mB9//NH88ssv8vm///7b/Pnnn0uYzOrWrWuWXXZZs/TSS5sVV1zRrLTSSmbllVc2q622mllhhRXkfT7PW5xqSmkst9xyKux84DlAvAh0xowZZu7cueajjz4y48ePNx9++OHCryPafG/5Hu9RnTp16ix8IPJ69erlfcv3bLjhhmaHHXYwG220kdlggw3MpptuKsL3vq4sTuqFjfiIqr///rsI+JtvvjFz5swxb775poh53LhxZt68ednvdgui+/bbb2+aNm1qtt12W7Puuuuahg0bSvTniV1mmWXkxZFGUils0gQE/Mknn5iZM2eaL7/80rzzzjvy8ezZs0XkcYQnE3FvvPHGZosttpD3mzRpIlF+jTXWMKusskr2O5NPKoRNWvDdd9+ZadOmmaqqKhHzt99+K0L++uuv5etJhDSloqJChL366qtLZK+srDQtWrQQofP1pJJYYZNiEIlfeeUV89hjj5nXX39dIjHRmtQjjbBQJU1ZfvnlzTbbbGO6desmQl977bUTl7IkRthEXS/FID++5557zMSJE6VSoeSHCkyHDh3MQQcdJGJfc801Rfxxj+axFjZRmfLaxx9/bN544w1Z6I0dO1bKbUrprLrqqmbnnXeWBWmbNm0kdWnQoEEso3lshY2YR48eLanGBx98IBUMJThYgG622WZmxx13NLvvvrt8HCdiJWzSDRaAV155pURnNkXImzO/fvY7lCChPk4+ziYRNfQTTjjBbLXVVrHYMHJe2Cz0SC0mTJhgrr32WvPqq69mv6JEAXn4qaeearbbbjspH1IrdxFnhc02NNGZVOORRx6RqobiDuTge+21l1RVqJljD3AJ54RNhCYq33rrrWb69Omyhf3XX39lv6q4BOVDFpjUxfv06WPat2/vTAR3RthUOKZOnWrOP/9889prrzm7ja3UDNv7bdu2NYMGDTItW7aMvJISubBZ/H366afmxhtvNCNGjMh+VokzRx55pDnuuOPErMXiMwoiEzYDMCdPnmwef/xxSTswICnJAedh3759zd577y0GLduVlEiEjVdj+PDh5umnn5Z6tJJcqH9TBz/mmGPEs2ILq8LGlH/33XebG264wXz++eep9WykDaI1TkPSk8MPP9yKy9CKsMmj33vvPXP22WfLxoqSXtiuv/DCC2WBGWb+Haqwichsd48aNcpcffXV2c8qijEnn3yyGK/YtqdsGDShCZsofdttt0nqwUaLnpagVAf34Oabb24OPfRQWWQGHb1DETa9gb179zZvvfWWVjuUWsE2u/XWW5vbb7/dNGrUKPtZ/wQqbExJOO4wyyTNOoohiCeBhRC3TnbYuHgsiniwQYGXmSeHt1hA+V65wJl/m7vljGUgc9kN1527GdeLbh6CAm/ZoGKBzYPvYfeV1I7vxWPOv00SXK9rrrnGdO3aVUxXfglM2O+++6656aabzEMPPSTVj7iDKClPrbXWWtJGxcXG2cbHiJe3CJ1HWNvIiBkR8xaBf/HFF+arr76SRgqCCO1ufEz5NAmpHtWS/fbbT0qD+E/84FvYRJH77rtPRE3qEVcQcvPmzU3r1q3NJptsIu1S1GA9YSNeV7pKsO8idk/Y7AXQBkcPJ5teVKDiLHQCCLuXBx98cNlBw5ewuX2eeeaZ5uGHH5YIEjdIHzDS77nnnhIhSCGIwN4gmziBkElviPCInQX7s88+a1588cVY+m5oT+vRo4e59NJLJU0plbKFTXRA1E888UT2M26DKYdbHVu9Xbp0kd0w3Gj169eXHDiJZJ5WaZ3DLcna55lnnpHFPKkiprM4gDX24osvljESpTxPJQubqPDcc8+Ziy66SGZxuA5pBLZK8mUE3a5dO+njS6qY84HI58+fbyZNmiQCJzCxLmIMhevw/J122mlyZy22LFiSsLkw5NLXXXedRAKXoYTUsWNHMcSTN6+zzjqpnYqUC9GadIU1EQ0cL730kjRDuwwp4imnnGKOPfZYSSELUbSwyaHPOussGWtQTj5ui1122UXKjQiaSgaLj7RF52IhirMI5blF2Hh4yMldBbH26tXLXHLJJQVLggWFzR/Pq5sSzPPPP5/9rDvwB7C4IF/mhcdtSyNzefBcU1G57LLLzMsvvyzFAReDWOfOnc2wYcOkcpUvaNUqbEp59Byee+65zpXyqFoQlfkjWT3ToqQEBy15VLvGjBkj6QqR3SWoYhG56Z6vqYKVV9iUj5588klzzjnnyEKDV7MrkG4gZkp1dGlQg1aCBw189tlnEr0RuUtpCpGaSglOQRaVuRrIK+wHH3zQua1xovJ5550n04riOqEojngTt7h7Dx48WBybrkAaSjHjgAMOyH5mAUsIG1fevffea/r37y8fRw2bJYh4wIAB5ogjjpC6sxIdCBzHJkOLqJJR/nUBFr4sLL1y4GLC5helZYvFQ9SuPG411J7xDtB1QcqhuAMN2HfeeaekKHhVot7wYeONWne/fv0kEC4UNtuuV111lXSLI/CooY0IUeMbcG0Yi7IAovWUKVMkbb3jjjsin2yLoKlzM6mKWrcIm0UiXS5R/3K0Dg0ZMsRsueWWUpRX3AfNMNwIDUXd+odmTjrpJDN06NAFx+E1a9Ys0uoCZ6ews4TtlXnNcRd1JlbIAyceZVPKZdUffI6ved8XZ3iumOlH5CZa8lxGBRrGnQkSsTHGsKvIJCY2ZGyBMQn/xumnny6DDuOCZx1l2DyVIxbdvM/i6vvvv5dSGXmn56fOrTqRA7Iriiio7vCEcJwGi2PvcCSujbd7GqeSJgNEWafhS7HpzcdizJ7LIYccItdu4eKRBeMDDzwgrj0bvxALQqov5NJYRl2G68FpCSyaqO1S2+d9T9gImOuHsFmvlLqYQtzkhQibhRDCppSFsLlOHIe33nrryftERJ44l6ELiLsv1QquU9hwPXABHnjggQuv30JhA9GFM1uoRIQJT86jjz4qW+DlmsnDBGEiXjYnsBLQteKlFLxl4cRbG7Cz5nnEuVa8bdWqldltt93kLseZjy4ercG1ev/998V6SlAIE6aJESA9LS0hbA9ebccff3zgkZsIxK2CW5Urt1fSBi/aYsXF7XbzzTdnvxoPmHbaqVMnqSJ5Ud+V60uQGDhwoNS/g25IIVJff/31hTdoPHi1BZlzU5fmdsof2LNnz8hLeFxsGmdpq8KXzEFMRGV6C+MMjcVYdlmA46egvY0ezah3abnD0ULIxg7XPCO57FfKp3pOnXvXzytsCDLnxhvNApGFYpSpBxf47bfflr8LJxsXmSbZUnNi10HIeNARNlUCgglpHwvTqCB1w1BFk4pf3wmRmp/D0B3uTrnUKmwgctP+xWCTcqExk8gfZRsWt0CGYLKzyjnopB1UNtIAImfzgp3co48+WkxDhfzMYUGk5tpjXmIzsFzY9ezevXveIFlQ2B7l5NyUsjBSnXHGGdbnJHMBKcERjVkMkzPHPc0ICm7h+OtxSBLVeW5sBxyemyuuuEJmiZSyKcgLkkpLbk6dS9HCJnKT/F9wwQVF5dxcMIxLRGvbmy2U38iZud3hZbBZl48TCBxx45bE11xON7gfEDTVDIRKCbUQ/L4MNj3ssMMKrtGKFjYUm3OTy3GrIa+2uTLnd/LEPH78eKmlKoWh4RlvO0Pa6d63WSMnHaSkimBraw7PrVMXoiRhQ6Gcm61Vbvts0du8vVHR4MXEqAEEnvmTsl9RioHnits8pw9QaeCtLXiuWPdgfMt33CGz/fbdd9+iCw8lC9uDyE3+7EVuFihUPDiLkYhtA15k5M2Yt/T8mmAhhcRM1LhxY2tVLKpU/J9syXtVKl5s1KmJ1KWAsOsNzsAmRSnQzcI2OJGSbWXyNKb2sCNmA8p05Px4cF3urI4r9Lgyf4RUAQ8Lj7CpqKiQ2js7vjzIqenYQdSlprR8f1kRG8i577//fsln6RC30VDLi4gDTfH/cvFd6eBIKizSsBCzYKMSYaMOTtAiSJIO0RVTTE6dS9mpiAfpAP/WxoJj1qxZUjocO3asCFyxB4LmrkxnuI1Dkth3IAUqd4fat7BtQFmoqqpKvL6zZ8/OflaJAsq4bIvvuuuuZUVSWzgtbPI73GHsMlHrVNyBFiyMV5wh46Kz0Flh4yugrMjuFCaltGx/xwXEzEIPUxu21JqG1kSJs8LG1kpzsUtzTZQlYbeSsi/Fg6gdhNVxStjULvF24AKkCUGJD+xaEoywzbogcITtxMuMOjqFeUpKKur4wZn4PHdMiyp1TyQsnIjY1KYxWLk0PssPnlWUTQdKZRjBvEUW6wXq75S06I+kbSopfnCsFGzJs/0dJU6kIvgAyNHimk/jjGvbtq3chtdff30pibGY4uJiCWUXDKF73pnM5ZYHkY3rTjmTxTKnC1Crx+nG5hMtanGEvJvZMHi/oyJSYbNzidmcon8pnlzbEGmp2SJSovBOO+1kunXrJp0piDgsByNRnNPAKHlyPArWAaZ0ca14uHLLrwnuULhAMTZFUe+OTNjchin0c/SHi5GaCMtgcTrA2WmjG5xGWaKy7aYJD8z5eMtpr8IFxwxrHhjBXExliNw0NHBuum2vdyTCJtoMGjRI/B5EbdfgECaiMnVaojJ+5aibj3PBysA5jwgbHzOLtqeeeir7VXcgWnNeI15qmw0nkQgb0xTisTWXoxh4AoguLHropmfBZ7NJwg+kJAQI7AYswtmldSlgsN6g35S1iC0iS0XCmltSCkQQRMzcbVr4bd8uw4LUDkvvyJEjZcRvlCLHHMdg9lL91H6JTNil9lAGCTky0QMjD7VXSnJRdc+HReYplVSFPQFO6OUuadsRiZ+aCax0W9keuRGZsIFIYnNWIHky1kvEXFlZKYvDNEDgoK8Q7zwuSRvPdak9ikETqbChUA9lUJBmUIWhWVWGgicsQheCCM5m0AsvvCBVCmZ7hAmFgX322cd6pPaIXNgeuT2UQUDJDkHzoqELOik5tF/IwfF1sDHG+0GWCqPKqXNxRthE7iBnBRIpyKGpdJB+xKXCYQsqKXQiMVGAKB5Eix05db5ZerZxRtgQVM7N7iAtZIyVZSCjkh/clMxhIYKz2CwXInVts/Rs45SwgcjtZz43R08zNovODtfM767CfgLmM45KoXpSDlHn1LkgbHfc4Rm4MFQt7rrrrpIahCnh7b///pLOtGzZUkVdAlwrdlm55lzDUiwDPEe07pFTuyJqj7LmioQN42+rzy2pDfwbNPqyTW9j/kVSYbfVa9JlBEIhDw85NS4+RO1a3yNrKieFzYXyfBr4IPItbph5Qb0UPwK3H8UfRF3meXDt8aHgLqwJIjULfXLqqExhtYGwncqxc6mtzs0TwEg1Ug8X2pGSBCVAmqhPPPFEM3ny5OxnF+FaTp2Lc4vHfOR6SxAzZ77bGN5SG5lLJy8+7ihcQ34/ypXcxrGT8j7H4+Fo5PsAMRDliHpUbWhOoMbO1j4VHXZIeWL4vqg3kjjxi1Rj6tSp8jGz9JiVyB3SZWIjbETheUsQ9S233BLZEXq0djGimPly5KJ0vHDbpiEAMSNqBF8qmLIQORUd1hhNmjQRkxYvXvLZqPJY/la6YbDH0ulExco1G28usRE2UOdmU4HDg3iibYJQ6U3ktoypCIsowkbUYc08QcgsjBE25zvusccepk2bNvKCth3J+dtpcGCzy4U6dSFiJWxAYLafVKIyk/cx8tOXSLrB72ET1hCkAYiKjaejjjpKorpNorj25RI7YduAJ5DWNQ6+J58cPXq0U00RwKqfA0wpczZv3lzy9bQZu2pDhV0NBE1E5iRemmdZsMYBqhOkKdSgo0hTXESFnYXFKbkzlRZEHbe52yzmOnfuLNUKRO5qGc4WKuwMrPqxzI4bN05SkLgOr/HycDrqGWsRVdXIBVItbERM/swmRNjGe9tQF+fsFhorEHvaSK2wOaUKQzx5dJDNDS7BgpIKSv/+/aU2niZSJ+zMn2rGjBkj3uFJkyZlP5tssB7gTyf3TsvCMlXCxujFjuXll19uvTM+asi3OWGtX79+qbD0pkbYbHMzSIaGXkaFpREqJ9S9WVMkvf8zFcImOnO8GnMCFSN9oAzXT/L4icQLm3o0t196KZVF0CkzfPhw581M5YKwE21kZqOCw3+UxWEMctI3cRItbKoAPXr0kIitc0UWlABHjhwpfaVJr5CkovWEjQqqIbbtri7B304bHQchpYFUCJsSFyOCafglaqUN/mYGRLrYTR4Wqdqgqa2HMskwIqF79+6pEXXiF4+58MSyzVzq3JK4wt9I4y05dVpE7ZGqiO1RvYcyjF1InHbs9jVs2FDERSrk7fjhHuT/Z14KLVeMGQujvYycOqr51FGTmp3HmvBmBQZ1FB/jiRkoz1QlGnERtSdshOUNxkTYdOQgbCyzCJv+yWnTpsmIMT8z9Dz4P6OcTx01qRY2BJFzt2rVSo776NixowiZ0QqlRkh+D7b6vYZhPC01zfMolrTl1LmkXtgeRO5S5nPjcSYyM8iRzpWgjUUYtjjXkSmoRPJify8itQvzqaNGhZ2FiFnMfG5mf3To0MH07NlTdjSZdxcmpCt0x/O7cbZjbQclkVO7Mp86alTY1Sg0n7tx48YyOKZXr17WDUTM0OMMGVq+5syZk/3sIojULs2njhoVdg5E7prmczMcE9FzOm9UxiF+N6bPUrrLXWC6PkvPNirsPHizArkuTHRF1K40x1LBoRbP4pInkN5GxK4sQoWdB6LjqFGjZOE2cOBA5zq+mX+C94VeRkYuaKReHBV2LVB+Y+OEnNU1J1zmKZM1AfP9XJxPHTUqbCWRIOxUeUWU9KDCVhKJCltJJCpsC1Bl4bQDHryvhI8KOwTojp85c6YZMWKEadeunfRbNm3aVB68z8kEjIOYMWOG1MqV4NGqSMDMmjVLvB08ONKjNvB34O1gp9P2CQVJRst9ATNx4kTxbODMK4XKykppCsBgpfhHhR0g+DiwvnK6Vqkztum4wQbLGDbSFMUfWscOiHnz5ol3esqUKWUNjuff8IJgm5yfpfhHhR0AdOHw8EtQP0fRxaNvOA2hffv2coptEHCmI00F9evXz35GKRVNRQKABWNQogZ+FufhKP5QYfuE6Bo0EyZMyL6nlIsK2wfYWhmZEDS8WMI6yjotqLB9QDWDuSBBw7yRcqoryiJU2EoiUWH7gHkinTp1yn4UHPzMoGeVpA0Vtk84CTdowviZaUOF7RN8HoxnCIoGDRrIz1T8ocL2CQ69Pn36ZD/yT+/eveVnKv7QnccAmDt3rgylLGRTLUSjRo1MVVWVTJ1Sykd3HgOCCMusbT+RltklQ4cOTfT5izZRYQcA8z26dOlS9hk3/BsGSnbt2nXhHG3FH5qKBAj9jFhXBwwYIDbUYmjRooX4sFu3bq0TnQJCGw1CgilSw4YNk2GR8+fPl75GZl4DEZnBlqQeLBT79u2r05wCRoUdMgyQpGF3+vTpMm8PKioqTLNmzWTunh6qGg4qbCWRaFVESSwqbCWRqLCVBGLM/wEYX6xZKtlSJwAAAABJRU5ErkJggg==;imageBackground=#757575;" parent="1" vertex="1">
          <mxGeometry x="500" y="380" width="53.18" height="45" as="geometry" />
        </mxCell>
        <mxCell id="mgaj95d3pfN79_Ucvsv1-1" value="" style="endArrow=classic;html=1;rounded=0;exitX=0.5;exitY=1;exitDx=0;exitDy=0;entryX=1;entryY=0.25;entryDx=0;entryDy=0;" parent="1" target="25sq_P9i6crdWEw2msae-9" edge="1">
          <mxGeometry width="50" height="50" relative="1" as="geometry">
            <mxPoint x="510" y="425" as="sourcePoint" />
            <mxPoint x="510" y="475" as="targetPoint" />
          </mxGeometry>
        </mxCell>
      </root>
    </mxGraphModel>
  </diagram>
  <diagram id="4M3xbwKDu3DcTjBPFw1X" name="Emmi">
    <mxGraphModel dx="1434" dy="788" grid="1" gridSize="10" guides="1" tooltips="1" connect="1" arrows="1" fold="1" page="1" pageScale="1" pageWidth="827" pageHeight="1169" math="0" shadow="0">
      <root>
        <mxCell id="0" />
        <mxCell id="1" parent="0" />
        <mxCell id="7qVZBseC_2J2Ga4vGXwc-1" value="" style="rounded=1;whiteSpace=wrap;html=1;movable=1;resizable=1;rotatable=1;deletable=1;editable=1;locked=0;connectable=1;" parent="1" vertex="1">
          <mxGeometry x="110" y="80" width="320" height="240" as="geometry" />
        </mxCell>
        <mxCell id="7qVZBseC_2J2Ga4vGXwc-2" value="" style="shape=image;verticalLabelPosition=bottom;labelBackgroundColor=default;verticalAlign=top;aspect=fixed;imageAspect=0;image=data:image/jpeg,/9j/4AAQSkZJRgABAQAAAQABAAD/2wBDAAMCAgICAgMCAgIDAwMDBAYEBAQEBAgGBgUGCQgKCgkICQkKDA8MCgsOCwkJDRENDg8QEBEQCgwSExIQEw8QEBD/2wBDAQMDAwQDBAgEBAgQCwkLEBAQEBAQEBAQEBAQEBAQEBAQEBAQEBAQEBAQEBAQEBAQEBAQEBAQEBAQEBAQEBAQEBD/wAARCAGFAiQDAREAAhEBAxEB/8QAHwAAAQUBAQEBAQEAAAAAAAAAAAECAwQFBgcICQoL/8QAtRAAAgEDAwIEAwUFBAQAAAF9AQIDAAQRBRIhMUEGE1FhByJxFDKBkaEII0KxwRVS0fAkM2JyggkKFhcYGRolJicoKSo0NTY3ODk6Q0RFRkdISUpTVFVWV1hZWmNkZWZnaGlqc3R1dnd4eXqDhIWGh4iJipKTlJWWl5iZmqKjpKWmp6ipqrKztLW2t7i5usLDxMXGx8jJytLT1NXW19jZ2uHi4+Tl5ufo6erx8vP09fb3+Pn6/8QAHwEAAwEBAQEBAQEBAQAAAAAAAAECAwQFBgcICQoL/8QAtREAAgECBAQDBAcFBAQAAQJ3AAECAxEEBSExBhJBUQdhcRMiMoEIFEKRobHBCSMzUvAVYnLRChYkNOEl8RcYGRomJygpKjU2Nzg5OkNERUZHSElKU1RVVldYWVpjZGVmZ2hpanN0dXZ3eHl6goOEhYaHiImKkpOUlZaXmJmaoqOkpaanqKmqsrO0tba3uLm6wsPExcbHyMnK0tPU1dbX2Nna4uPk5ebn6Onq8vP09fb3+Pn6/9oADAMBAAIRAxEAPwD9U6ACgAoAKACgAoAKACgAoAKACgAoAKACgAoAKACgAoAKACgAoAKACgAoAKACgAoAKACgAoAKACgAoAKACgAoAKACgAoAKACgAoAKACgAoAKACgAoAKACgAoAKACgAoAKACgAoAKACgAoAKACgAoAKACgAoAKACgAoAKACgAoA+f9X+E/ws+KH7U/jX/hZnw08KeLf7M+H/hL7F/bujW1/wDZfM1HxD5nlecjbN3lpu24zsXPQUAdX/wyd+yx/wBG0/Cr/wAI3Tv/AIzQAf8ADJ37LH/RtPwq/wDCN07/AOM0AH/DJ37LH/RtPwq/8I3Tv/jNAB/wyd+yx/0bT8Kv/CN07/4zQAf8Mnfssf8ARtPwq/8ACN07/wCM0AH/AAyd+yx/0bT8Kv8AwjdO/wDjNAB/wyd+yx/0bT8Kv/CN07/4zQAf8Mnfssf9G0/Cr/wjdO/+M0AH/DJ37LH/AEbT8Kv/AAjdO/8AjNAB/wAMnfssf9G0/Cr/AMI3Tv8A4zQAf8Mnfssf9G0/Cr/wjdO/+M0AH/DJ37LH/RtPwq/8I3Tv/jNAB/wyd+yx/wBG0/Cr/wAI3Tv/AIzQAf8ADJ37LH/RtPwq/wDCN07/AOM0AH/DJ37LH/RtPwq/8I3Tv/jNAB/wyd+yx/0bT8Kv/CN07/4zQAf8Mnfssf8ARtPwq/8ACN07/wCM0AH/AAyd+yx/0bT8Kv8AwjdO/wDjNAB/wyd+yx/0bT8Kv/CN07/4zQAf8Mnfssf9G0/Cr/wjdO/+M0AH/DJ37LH/AEbT8Kv/AAjdO/8AjNAB/wAMnfssf9G0/Cr/AMI3Tv8A4zQAf8Mnfssf9G0/Cr/wjdO/+M0AH/DJ37LH/RtPwq/8I3Tv/jNAB/wyd+yx/wBG0/Cr/wAI3Tv/AIzQAf8ADJ37LH/RtPwq/wDCN07/AOM0AH/DJ37LH/RtPwq/8I3Tv/jNAB/wyd+yx/0bT8Kv/CN07/4zQAf8Mnfssf8ARtPwq/8ACN07/wCM0AH/AAyd+yx/0bT8Kv8AwjdO/wDjNAB/wyd+yx/0bT8Kv/CN07/4zQAf8Mnfssf9G0/Cr/wjdO/+M0AH/DJ37LH/AEbT8Kv/AAjdO/8AjNAB/wAMnfssf9G0/Cr/AMI3Tv8A4zQAf8Mnfssf9G0/Cr/wjdO/+M0AH/DJ37LH/RtPwq/8I3Tv/jNAB/wyd+yx/wBG0/Cr/wAI3Tv/AIzQAf8ADJ37LH/RtPwq/wDCN07/AOM0AH/DJ37LH/RtPwq/8I3Tv/jNAB/wyd+yx/0bT8Kv/CN07/4zQAf8Mnfssf8ARtPwq/8ACN07/wCM0AH/AAyd+yx/0bT8Kv8AwjdO/wDjNAB/wyd+yx/0bT8Kv/CN07/4zQAf8Mnfssf9G0/Cr/wjdO/+M0AH/DJ37LH/AEbT8Kv/AAjdO/8AjNAB/wAMnfssf9G0/Cr/AMI3Tv8A4zQAf8Mnfssf9G0/Cr/wjdO/+M0AH/DJ37LH/RtPwq/8I3Tv/jNAB/wyd+yx/wBG0/Cr/wAI3Tv/AIzQAf8ADJ37LH/RtPwq/wDCN07/AOM0AH/DJ37LH/RtPwq/8I3Tv/jNAB/wyd+yx/0bT8Kv/CN07/4zQAf8Mnfssf8ARtPwq/8ACN07/wCM0AH/AAyd+yx/0bT8Kv8AwjdO/wDjNAB/wyd+yx/0bT8Kv/CN07/4zQAf8Mnfssf9G0/Cr/wjdO/+M0AH/DJ37LH/AEbT8Kv/AAjdO/8AjNAB/wAMnfssf9G0/Cr/AMI3Tv8A4zQAf8Mnfssf9G0/Cr/wjdO/+M0AH/DJ37LH/RtPwq/8I3Tv/jNAB/wyd+yx/wBG0/Cr/wAI3Tv/AIzQAf8ADJ37LH/RtPwq/wDCN07/AOM0AH/DJ37LH/RtPwq/8I3Tv/jNAB/wyd+yx/0bT8Kv/CN07/4zQB+Rf/BXb4e+Afhr+0l4b0L4c+B/D/hXTZ/A9ndy2eiaZDYwSTtf36tK0cKqpcqiKWIzhFHYUAfuTQAUAFAHlXhz/k6f4h/9k/8ABv8A6cfEdAHqtABQAUAFABQAUAFABQAUAFABQAUAFABQAUAFABQAUAFABQAUAFABQAUAFABQAUAFABQB87/tlaprllY/CbTdGj8Y3UWtfEa20+/03wnrz6PqGpWx0rU5DbrcrdWoVd8UbkNOgPljkkAUAeeWvin9ov4W+MNB8H+HbWbw9o/xP8a/2XoFj8SNQn8Uajo1nBorT3MzSwai7OJLm3cpE15IAueY9+1ADrNC/aU+J+oeJ/Dfiu90vwuPh34w+Iep/Dyw02K2uBrdnLatdQx3s1wZTE4kmsJy0AgjaOOWM+ZJtYkA8n8G/tlfF26+HXha38B+C21HUtI8AaV4o1OyPhrxL4mm1y6vGlMenwXdu872B8u1lH2q+knLvMnyFYpHIBa8LftA/FjXvib8Xvhr4X1ibRbq+1jUdXsL/wAZW95PHp1jBodhIdLsbdJ4tt4JLjzmiEqCJFlk2yHO0A+mf2U9S8Ua1+zL8Ktb8Z68da1nUvB2k3t1fusgkuDLaxurStJJI8k21lEkpb944d9qBtigHqlABQAUAFABQAUAFABQAUAFABQAUAFABQAUAFABQAUAFABQAUAFABQAUAFABQAUAFABQB+K3/Bav/k6fwt/2T+x/wDTjqNAH7U0AFABQB5V4c/5On+If/ZP/Bv/AKcfEdAHqtABQAUAFABQAUAFABQAUAFABQAUAFABQAUAFABQAUAFABQAUAFABQAUAFABQAUAFABQBheJvBHhfxjd+H77xHpn2ufwvqy65pL+dJH9mvVgmgEuEYB/3VxMu19y/PnGQCACPxH4A8JeLdd8N+JfEOk/a9S8IXsmo6NN58sf2W4kgeB32owV8xSyLhww+bIGQCADh9X/AGcPAcPia/8AiR4E0qx0bxxNcXGo2F9qBvdQ0ux1G4jWOe9TShdRWy3EiKQ8sYjkcszM7Fn3AGJov7HHwZh+HXg7wB4q0u91v/hE/Dlv4ZkvItSvNOOrWce1mhvY7WZFuoDIGcQT+bGhkkAHzvuAOtk/Z3+DUs1zO3gmFWu/Edv4tl2Xdwi/2pDbrbJMoEgCL9nXyWhUCJ42dHRldwQDp/AHgPwz8MPBuk/D/wAGWt3a6FoVuLTT7e51C4vXggBO2IS3DvKUUHailiEQKi4VVAAOgoAKACgAoAKACgAoAKACgAoAKACgAoAKACgAoAKACgAoAKACgAoAKACgAoAKACgAoAKAPxW/4LV/8nT+Fv8Asn9j/wCnHUaAP2poAKACgDyrw5/ydP8AEP8A7J/4N/8ATj4joA9VoAKACgAoAKACgAoAKACgAoAKACgAoAKACgAoAyfFninQvA3hXWfGvim++xaL4f0+41TUbnynk8i1gjaSWTYgZ22ojHCgscYAJ4oA4D/hpb4df9C58Vf/AA0/ir/5XUAH/DS3w6/6Fz4q/wDhp/FX/wArqAD/AIaW+HX/AELnxV/8NP4q/wDldQAf8NLfDr/oXPir/wCGn8Vf/K6gA/4aW+HX/QufFX/w0/ir/wCV1AB/w0t8Ov8AoXPir/4afxV/8rqAD/hpb4df9C58Vf8Aw0/ir/5XUAH/AA0t8Ov+hc+Kv/hp/FX/AMrqAD/hpb4df9C58Vf/AA0/ir/5XUAH/DS3w6/6Fz4q/wDhp/FX/wArqAD/AIaW+HX/AELnxV/8NP4q/wDldQB2vgPx54Z+JXhmDxf4QurufTZ7i7tAbvT7ixnjntriS2uIpLe5SOaJ0mhlQq6KcoaAOgoAKACgAoAKACgAoAKACgAoAKACgAoAKACgAoAKACgAoAKACgAoAKACgAoAKACgAoAKACgAoAKACgAoAKAPxW/4LV/8nT+Fv+yf2P8A6cdRoA/amgAoAKAPKvDn/J0/xD/7J/4N/wDTj4joA9VoAKACgAoAKACgAoAKACgAoAKACgAoAKACgAoA8q/ax/5NY+Mn/ZP/ABD/AOm6egD1WgAoAKACgAoAKACgAoAKACgAoA8q/Zp/5J1q/wD2UDx3/wCpVqlAHqtABQAUAFABQAUAFABQAUAFABQAUAFABQAUAFABQAUAFABQAUAFABQAUAFABQAUAFABQAUAFABQAUAFABQB+K3/AAWr/wCTp/C3/ZP7H/046jQB+1NABQAUAeVeHP8Ak6f4h/8AZP8Awb/6cfEdAHqtABQAUAFABQAUAFABQAUAFABQAUAFABQAUAFAHlX7WP8Ayax8ZP8Asn/iH/03T0Aeq0AFABQAUAFABQAUAFABQAUAFAH5nfGf9tr44fsz/DDWdN+HfwI1FrO48d+NwPG+qILjSonfxRqfyRxwMcSAsVHntH86HEciYYgH0V+zD8Z/ixefArwjr+ufBn4q/EDVPEGnprN94iTUvC6w3s1wPMYQxnVo/KiTcI0j8qIgRjciuWFAHqX/AAuT4i/9GnfFX/wZeFf/AJc0AH/C5PiL/wBGnfFX/wAGXhX/AOXNAB/wuT4i/wDRp3xV/wDBl4V/+XNAB/wuT4i/9GnfFX/wZeFf/lzQAf8AC5PiL/0ad8Vf/Bl4V/8AlzQAf8Lk+Iv/AEad8Vf/AAZeFf8A5c0AH/C5PiL/ANGnfFX/AMGXhX/5c0AH/C5PiL/0ad8Vf/Bl4V/+XNAB/wALk+Iv/Rp3xV/8GXhX/wCXNAB/wuT4i/8ARp3xV/8ABl4V/wDlzQAf8Lk+Iv8A0ad8Vf8AwZeFf/lzQAf8Lk+Iv/Rp3xV/8GXhX/5c0AH/AAuT4i/9GnfFX/wZeFf/AJc0AH/C5PiL/wBGnfFX/wAGXhX/AOXNAB/wuT4i/wDRp3xV/wDBl4V/+XNAB/wuT4i/9GnfFX/wZeFf/lzQAf8AC5PiL/0ad8Vf/Bl4V/8AlzQAf8Lk+Iv/AEad8Vf/AAZeFf8A5c0AH/C5PiL/ANGnfFX/AMGXhX/5c0AH/C5PiL/0ad8Vf/Bl4V/+XNAB/wALk+Iv/Rp3xV/8GXhX/wCXNAB/wuT4i/8ARp3xV/8ABl4V/wDlzQBa8JfGe+1/x/Z/DnxL8H/GvgvUtR0e+1uxl1ubSJoLmCzmtIZ1VrC+uWVw19bkB1UEFsHjFAHpdABQAUAFABQAUAFABQAUAFABQB+K3/Bav/k6fwt/2T+x/wDTjqNAH7U0AFABQB5V4c/5On+If/ZP/Bv/AKcfEdAHqtABQAUAFABQAUAFABQAUAFABQAUAFABQAUAISBySB25oA8r/ax/5NY+Mn/ZP/EP/punoA9VoAKACgAoAKACgAoAKACgAoAKAPJP2dbO01H4X69Yahaw3NtcePPHsU0MyB45EbxTqgKsp4II4INAHd+BvAPg74aaCPC3gPQLXQ9FjuJrmDTrMFLa3aVy8ghj+7EhdmbYgChmYgDJoA6CgAoAKACgAoAKACgAoAKACgAoAKACgAoAKACgAoAKACgAoAKACgDyrxH/AMnT/Dz/ALJ/4y/9OPhygD1WgAoAKACgAoAKACgAoAKACgAoA/Fb/gtX/wAnT+Fv+yf2P/px1GgD9qaACgAoA8q8Of8AJ0/xD/7J/wCDf/Tj4joA9VoAKACgAoAKACgAoAKACgAoA8/+LfxD8VeBpfB2keCvCWleINa8Z+IH0K2h1TWpNLtYNmm3t88rzR21y/3LBkCiLlnGSADQBlf8JH+1P/0Rv4Vf+HL1H/5RUAH/AAkf7U//AERv4Vf+HL1H/wCUVAB/wkf7U/8A0Rv4Vf8Ahy9R/wDlFQAf8JH+1P8A9Eb+FX/hy9R/+UVAHL/FHVPjvqfw28UWfxB+E/wpsvDTaRdtq13/AMLQ1KI2lqsTNJOsg0HMbRqC6uOVZQw5AoA+APgr8Zv+CgHjj9l34pWXjPwn/wAJR8Lz4B19f+Em8UzPaXkdv/Z0w3WtwVMl/wAbyCyOGYBTNEOQAfr2M4G4AHvigBaACgAoA84+LHjfUvB3i74S2Ntq6WNh4o8ayaHqavGjC5hbQ9VnihywJQm6t7UgqQxKhc7WYEA+bdO8TyfHXxN8G9J+M2r2XiHwN4j134hwNZXEUX9m61f6drMkOkW9zGoEM6JaRTPEjBt7wb2DMoagD6J+COhfCrwlc+NfB3wi1ac6VpGvlLvRIEI0vQL57eKSazscRqkaEsJpII3ZY5Z5OIyxWgD1CgAoAKACgD5q+CWtfH208L+IbfwV8NPh/quip8QPHH2a81Txxe6fdS58T6kX328ek3CJhywGJWyoDHaSVAB6B/wkf7U//RG/hV/4cvUf/lFQAf8ACR/tT/8ARG/hV/4cvUf/AJRUAH/CR/tT/wDRG/hV/wCHL1H/AOUVAB/wkf7U/wD0Rv4Vf+HL1H/5RUAH/CR/tT/9Eb+FX/hy9R/+UVAB/wAJH+1P/wBEb+FX/hy9R/8AlFQAf8JH+1P/ANEb+FX/AIcvUf8A5RUAH/CR/tT/APRG/hV/4cvUf/lFQAf8JH+1P/0Rv4Vf+HL1H/5RUAH/AAkf7U//AERv4Vf+HL1H/wCUVAB/wkf7U/8A0Rv4Vf8Ahy9R/wDlFQAf8JH+1P8A9Eb+FX/hy9R/+UVAB/wkf7U//RG/hV/4cvUf/lFQAf8ACR/tT/8ARG/hV/4cvUf/AJRUAH/CR/tT/wDRG/hV/wCHL1H/AOUVAB/wkf7U/wD0Rv4Vf+HL1H/5RUAVE+KHxo0Dxv4J8NfEb4WeCtO03xprFxokV9onja71Ge2nj0y9v1ZoJtLtlZCti6EiUEF1ODzQB7BQAUAFABQAUAFAHlXiP/k6f4ef9k/8Zf8Apx8OUAeq0AFABQAUAFABQAUAFABQAUAFAH4rf8Fq/wDk6fwt/wBk/sf/AE46jQB+1NABQAUAeVeHP+Tp/iH/ANk/8G/+nHxHQB6rQAUAFABQAUAFABQAUAFABQB5V8ZP+Si/An/soF5/6iuvUAeq0AFABQAUAVNU0nS9csJdL1rTra/s59vm29zEssUmCGG5WBBwQDz6UAeaftYAL+yv8Y1UAAfD/wAQgAf9g6egD1agAoAKACgDi/iX8IfAnxeXw7a/EHRbbWdO8Oas+sxaZeW0NxZ3czWN1Z7LiGVGWRAl5I4AwRIkZzgEEAnuPhH8KLzwWnw3u/hj4Tn8JRyGZNAk0W2bTlkMplLC2KeUGMjM+dudzFupzQBseGPCvhfwToVr4X8GeG9L0DRrEOLXTtLs47W1gDOXbZFGAi5ZmY4AyWJ6mgDVoAKACgAoA8q/Zp/5J1q//ZQPHf8A6lWqUAeq0AFABQAUAFABQAUAFABQAUAFABQAUAFABQAUAeSfFu7tb34gfAqezuYp4x8Q7+MvE4Zd6eF9fV1yO6srKR2IIPSgD1W2u7W8RpbO5inRJHiZo3DAOjFXUkd1YEEdQQQaAJqACgAoAKACgDyrxH/ydP8ADz/sn/jL/wBOPhygD1WgAoAKACgAoAKACgAoAKACgAoA/Fb/AILV/wDJ0/hb/sn9j/6cdRoA/amgAoAKAPKvDn/J0/xD/wCyf+Df/Tj4joA9VoAKACgAoAKACgAoAKACgAoA8q+Mn/JRfgT/ANlAvP8A1FdeoA9VoAKACgAoAKAPKv2sf+TWPjJ/2T/xD/6bp6APVaACgAoAKACgAoAKACgAoAKACgDyr9mn/knWr/8AZQPHf/qVapQB6rQAUAFABQAUAFABQAUAFABQAUAFABQAUAFABQB+Yf7fv7Mfxln/AGlvA2sfAbxNr+iab8XdZWz1RNOvJorax1lLOWCa+dI2UDfprXO4gbikd3k/PggH6N/D3wJ4d+GHgbQfh54StPs2j+HdPh06zQnLeXGgUM5/idsFmbqWJJ5NAHQ0AFABQAUAFAHlXiP/AJOn+Hn/AGT/AMZf+nHw5QB6rQAUAFABQAUAFABQAUAFABQAUAfit/wWr/5On8Lf9k/sf/TjqNAH7U0AFABQB5V4c/5On+If/ZP/AAb/AOnHxHQB6rQAUAFABQAUAFABQAUAFABQB5V8ZP8AkovwJ/7KBef+orr1AHqtABQAUAFABQB5V+1j/wAmsfGT/sn/AIh/9N09AHqtABQAUAFABQAUAFABQAUAFABQB5V+zT/yTrV/+ygeO/8A1KtUoA9VoAKAPKv2sf8Ak1j4yf8AZP8AxD/6bp6AD/hk79lj/o2n4Vf+Ebp3/wAZoAP+GTv2WP8Ao2n4Vf8AhG6d/wDGaAD/AIZO/ZY/6Np+FX/hG6d/8ZoAP+GTv2WP+jafhV/4Runf/GaAD/hk79lj/o2n4Vf+Ebp3/wAZoAP+GTv2WP8Ao2n4Vf8AhG6d/wDGaAD/AIZO/ZY/6Np+FX/hG6d/8ZoAP+GTv2WP+jafhV/4Runf/GaAD/hk79lj/o2n4Vf+Ebp3/wAZoAP+GTv2WP8Ao2n4Vf8AhG6d/wDGaAD/AIZO/ZY/6Np+FX/hG6d/8ZoAP+GTv2WP+jafhV/4Runf/GaAD/hk79lj/o2n4Vf+Ebp3/wAZoAP+GTv2WP8Ao2n4Vf8AhG6d/wDGaAD/AIZO/ZY/6Np+FX/hG6d/8ZoAP+GTv2WP+jafhV/4Runf/GaAD/hk79lj/o2n4Vf+Ebp3/wAZoAP+GTv2WP8Ao2n4Vf8AhG6d/wDGaAD/AIZO/ZY/6Np+FX/hG6d/8ZoAP+GTv2WP+jafhV/4Runf/GaAD/hk79lj/o2n4Vf+Ebp3/wAZoAP+GTv2WP8Ao2n4Vf8AhG6d/wDGaAD/AIZO/ZY/6Np+FX/hG6d/8ZoAP+GTv2WP+jafhV/4Runf/GaAD/hk79lj/o2n4Vf+Ebp3/wAZoAP+GTv2WP8Ao2n4Vf8AhG6d/wDGaAD/AIZO/ZY/6Np+FX/hG6d/8ZoA5/4TfD3wD8Nf2kviRoXw58D+H/Cumz+B/B93LZ6JpkNjBJO1/wCIVaVo4VVS5VEUsRnCKOwoA91oAKACgAoA/Fb/AILV/wDJ0/hb/sn9j/6cdRoA/amgAoAKAPKvDn/J0/xD/wCyf+Df/Tj4joA9VoAKACgAoAKACgAoAKACgAoA8q+Mn/JRfgT/ANlAvP8A1FdeoA9VoAKACgAoAKAOf+IXgrSviV4A8S/DnXbi7g03xVo97ol5LaOqzxwXMLwyNGzKyhwrkglWGcZB6UAcV/wpv4i/9HY/FX/wW+Ff/lNQAf8ACm/iL/0dj8Vf/Bb4V/8AlNQAf8Kb+Iv/AEdj8Vf/AAW+Ff8A5TUAH/Cm/iL/ANHY/FX/AMFvhX/5TUAH/Cm/iL/0dj8Vf/Bb4V/+U1AB/wAKb+Iv/R2PxV/8FvhX/wCU1AB/wpv4i/8AR2PxV/8ABb4V/wDlNQAf8Kb+Iv8A0dj8Vf8AwW+Ff/lNQAf8Kb+Iv/R2PxV/8FvhX/5TUAH/AApv4i/9HY/FX/wW+Ff/AJTUAH/Cm/iL/wBHY/FX/wAFvhX/AOU1AHVfDH4e2fwv8IR+ErLXtV1v/iYalqlxqOqeR9qurq+vZ724kcW8UUQzNcyYCRqoXAxxQB1dABQB5V+1j/yax8ZP+yf+If8A03T0Aeq0AFABQAUAFABQAUAFABQAUAFABQAUAFABQAUAFABQAUAFABQAUAFABQAUAFABQB5V4c/5On+If/ZP/Bv/AKcfEdAHqtABQAUAFAH4rf8ABav/AJOn8Lf9k/sf/TjqNAH7U0AFABQB5V4c/wCTp/iH/wBk/wDBv/px8R0Aeq0AFABQAUAFABQAUAFABQAUAeVfGT/kovwJ/wCygXn/AKiuvUAeq0AFABQAUAFABQAUAFABQAUAFABQAUAFABQAUAFABQAUAFAHlX7WP/JrHxk/7J/4h/8ATdPQB6rQAUAFABQAUAFABQAUAFABQAUAeUeKP2oPg54P8R+JPC2tap4ja88HCJvEEth4P1m/s9LWS2S5Vri7t7V7eJfIkWQs0gCrksRg4AO/0rxboeuX4sdHnubxXsINTivYrKZrC4t5t3ltDebPs8xIXOxJGYKVYgBlJANigDntQ8f+EtL8caP8OL/VvK8Ra9ZXeo6fZeRK3nW9q0Szv5gUxrtM0XDMCd3AODgA6GgAoAKACgAoAKACgAoAKACgAoAKAPKvDn/J0/xD/wCyf+Df/Tj4joA9VoAKACgAoA/Fb/gtX/ydP4W/7J/Y/wDpx1GgD9qaACgAoA8q8Of8nT/EP/sn/g3/ANOPiOgD1WgAoAKACgAoAKACgAoAKACgDyr4yf8AJRfgT/2UC8/9RXXqAPVaACgAoAKACgAoAKACgAoAKACgAoAKACgAoAKACgAoAKACgDyr9rH/AJNY+Mn/AGT/AMQ/+m6egD1WgAoAKACgAoAKACgAoAKACgAoA+U9L8ZP8LPjr+0Vd+Ivhl4+1pPE9/o11oUGmeC9Uv7TWhFoFrC0K3cVu9qgMqtEWlkVFOdxADEAHienfs/eN/BenTeC/HXhfxZd2mn/AAw8AaXe3mleG21yy+22mq3E89rLaqynUrSImNLi3hZpZLcnC/NQAzxL4f0Gw0T4YaZ4y+C0cPg+T40zzLpeheCtU0qLWrL/AIR+bzLhPDtyZri2hDrIklqqkTiCWQRnzzvAGw/D34s+H/smuaB8GvFd/oFv4W+Jx8NeHWt7qyks9Ju7u1bTtNkZMTWkksSymOAMk6qdkex0GwAydL8Ha38NZ/iR8UND+HKaPpfgqz8H+L9CGm+ANQ8G6Vqd3p93dR38UdrfSySfaHtLiW3LuY5JDIrCNlIeQA+/Pgl4Gl+Gvwj8JeB7tV+3aVpUEeouH3edfsu+6lJycl52lc44yxxxQB29ABQAUAFABQAUAFABQAUAFAHlXhz/AJOn+If/AGT/AMG/+nHxHQB6rQAUAFABQB+K3/Bav/k6fwt/2T+x/wDTjqNAH7U0AFABQB5V4c/5On+If/ZP/Bv/AKcfEdAHqtABQAUAFABQAUAFABQAUAFAHlXxk/5KL8Cf+ygXn/qK69QB6rQAUAFABQAUAFABQAUAFABQAUAFABQAUAFABQAUAFABQAUAeVftY/8AJrHxk/7J/wCIf/TdPQB6rQAUAFABQAUAFABQAUAeY/Ff4ua14I8W+Dfh34P8NaJq/iTxp/aEtkuu+IP7GsRFZpG0qCdYLiSW4YzxlII4WLIk7llWI5AOL0/9sLwzYa7b+G/ih4K8Q+A72x8M6jr/AIll1Sxums9Ie1u/sojW5WDyriGdo7poJwyiVUgCoXnWNQDq5v2pfgfZ6Hda7qfirUNNWy1S20Wew1Hw/qVpqaX1zGZLaH+z5rdbstMoPlYixIQQhYgigDb8MfHP4W+MYNEl0DxM0sviDV7zQLO0nsLm2u01G0hmmube4tpo1mtXjjt5GYTpH/yzHWSMMAUF/aN+D03inSfBVn4mu73XNcuLu3sbKz0W/uZJPst9JY3EreXCwjgjuYnRp3KxBRv3+WQ5AOg8Uax8O4PGPg/w94sgsJvEOo3V3c+GVubAzyJcQWzGeSGTYRA4gkkG4spKuygnJFACeP8A4p+Cvhkmm/8ACWX98LnWZ3ttOsNN0q71S+vJEjMknlWlnFLPIERSzsqFVGCxGRQB57qX7Rf7LnjlfDmman4g0vxNBrEr6xowbQbnULcCxvXt21EOIGjhhhuImP2tisSKolEgjIcgGlZ/tXfAW60LWPE0/jS50zTND0621m6uNX0PUNND6fcSeVDeQC5gjNzbs+F86EOmWXLDcuQDM8VftefCXQvBF/4003Ubi4/snxBo+gahp+p2F7pF5aPfzwKs0lvcwLOEFvM9whEREoiZYyW6AG5fftN/BrT/AAzp/iu417WGt9UvbzT7exh8M6pNqontA5ulk01Lc3kIiEZLtJCqqGjJIEiFgD0TQdd0fxRoeneJfD2owahpWrWkN9Y3cDbori3lQPHIh7qysCD6GgC/QAUAFABQAUAFABQB5V4c/wCTp/iH/wBk/wDBv/px8R0Aeq0AFABQAUAfit/wWr/5On8Lf9k/sf8A046jQB+1NABQAUAeVeHP+Tp/iH/2T/wb/wCnHxHQB6rQAUAFABQAUAFABQAUAFABQB5V8ZP+Si/An/soF5/6iuvUAeq0AFABQAUAFABQAUAFABQAUAFABQAUAFABQAUAFABQAUAFAHlX7WP/ACax8ZP+yf8AiH/03T0Aeq0AFABQAUAFABQAUAFAHj3xj8CfEjxfqk+n2/g74dfEfwLqunww3fhTxpO1jHZX0Mrst3DPHY3fnCRZFVo5I1MbW8bxv87qADx3Sv2Tfjdpunta6v4u8NeKL3TdM8H/ANnahqd/eK91NomqTagdPuFaGRxaySXDKs5lmkHkwl4pCoAALGt/C79oBfjh4Z+I8vhjwvrHiHVtSu/EWpaWNSu4/D+mWum2L6fp1p/aZs3kNwx1e6ut5tl3sjIsQEJnABs2PwD+OPg/xBonxG8Mr4B13xbcN4m1XWotU1K8stPsNZ1ZrERTWoitpZLqK2t7Rrba/kPKrM5aMvtjAOq/Zz/Z8134Q6p/avii90nULqDwdofhq3ubV3eVp4ZLq61KZi0abRPeXjOAM5EaE7T8oAN34g/sp/AT4o/EPSPib43+GfhzVNZ0wzm4Nzo1lOmrCSAQIL3zYWecRKqmLLDYVGOBigDhf2lfEfjb4d/E/wAO/E34feFLvxZrNh4V1jR4dIfw/rl3AjXU1tKk8Vzp9jcxJKXs1RoZmgDqykyxhd1AGP8ADr9mD4oeFvhnr9rp2vaT4c8Zaj8MdJ8JaNqFrIwl03UVW7udQlZ40xEJb69YhoS5URoy8qooA4XXf2c/jppHjEeJV8NaXqE3ifWPC2l2Wl3HjnXvE0FpY6Zc3mr3n27UdSgaSCG4ltbKIOkWxWcL5UjnE4B65pf7P3xB174maV8V/iJJ4XjvrrxXD4g1nS9Nu57iC0ttP0y7tNKtreZ4I2uWWa7e6lkdIfnKoqlU+cA4/wAUfsufGO78Py2unL4C1a+1a78S6zP9r1G702bQ9fv9Se5stY07UYLWS7EkFuyW7QKYAyxqPMI3bgD6t0KyvtM0TT9N1PVH1O8tLWKC4vZIxG11KqANKVHCliC2BwM0AXqACgAoAKACgAoAKAPKvDn/ACdP8Q/+yf8Ag3/04+I6APVaACgAoAKAPxW/4LV/8nT+Fv8Asn9j/wCnHUaAP2poAKACgDyrw5/ydP8AEP8A7J/4N/8ATj4joA9VoAKACgD5/wDhv4d+KPxQ0nW/Ft7+0n8QNE/4rDxTpdvp2l6b4d+y2trY65e2VvGhuNLllOIbaPJeRmLZOeaAOr/4U38Rf+jsfir/AOC3wr/8pqAD/hTfxF/6Ox+Kv/gt8K//ACmoAP8AhTfxF/6Ox+Kv/gt8K/8AymoAP+FN/EX/AKOx+Kv/AILfCv8A8pqAD/hTfxF/6Ox+Kv8A4LfCv/ymoAP+FN/EX/o7H4q/+C3wr/8AKagDJ1n9nLxR4g1HQtW1f9qP4q3F34Z1B9U0uT7F4YT7PdPa3Fo0mF0cB8wXdwmGBX5843KpABrf8Kb+Iv8A0dj8Vf8AwW+Ff/lNQAf8Kb+Iv/R2PxV/8FvhX/5TUAH/AApv4i/9HY/FX/wW+Ff/AJTUAH/Cm/iL/wBHY/FX/wAFvhX/AOU1AB/wpv4i/wDR2PxV/wDBb4V/+U1AB/wpv4i/9HY/FX/wW+Ff/lNQAf8ACm/iL/0dj8Vf/Bb4V/8AlNQBa/Z41zxNr/w2lm8X+JLvxBqWneKPFGiHUruC3hnuYLDXb6zt2kW2jihD+TbxAlI1BIJxzQB6XQAUAFABQAUAFABQAUAFABQAUAFAHlX7WP8Ayax8ZP8Asn/iH/03T0Aeq0AFABQAUAFABQAUAFABQAUAFABQAUAFABQAUAFABQAUAFABQAUAFABQAUAFABQB5V4c/wCTp/iH/wBk/wDBv/px8R0Aeq0AFABQAUAfit/wWr/5On8Lf9k/sf8A046jQB+1NABQAUAeVeHP+Tp/iH/2T/wb/wCnHxHQB6rQAUAFAHlX7NP/ACTrV/8AsoHjv/1KtUoA9VoAKACgAoAKACgAoAKACgAoAKACgAoAKAPKv2af+Sdav/2UDx3/AOpVqlAHqtABQAUAFABQAUAFABQAUAFABQAUAeVftY/8msfGT/sn/iH/ANN09AHqtABQAUAFABQAUAFABQAUAFABQAUAFABQAUAFABQAUAFABQAUAFABQAUAFABQAUAeVeHP+Tp/iH/2T/wb/wCnHxHQB6rQAUAFABQB+K3/AAWr/wCTp/C3/ZP7H/046jQB+1NABQAUAeVeHP8Ak6f4h/8AZP8Awb/6cfEdAHqtABQAUAeVfs0/8k61f/soHjv/ANSrVKAPVaACgAoAKACgAoAKACgAoAKACgAoAKACgDyr9mn/AJJ1q/8A2UDx3/6lWqUAeq0AFABQAUAFABQAUAFABQAUAFABQB5V+1j/AMmsfGT/ALJ/4h/9N09AHqtABQAUAFAGd4i8QaN4T8P6n4p8RX8VjpWj2c1/fXUpwkFvEheR29gqk/hQBoAhgGUgg8gigBaACgAoAKACgAoAKACgAoAKACgAoAKACgAoAKACgAoAKACgAoA8q8Of8nT/ABD/AOyf+Df/AE4+I6APVaACgAoAKAPxW/4LV/8AJ0/hb/sn9j/6cdRoA/amgAoAKAPKvDn/ACdP8Q/+yf8Ag3/04+I6APVaACgAoA8q/Zp/5J1q/wD2UDx3/wCpVqlAHpOsXGpWuk3t1o2nR6hqENtJJaWklx5CXEwUlI2k2t5YZsAttOM5wcYoA+d7v9tHSP8AhWXgH4j2PhS2SLxh4Z1rxLqSahqU8UOhRaXbBrtZXgtZpZQl3JDbFkhz85cKxAjYA1/Cn7ZHw11Xx94i+HninzdCvdG1vTNFtbpLa9u7K6e+s7ee2eW5W2WGzMsk7wxpO6tIYiRydqgG/b/tYfAy80y71iw8R61eWtprf/CNhrXwpq8zXeqAzhrS1RLYtdyJ9lnZ1gEmxU3NtVlJAOJ179uf4awatFb+FbeTVdGuPA2ueMk1y6tNUtbS3fTbpbeW1ugljLLb4YT73ZC8bJEnlM08IYA9Du/2lfg5pXibTfBeteLlt9Z1AadG/k2F5NY2txfIWtLee9EIt7eaUDMcU7xyOGjIT50yAR+Ff2oPgj418aw/D7w34svLnWbjUdQ0eBZNC1CC2mv7EObu2S6kgW3eaNY3coJC2wBgCpBIB6rQB51qf7QXwq0jxm3gO+1vUhqcWqWuiTTx6DqEunW+o3KxGC0m1BIDaRTuJ4MRvKrEzRjGXUEASz/aG+D9/wCPLr4bWni1pNctZ7u0I/s67FnNdWsQmurWG9MX2ae4hjJaSCKVpU2SblBjfaAYPhP9r79nnxrp97q+g+PZhYWPh+fxXJd32iahYQSaTCypNdQyXMEazpG7Kj+UWKudpAbigDXtf2kPhBNoPibxHe6/qejWvg+3t7rWYtd8PalpN3bxXBdbdltbuCOeXznjeOIRoxkkUxpuf5aAOm+H3xK8G/FHSLnW/BepXFzDYXsum3sN3YXFjd2V3GFLwXFtcpHNBIFdG2yIpKujDKspIB09AHlX7NP/ACTrV/8AsoHjv/1KtUoA9VoAKACgAoAKACgAoAKACgAoAKACgDyr9rH/AJNY+Mn/AGT/AMQ/+m6egD1WgAoAKACgD4Q/4K1/EL4k2HwOT4W/Dbwd4j1KHxCJL/xRqunabPNbadpNriRkmmRdsW9wGJLcRwyBhtfNAHqv/BPb4h/Ejxl+zto/h34weDvEnh7xZ4NA0Oca3ps9pJf2saj7Ncp5qgyfuysbNkkvExONwoA+mqACgAoAKACgAoAKACgAoAKACgAoAKACgAoAKACgAoAKACgAoA8q8Of8nT/EP/sn/g3/ANOPiOgD1WgAoAKACgD8Vv8AgtX/AMnT+Fv+yf2P/px1GgD9qaACgAoA8q8Of8nT/EP/ALJ/4N/9OPiOgD1WgAoAKAPKv2af+Sdav/2UDx3/AOpVqlAHqtAHyHqH7GnjdrP9oDS7LxLokth480bUtJ+H9vNNNGmix6m8t3qMc6rGVjje+kVl8sP8kYOASVoAhn/ZV+Nd7N468EXV94HXwV8QvEXhzV7/AFBL+6OqWUGm29gs0UcH2YRytM9iFUtMgjVi+HLbFANWz/Zr+NXhz4V+H/B2g+JNMkuLDxvr+v6xp9h4q1Hw+uq6bfXF7PBANUs7dru3aOSe2kdETa5iZS2MEgHAWv7EPxw0/wAC33hZNb8F3l3rHhDx74Uu7ibWNRxCda1CK/s7lXlgmlnIeIxSrK+9Q3mCSZsqQDu9b/ZY+K1xF4j+Hulav4TPgnx9rvh3xHrupXFzcjVtOm0+KyS4trWEQmO4SQ6bbmOV5ojF5so8ttqlgDe8K/s1+OtD/wCFd/a9W0J/+ES+KHibxre+XPMfMsdR/tTyI4sxDMy/b4d6ttUbXwzYG4A9u/4V9oP/AAm3/CwPt/iX+1PL8ryP+Em1L+zduzZn+zvP+x7sc7vJzu+bO7mgDxfxJ8DvizffGOfxj4XfQfDlleeJNO1W617RvFusWNxdWEAgE1teaEEfTr24kjikt/tUkikRtEwQNCqkA5Lw7+x14r0Hxta2sg0fUvCej+JtV8T6bqN/4y8QyXCSXTXE0caaKkqabbTRy3cyG5UyCSMMxgV5XwAWtL/ZS+I2m+D/AIb6FJceBNSuPBvwl1TwHqFrqyXN3p99fXIsNoaNVjd7VhaSq7bkcb1IRuQACK8/ZW+KvinwR4o0LWvEP9ixm80DVvC+gH4g654gt7e/0y5a4d31W6jhv7Vbn9zDi2x9n8oTJvclKAPU/wBnb4Qa38MV8Wa14o0vSrHWPFWpRXUqWXifWfEMphhgWGH7RqGqSGWeQKpGUhhVVCLtbbuoA9ioA8q/Zp/5J1q//ZQPHf8A6lWqUAeq0AFABQAUAFABQAUAFABQAUAFABQB5V+1j/yax8ZP+yf+If8A03T0Aeq0AFABQAUAeVftY/8AJrHxk/7J/wCIf/TdPQB6rQAUAFABQAUAFABQAUAFABQAUAFABQAUAFABQAUAFABQAUAFABQB5V4c/wCTp/iH/wBk/wDBv/px8R0Aeq0AFABQAUAfit/wWr/5On8Lf9k/sf8A046jQB+1NABQAUAeVeHP+Tp/iH/2T/wb/wCnHxHQB6rQAUAFAHlX7NP/ACTrV/8AsoHjv/1KtUoA9VoAKACgAoAKACgAoAKACgAoAKACgAoAKAPKv2af+Sdav/2UDx3/AOpVqlAHqtABQAUAFABQAUAFABQAUAFABQAUAeVftY/8msfGT/sn/iH/ANN09AHqtABQAUAFAHlX7WP/ACax8ZP+yf8AiH/03T0Aeq0AFABQAUAFABQAUAFABQAUAFABQAUAFABQAUAFABQAUAFABQAUAeVeHP8Ak6f4h/8AZP8Awb/6cfEdAHqtABQAUAFAH4rf8Fq/+Tp/C3/ZP7H/ANOOo0AftTQAUAFAHlXhz/k6f4h/9k/8G/8Apx8R0Aeq0AFABQB5V+zT/wAk61f/ALKB47/9SrVKAPVaACgAoAKACgAoAKACgAoAKACgAoAKACgDyr9mn/knWr/9lA8d/wDqVapQB6rQAUAFABQAUAFABQAUAFABQAUAFAHlX7WP/JrHxk/7J/4h/wDTdPQB6rQAUAFABQB5V+1j/wAmsfGT/sn/AIh/9N09AHqtABQB43qf7SGj6B8Y7/4e6/odxaeGbSWx0Y+Ky4Nlb+ILiMTrp1z/AM8S8E9m0ch+Rnl8slWaISAHslABQAUAFABQAUAFABQAUAFABQAUAFABQAUAFABQAUAFAHlXhz/k6f4h/wDZP/Bv/px8R0Aeq0AFABQAUAfit/wWr/5On8Lf9k/sf/TjqNAH7U0AFABQB5V4c/5On+If/ZP/AAb/AOnHxHQB6rQAUAFAHzr8Jfi1oHw10DXvCHi/wl8SoNSg8ceMLsi0+G3iG+gkgufEOoXNvLHcW1lJDKjwzROGR2GHFAHa/wDDS3w6/wChc+Kv/hp/FX/yuoAP+Glvh1/0LnxV/wDDT+Kv/ldQAf8ADS3w6/6Fz4q/+Gn8Vf8AyuoAP+Glvh1/0LnxV/8ADT+Kv/ldQAf8NLfDr/oXPir/AOGn8Vf/ACuoAP8Ahpb4df8AQufFX/w0/ir/AOV1AB/w0t8Ov+hc+Kv/AIafxV/8rqAD/hpb4df9C58Vf/DT+Kv/AJXUAH/DS3w6/wChc+Kv/hp/FX/yuoAP+Glvh1/0LnxV/wDDT+Kv/ldQAf8ADS3w6/6Fz4q/+Gn8Vf8AyuoAP+Glvh1/0LnxV/8ADT+Kv/ldQAf8NLfDr/oXPir/AOGn8Vf/ACuoAP8Ahpb4df8AQufFX/w0/ir/AOV1AB+zMl5/wq64vb3SNV0z+0/GHi/VLe31TTp7C6+y3XiLUbi3ke3uESWLfDLG4DorbXHHNAHqtABQAUAFABQAUAFABQAUAFABQAUAeVftY/8AJrHxk/7J/wCIf/TdPQB6rQAUAFABQB5V+1j/AMmsfGT/ALJ/4h/9N09AHqtAFPWNX07w/pF9r2sXSW1hpttLd3U7/dihjUs7n2Cgn8KAPK/gl4Gs/EnwOI+I/h6C8l+JZvPEfiDTb+JZFP8AaTmUWkqnIPkwPDb9+IByepAMnw74i179nfXrD4cfEfV7vVPAGqXCWXhPxZeymSbT5nO2LSdTlbkkkhLe6Y/vOIpT5ux5wD3agAoAKACgDifiD8aPhp8Lb7TNM8c+J00+71ZZZLaBLaa4kEMQHmTyLCjGKBCyK0z7YwzopYFgCAb/AIW8X+E/HGjxeIPBXifSdf0uf/VXumXsd1A/GeJIyVPUd6ANegAoAKACgAoAKACgAoAKACgAoAKAPKvDn/J0/wAQ/wDsn/g3/wBOPiOgD1WgAoAKACgD8Vv+C1f/ACdP4W/7J/Y/+nHUaAP2poAKACgDyrw5/wAnT/EP/sn/AIN/9OPiOgD1WgAoAKACgAoAKACgAoAKACgAoAKACgAoAKACgAoAKACgAoAKACgAoAKACgAoAKACgAoAKACgDyr9rH/k1j4yf9k/8Q/+m6egD1WgAoAKACgDyr9rH/k1j4yf9k/8Q/8ApunoA9VoA8k/aQJ8Q+GND+EMB3S/ErXLfQLpAM50pQ1zqe4dlayt7iHJ43zxjnIUgHrQAUBVAAHAAoAz/EXh3QfF2g3/AIX8UaRaappGqW72l7ZXcQkhuIXGGR1PBBBoA8a8O+Ite/Z316w+HHxH1e71TwBqlwll4T8WXspkm0+Zzti0nU5W5JJIS3umP7ziKU+bsecA92oAKAPO/iz8Wf8AhAv7O8LeFtG/4STx54k8yPQNAjl8vzdmPMurmTB+z2cW5TJMQcZVEDyOiMAHwm+E3/CBf2j4p8U6z/wknjzxJ5cmv6/JF5fm7M+Xa20eT9ns4tzCOEE4yzuXkd3YAPFP7P8A8KPFWry+J38Mf2L4imwX17w9dS6RqbkHI33Nq0ckqgk/JIWQ5IKkEggGR/wiH7Qfgn5vBvxM0nx1Yx526b40sxaXZHZV1KxjCqB0zJZyseCWJB3AB/w0B/wjB8n4w/DLxZ4I2nDal9k/tbSD/t/bLLzPJTr81ykHI6cjIB6J4W8YeE/HOjxeIPBXifSdf0ufmK90y9juoH4zxJGSp6+tAGvQAUAFABQAUAFABQAUAFAHlXhz/k6f4h/9k/8ABv8A6cfEdAHqtABQAUAFAH4rf8Fq/wDk6fwt/wBk/sf/AE46jQB+qn7WP/JrHxk/7J/4h/8ATdPQB4D/AMM6fs+f9EJ+Hn/hL2P/AMaoAP8AhnT9nz/ohPw8/wDCXsf/AI1QAf8ADOn7Pn/RCfh5/wCEvY//ABqgA/4Z0/Z8/wCiE/Dz/wAJex/+NUAH/DOn7Pn/AEQn4ef+EvY//GqAD/hnT9nz/ohPw8/8Jex/+NUAH/DOn7Pn/RCfh5/4S9j/APGqAD/hnT9nz/ohPw8/8Jex/wDjVAB/wzp+z5/0Qn4ef+EvY/8AxqgA/wCGdP2fP+iE/Dz/AMJex/8AjVAB/wAM6fs+f9EJ+Hn/AIS9j/8AGqAD/hnT9nz/AKIT8PP/AAl7H/41QAf8M6fs+f8ARCfh5/4S9j/8aoAP+GdP2fP+iE/Dz/wl7H/41QAf8M6fs+f9EJ+Hn/hL2P8A8aoAP+GdP2fP+iE/Dz/wl7H/AONUAH/DOn7Pn/RCfh5/4S9j/wDGqAD/AIZ0/Z8/6IT8PP8Awl7H/wCNUAH/AAzp+z5/0Qn4ef8AhL2P/wAaoAP+GdP2fP8AohPw8/8ACXsf/jVAB/wzp+z5/wBEJ+Hn/hL2P/xqgA/4Z0/Z8/6IT8PP/CXsf/jVAB/wzp+z5/0Qn4ef+EvY/wDxqgA/4Z0/Z8/6IT8PP/CXsf8A41QAf8M6fs+f9EJ+Hn/hL2P/AMaoAP8AhnT9nz/ohPw8/wDCXsf/AI1QB7H+xlp2n6P8BrfSNIsLexsbHxZ4xtrW1toliigiTxJqSpGiKAFVVAAUAAAACgD3CgAoAKACgAoAKACgDyr9rH/k1j4yf9k/8Q/+m6egD1WgAoAKACgDyr9rH/k1j4yf9k/8Q/8ApunoA9VoA8j0cjxx+0nrmskiTTvhpokXh+2OcgarqPl3d4COm5LWLTdp6gXMg4BO4A9coAKAM7xF4d0HxdoN/wCF/FGkWmqaRqlu9pe2V3EJIbiFxhkdTwQQaAPGvDviLXv2d9esPhx8R9Xu9U8AapcJZeE/Fl7KZJtPmc7YtJ1OVuSSSEt7pj+84ilPm7HnAOy+LPxZ/wCEC/s7wt4W0b/hJPHniTzI9A0COXy/N2Y8y6uZMH7PZxblMkxBxlUQPI6IwAfCb4Tf8IF/aPinxTrP/CSePPEnlya/r8kXl+bsz5drbR5P2ezi3MI4QTjLO5eR3dgD0SgAoAKACgDzrxT+z98KPFWry+J38Mf2L4imwX17w9dS6RqbkHI33Nq0ckqgk/JIWQ5IKkEggGR/wiH7Qngn5vBvxM0nx1Yx526b40sxaXZHZV1KxjCqB0zJZyseCWJB3AC/8NAf8IwfJ+MPwy8WeCNpw2pfZP7W0g8ff+2WXmeSnUbrlIOR05GQD0Twt4w8J+OdHi8QeCvE+k6/pc/MV7pl7HdQPxniSMlT19aANegAoAKACgAoAKAPKvDn/J0/xD/7J/4N/wDTj4joA9VoAKACgAoA/Fb/AILV/wDJ0/hb/sn9j/6cdRoA/VT9rH/k1j4yf9k/8Q/+m6egDhKACgAoAKACgAoAKACgAoAKACgAoAKACgAoAKACgAoAKACgAoAKACgAoAKACgDqf2RP+SLt/wBjl40/9SbU6APZ6ACgAoAKACgAoAKAPKv2sf8Ak1j4yf8AZP8AxD/6bp6APVaACgAoAKAPKv2sf+TWPjJ/2T/xD/6bp6APVaAMPwr4O0TwdHqiaNHLv1nVbrWb2WaQu8tzO+WJPoqhI1HZI0HbNAG5QAUAFAGd4i8O6D4u0G/8L+KNItNU0jVLd7S9sruISQ3ELjDI6nggg0AcV8IvgZ4U+D66jdaZqGr65q+pssU+s65eve332KIsLSyEzkt5MEZ2qufmbfI+6SR2YA9GoAKACgAoAKACgAoAKAPOvFP7P3wo8VavL4nfwx/YviKbBfXvD11LpGpuQcjfc2rRySqCT8khZDkgqQSCAdp4e0qbQ9FtNHuNd1DWZLOMRNfag0bXM2OhkMaIpbGBkKCcZOSSSAaNABQAUAFABQB5V4c/5On+If8A2T/wb/6cfEdAHqtABQAUAFAH4rf8Fq/+Tp/C3/ZP7H/046jQB+qn7WP/ACax8ZP+yf8AiH/03T0AcJQAUAFAHmfx5+L+ofBzQNE1XSvCtvr91resrpEdvcak1jHHm1ubgyGRYZSeLYrt2clhyMUAeRf8Nj/EH/oi/h7/AMLOf/5W0AH/AA2P8Qf+iL+Hv/Czn/8AlbQAf8Nj/EH/AKIv4e/8LOf/AOVtAB/w2P8AEH/oi/h7/wALOf8A+VtAB/w2P8Qf+iL+Hv8Aws5//lbQAf8ADY/xB/6Iv4e/8LOf/wCVtAB/w2P8Qf8Aoi/h7/ws5/8A5W0AH/DY/wAQf+iL+Hv/AAs5/wD5W0AH/DY/xB/6Iv4e/wDCzn/+VtAB/wANj/EH/oi/h7/ws5//AJW0AH/DY/xB/wCiL+Hv/Czn/wDlbQAf8Nj/ABB/6Iv4e/8ACzn/APlbQAf8Nj/EH/oi/h7/AMLOf/5W0AH/AA2P8Qf+iL+Hv/Czn/8AlbQAf8Nj/EH/AKIv4e/8LOf/AOVtAB/w2P8AEH/oi/h7/wALOf8A+VtAB/w2P8Qf+iL+Hv8Aws5//lbQAf8ADY/xB/6Iv4e/8LOf/wCVtAHpHwH+PGsfGDWPEuia34Is/D8/h+20+6VrXWHv0uEunulAJa3hKFTans2d46YoA9hoAKACgDqf2RP+SLt/2OXjT/1JtToA9noAKACgAoAKACgAoA8q/ax/5NY+Mn/ZP/EP/punoA9VoAKACgAoA4r43+CtV+JXwX8ffDnQri0g1LxV4X1XRLOW7dlgjnubSSGNpGVWYIGcEkKxxnAPSgDn/wDhI/2p/wDojfwq/wDDl6j/APKKgA/4SP8Aan/6I38Kv/Dl6j/8oqAD/hI/2p/+iN/Cr/w5eo//ACioAP8AhI/2p/8Aojfwq/8ADl6j/wDKKgA/4SP9qf8A6I38Kv8Aw5eo/wDyioAP+Ej/AGp/+iN/Cr/w5eo//KKgA/4SP9qf/ojfwq/8OXqP/wAoqAD/AISP9qf/AKI38Kv/AA5eo/8AyioAP+Ej/an/AOiN/Cr/AMOXqP8A8oqAD/hI/wBqf/ojfwq/8OXqP/yioAP+Ej/an/6I38Kv/Dl6j/8AKKgA/wCEj/an/wCiN/Cr/wAOXqP/AMoqAD/hI/2p/wDojfwq/wDDl6j/APKKgA/4SP8Aan/6I38Kv/Dl6j/8oqAD/hI/2p/+iN/Cr/w5eo//ACioAP8AhI/2p/8Aojfwq/8ADl6j/wDKKgD4b/bQ+J/7XXgP9ovwDN8HNAsdJ+Iuu6VL/aPhzwf4hu/EUGqWEUyrBPe2c+nW0ceCbmMXGHbahG6IRqSAfd/wG174+eIPBNrfftB+AfDHhXxC0MZe30XWHvNznO/zIzHsgI+XCpPODk/MMYoA9KoAKACgAoA8q8Of8nT/ABD/AOyf+Df/AE4+I6APVaACgAoAKAPxW/4LV/8AJ0/hb/sn9j/6cdRoA/VT9rH/AJNY+Mn/AGT/AMQ/+m6egDhKACgAoA+eP20v+RX8A/8AY5D/ANNGpUAfO1ABQAUAFABQAUAFABQAUAFABQAUAFABQAUAFABQAUAez/scf8lB+Iv/AGBvDv8A6P1WgD6poAKACgDqf2RP+SLt/wBjl40/9SbU6APZ6ACgAoAKACgAoAKAPKv2sf8Ak1j4yf8AZP8AxD/6bp6APVaACgAoAKACgAoAKACgAoAKACgAoAKACgAoAKACgAoAKACgAoAqW+kaVaahd6ta6baw3t/5YurlIVWWcIMIHcDLbRwMnjtQBboAKACgAoAKAPKvDn/J0/xD/wCyf+Df/Tj4joA9VoAKACgAoA/Fb/gtX/ydP4W/7J/Y/wDpx1GgD9VP2sf+TWPjJ/2T/wAQ/wDpunoA+W/ir+1p8JfhjrMHguDUZPFPjK+uUsbPw7ohSe5e5dgiRyOSI4SWZQQzb8HIU0Aey2xuGt4mu4445yimVY3Lor45CsQCRnOCQM+goAkoA+eP20v+RX8A/wDY5D/00alQB87UAFABQAUAFABQAUAFABQAUAFABQAUAFABQAUAFABQB7P+xz/yUH4i/wDYG8O/+j9VoA+qNy+ooATen98fnQB4lof7XHwtb4iat8IvH17/AMIX4u0m8Nr9n1WRVtb1TgxS29zwhWRGRlWTY53gBTQB9L/shMrfBUspBB8ZeNCCO4/4SbUqAPaKACgAoAKACgAoAKAPKv2sf+TWPjJ/2T/xD/6bp6APVaACgAoAKACgAoAKACgAoAKACgAoAKACgAoAKACgAoAKACgAoAKACgAoAKACgAoA8q8Of8nT/EP/ALJ/4N/9OPiOgD1WgAoAKACgD8Vv+C1f/J0/hb/sn9j/AOnHUaAP1T/azVX/AGWPjIGUEf8ACAeITgjuNOnIoA+Gvir/AME9vhJ4p1q38a/DW0sfCWvWVzHeLZSWS3eiXjowby57NvlVG2hSsZC4JyjUAeyW37O3wDe3ie7+Anw5inZFMiJ4bsnVXxyAxhG4A98DPoKAJP8AhnT9nz/ohPw8/wDCXsf/AI1QB4j+1R8KPhb4F0jwLq/gj4a+FfD19N4s+zSXWlaNbWkrxHStRYxl4kUlSyKducZUHsKAPIKACgAoAKACgAoAKACgAoAKACgAoAKACgAoAKACgAoA9F/Zm+HPw98f/EHx3/wnfgTw94k+waNoP2X+19LgvPs++fU9/l+arbN2xM4xnauegoA+iP8AhnX9n3/ohXw9/wDCYsv/AI1QAv8Awzt+z9/0Qv4e/wDhMWX/AMaoA8U0P/gn38K9S+ImrfEn4k6dp12L27Mth4Y0W1XT9IsIFwsUbLEFaZwqoWYCNWYuWRs0AfZ37GenafpHwHg0rSbG3srKy8WeMbe2treJY4oYk8SakqIiKAFVVAAAGAABQB7fQAUAFABQAUAFABQB5V+1j/yax8ZP+yf+If8A03T0Aeq0AFABQAUAFABQAUAFAHy/+zJ+zJ+zbr/7Nvwo13Xf2fPhrqOpaj4H0K7vLy78J2E09zPJYQtJLJI0RZ3ZiWLEkkkk0Ael/wDDJ37LH/RtPwq/8I3Tv/jNAB/wyd+yx/0bT8Kv/CN07/4zQAf8Mnfssf8ARtPwq/8ACN07/wCM0AH/AAyd+yx/0bT8Kv8AwjdO/wDjNAB/wyd+yx/0bT8Kv/CN07/4zQAf8Mnfssf9G0/Cr/wjdO/+M0AH/DJ37LH/AEbT8Kv/AAjdO/8AjNAB/wAMnfssf9G0/Cr/AMI3Tv8A4zQAf8Mnfssf9G0/Cr/wjdO/+M0AH/DJ37LH/RtPwq/8I3Tv/jNAGT+zl4T8K+BvFHxs8LeCvDOleH9FsviBbfZtO0uyjtLWDf4Y0N32RRhUXc7sxwOWYk8k0Ae10AFABQAUAFABQAUAeVeHP+Tp/iH/ANk/8G/+nHxHQB6rQAUAFABQB+K3/Bav/k6fwt/2T+x/9OOo0Afqp+1j/wAmsfGT/sn/AIh/9N09AHCUAFABQB88ftpf8iv4B/7HIf8Apo1KgD52oAKACgAoAKACgAoAKACgAoAKACgAoAKACgAoAKACgD2f9jj/AJKD8Rf+wN4d/wDR+q0AfVNABQAUAdT+yJ/yRdv+xy8af+pNqdAHs9ABQAUAFABQAUAFAHlX7WP/ACax8ZP+yf8AiH/03T0Aeq0AFABQAUAFABQAUAFAHlX7J3/JrHwb/wCyf+Hv/TdBQB6rQB8dpYeOv2uvj38UNAf4x+PPAPgD4VX1v4b0+DwVq/8AZt1qWqND5l3PcTqrMwjLIqxfd6EjO4EAw9D/AGpPiD8EPgR+0FpfxI15fF3i/wCA2ojTdP1i8RUOqW98qf2VLchMAybpQsgHJC4yWJYgGf8AEr4cfH79nX4IRftRW37SXxE8S+N/DkFnrnivw9reqJJoGpW7vH9stILPZttNis2x05+U8ZYFQD6uvPj78KtM8TeA/BeqeJWtNd+JdrJeeGrF7Kd2vI44llfMiI0cRVGB+d1z0GaAPn1LDx1+118e/ihoD/GPx54B8AfCq+t/DenweCtX/s261LVGh8y7nuJ1VmYRlkVYvu9CRncCAY3h79qXx58D/gZ+0BpvxP13/hL/ABZ8BdSXTrHV7pFRtWt75U/sqS5CADzN0qrJjkhepOWIBRi+GXxNVLAeGf2/Lq6/aPRba/vvCms+LLc6C8xKPcWb6NEhkjhVd6h0j39+N3ygH3NbG5NtEbxYluCi+aIiSgfHzbSQCRnOMgUAS0AeVfBv/kovx2/7KBZ/+oroNAHqtABQAUAFABQAUAFAHlXhz/k6f4h/9k/8G/8Apx8R0Aeq0AFABQAUAfit/wAFq/8Ak6fwt/2T+x/9OOo0Afqp+1j/AMmsfGT/ALJ/4h/9N09AHCUAFABQB88ftpf8iv4B/wCxyH/po1KgD52oAKACgAoAKACgAoAKACgAoAKACgAoAKACgAoAKACgD2f9jj/koPxF/wCwN4d/9H6rQB9U0AFABQB1P7In/JF2/wCxy8af+pNqdAHs9ABQAUAFABQAUAFAHlX7WP8Ayax8ZP8Asn/iH/03T0Aeq0AFABQAUAFABQAUAFAHlX7J3/JrHwb/AOyf+Hv/AE3QUAeq0AfKP7JV7beFf2hP2lfhbrFxHBrc/jZfF1rbyfI9zp99bRlJY1P30UptZlyAxAOMigD5m+KXg+6+Lfwv/by+IngcvqOk63rWg21ldQDzIrkaAYpr1oiPvqBv+YEg4yOnIB9M/to/Fbwf4q/YN8R+K9G1e2vYfiBotpY6DHayCV7+7vJI1jghUcu4JbKgZAR8gbTgA+iPhj4dn8IfDbwn4Tus+douh2GnSZIJ3Q26RnkdeVoA+d/2Sr228K/tCftK/C3WLiODW5/Gy+LrW3k+R7nT762jKSxqfvopTazLkBiAcZFAHy58YfCF58V/hb+3Z8TPAry6jpOq+IfD9vZ3Fu+YLtdCMb3zIQMSIivI2QSpKKQeM0Aep/tD/Cr9lTRv2Aj8RfBWkeHbK8ttHstV8K+KrJYxq9zrRZHicXi4mluJJgwkBYtneSAU4APt/wCH1z4hvfAXhq88XRiPXZ9Is5dUQLtC3bQoZhjt85bigDfoA8q+Df8AyUX47f8AZQLP/wBRXQaAPVaACgAoAKACgAoAKAPKvDn/ACdP8Q/+yf8Ag3/04+I6APVaACgAoAKAPxW/4LV/8nT+Fv8Asn9j/wCnHUaAP1T/AGsjj9lj4yE5/wCRA8Q9v+odPQB+dnxb/wCChMkXj62+EPwk8I6ja6vd6lDpc+r69pF0XtXkdU3Raai/aZWAbIVgHJGPKbIoA+krb44+C4LeKCTS/iPO0aKjSyfDnX98hAxubbYgZPU4AHoBQBJ/wvbwT/0A/iH/AOG58Q//ACFQB4j+1R8SvDvjHSPAumaRp3iq3mi8Weezar4T1XTIio0rUVwJbu3jjZssPkDFiMkDCkgA8goAKACgAoAKACgAoAKACgAoAKACgAoAKACgAoAKACgD0X9mbx3ongn4g+O/7ZsfEVx9t0bQfL/sjw5qGq7dk+p58z7HBL5f3hjft3YbGdpwAfRH/C9vBP8A0A/iH/4bnxD/APIVAB/wvbwT/wBAP4h/+G58Q/8AyFQB8zxf8FApfh18YdY+FfxJ8NatrOkx3yrperW2j3On6msEwR4UubC5SN3cCQKXVY923cqPuGQD76/Yw1GDVvgNBqlrHcpDd+LPGE8a3NvJbyqr+JNSYB45FV0bBGVYBlOQQCCKAPcaACgAoAKACgAoAKAPKv2sf+TWPjJ/2T/xD/6bp6APVaACgAoAKACgAoAKACgDyr9k7/k1j4N/9k/8Pf8ApugoA9VoA8r+MX7LnwF+PmoWGr/Ff4eW2s6jpkTQW19FeXNlcrE2cxGa2kjd4+W+RiV+Y8cmgDtPBXw/8E/DjwlZ+BPAvhfTtE8P2EbRQafaQhIVViS2R/EWJJYnJYkkkk0AeXeFP2JP2V/BPjeL4ieGfg3pNnrdtcm8tXM9xLbWk5IPmwWskjW8DAgEGONSCOMUAd54p+DXw28afEHwn8U/E3hz7Z4o8D/af7Bv/tlxH9j+0Jsm/do4jk3KMfvFbHbFAGB8Yv2XPgL8fNQsNX+K/wAPLbWdR0yJoLa+ivLmyuVibOYjNbSRu8fLfIxK/MeOTQB2ngr4f+Cfhx4Ss/AngXwvp2ieH7CNooNPtIQkKqxJbI/iLEksTksSSSSaAPK/D/7Dv7KPhXxtD8QtB+C+j2usW139vtv39w9nbXOQRLDZtIbaJwQCGSMEEAjFAHulABQB5V8G/wDkovx2/wCygWf/AKiug0Aeq0AFABQAUAFABQAUAeVeHP8Ak6f4h/8AZP8Awb/6cfEdAHqtABQAUAFAH4rf8Fq/+Tp/C3/ZP7H/ANOOo0Afqp+1j/yax8ZP+yf+If8A03T0AeE/E/4IfDH4wWsMfjrwvBdXlmQ1lqcJMF/ZODuVobhMSJhgGxnaSBkGgDt7aKSG3ihluHuHjRVaVwoaQgcsQoABPXgAegFAElAHzx+2l/yK/gH/ALHIf+mjUqAPnagAoAKACgDy/wAc+Lde0DxreWunyXMdo+i2bz3ZHmW+mI11MklyYifnfG0AAHhct8qEEAf4s8Yaj4GspbHw9qUF7FpWmLeMLy3vNSuZyWY5knRtsKkA4dyQTnAVVBIBga1f+JpfGNzNP4hkSyGv21qbeGS7ixA2nGcIAlyqjG3khQWf5idv7ugDZs/ij4om0a81uTRd0EmiXWq2zDSbyGKzkjjMkcU00mEnDKR88ZUEqcDDA0AP1Xxx4/0pNUZ28Pyf2bokOvHFpON8blwYP9bww8tv3nTp8nPABZ174jatp+uCLT5bCeyTUbKykgGnXUkiiYoGL3SnyInHmAhDuOMZIJ2gAmbxf4kGp3Gnaq9tp6yPewxW0mnXUUm1EkaJ4rvcYZnZVVigCkAt3TBAOZ0Tx3r974Bsr2SVWWxOkWcq3Mtwt5PNK8JadnSRT5ZVyF+9vIbJwChAN/TvH/if7ZZXuqx6WdLvdW1HTBFbwSC4QW4mKSb2kKknySCu0dc55wACz4I8eeIPEeoWYv8ASJPsOqWjXcUkWlXcC2RyGSKSaUeXPuRuHj2jcpwCGBoA7+gAoAKACgD2f9jj/koPxF/7A3h3/wBH6rQB9U0AFAHAeC/gX8NfA/iXU/HOnaBHeeKtZuZbu+12/Pn3sjyElgjtxCmDtEcQRQABjigD2j9kT/ki7f8AY5eNP/Um1OgD2egAoAKACgAoAKACgDyr9rH/AJNY+Mn/AGT/AMQ/+m6egD1WgAoAKACgAoAKACgAoA8q/ZO/5NY+Df8A2T/w9/6boKAPVaACgAoAKACgAoAKACgAoAKAPKvg3/yUX47f9lAs/wD1FdBoA9VoAKACgAoAKACgAoA8q8Of8nT/ABD/AOyf+Df/AE4+I6APVaACgAoAKAPxW/4LV/8AJ0/hb/sn9j/6cdRoA/VT9rH/AJNY+Mn/AGT/AMQ/+m6egDhKACgAoA+eP20v+RX8A/8AY5D/ANNGpUAfO1ABQAUAFAFF9E0uXUZ9Vls0kubq1WymZyWV4FZmCFSduMu/bJzzQBhy/C/wTNaCxl0u4a2+zLZtD/aFzskhQsURx5mHCF22bs7OAuABgA0V8H+HVu1vxp5Nwt1FehzPIT58cHkI/Lc4j+XHQ9Tk80AVI/h34PiF0q6SxS7tprNka5mZI4Jc+ZHCpbEKnPSMKOmOgoAuXnhHw9fi6W70/wAwXunrpc/71xvtVLER8Nxy7cjnnr0oAqXfw98JX1295c6bMzvPHdFFvJ1i8+MKElEauEEgCKN4G4gYJ5NAElv4G8MWt39rhsZgQ0zpEbyZoImlDCRo4S/lxkh3GVUH5m9TQBG3w98IPDawHSD5dnbQWkKi4lGIoZBJEpw3zbXXILZPLDOGIIBcg8J+H7f7J5Nht+w3k2oQfvXOy4l3+Y/J5z5j8HIGeAMDABFpPgvw1ol+dT03TmjnCPHHunkkSBGbcyQozFYlJ/hQKOAMYFAG5QAUAFABQB7P+xx/yUH4i/8AYG8O/wDo/VaAPqmgAoAKAOp/ZE/5Iu3/AGOXjT/1JtToA9noAKACgAoAKACgAoA8q/ax/wCTWPjJ/wBk/wDEP/punoA9VoAKACgAoAKACgAoAKAPKv8Ahk79lj/o2n4Vf+Ebp3/xmgA/4ZO/ZY/6Np+FX/hG6d/8ZoAP+GTv2WP+jafhV/4Runf/ABmgA/4ZO/ZY/wCjafhV/wCEbp3/AMZoAP8Ahk79lj/o2n4Vf+Ebp3/xmgA/4ZO/ZY/6Np+FX/hG6d/8ZoAP+GTv2WP+jafhV/4Runf/ABmgA/4ZO/ZY/wCjafhV/wCEbp3/AMZoAP8Ahk79lj/o2n4Vf+Ebp3/xmgA/4ZO/ZY/6Np+FX/hG6d/8ZoAP+GTv2WP+jafhV/4Runf/ABmgDtfBXw98A/DXSpdC+HPgfw/4V02e4a7ls9E0yGxgknZVVpWjhVVLlURSxGcIo7CgDoKACgAoAKACgAoAKAPKvDn/ACdP8Q/+yf8Ag3/04+I6APVaACgAoAKAPxW/4LV/8nT+Fv8Asn9j/wCnHUaAP1U/ax/5NY+Mn/ZP/EP/AKbp6AOEoAQEEAg5B6GgBaAPnj9tL/kV/AP/AGOQ/wDTRqVAHztQAUAFABQAUAFABQAUAFABQAUAFABQAUAFABQAUAFAHs/7HH/JQfiL/wBgbw7/AOj9VoA+qaACgBAQQCDkHoaAOq/ZE/5Iu3/Y5eNP/Um1OgD2egAoAKACgAoAKACgDn/iF4K0r4leAPEvw5124u4NN8VaPe6JeS2jqs8cFzC8MjRsysocK5IJVhnGQelAHFf8Kb+Iv/R2PxV/8FvhX/5TUAH/AApv4i/9HY/FX/wW+Ff/AJTUAH/Cm/iL/wBHY/FX/wAFvhX/AOU1AB/wpv4i/wDR2PxV/wDBb4V/+U1AB/wpv4i/9HY/FX/wW+Ff/lNQAf8ACm/iL/0dj8Vf/Bb4V/8AlNQAf8Kb+Iv/AEdj8Vf/AAW+Ff8A5TUAH/Cm/iL/ANHY/FX/AMFvhX/5TUAH/Cm/iL/0dj8Vf/Bb4V/+U1AB/wAKb+Iv/R2PxV/8FvhX/wCU1AB/wpv4i/8AR2PxV/8ABb4V/wDlNQAf8Kb+Iv8A0dj8Vf8AwW+Ff/lNQAf8Kb+Iv/R2PxV/8FvhX/5TUAH/AApv4i/9HY/FX/wW+Ff/AJTUAH/Cm/iL/wBHY/FX/wAFvhX/AOU1AB/wpv4i/wDR2PxV/wDBb4V/+U1AB/wpv4i/9HY/FX/wW+Ff/lNQAf8ACm/iL/0dj8Vf/Bb4V/8AlNQAf8Kb+Iv/AEdj8Vf/AAW+Ff8A5TUAH/Cm/iL/ANHY/FX/AMFvhX/5TUAH/Cm/iL/0dj8Vf/Bb4V/+U1AB/wAKb+Iv/R2PxV/8FvhX/wCU1AB/wpv4i/8AR2PxV/8ABb4V/wDlNQAf8Kb+Iv8A0dj8Vf8AwW+Ff/lNQAf8Kb+Iv/R2PxV/8FvhX/5TUAH/AApv4i/9HY/FX/wW+Ff/AJTUAH/Cm/iL/wBHY/FX/wAFvhX/AOU1AGr8PPhJL4G8Va9411f4leK/GeteINP07S5rnXY9Nj8i1spLuSGOJLG0tk+/f3BYsGY5UZAGKAPQKACgAoAKAPxW/wCC1f8AydP4W/7J/Y/+nHUaAP1T/ayz/wAMsfGTAB/4oDxD/wCm6egD8tv2ofid+17aePdL8PfETRIvB3w1vNVt7a4utD1KaKxubV5VVhc6pHE00IKllP7pPlyfJbHIB9kW+qfHy0gjtbX4VfDiGGFBHHHH45vVVFAwFAGkYAA4AFAEn9uftB/9Ew+Hn/hd33/yooA8R/ao1H4pXmkeBYvG/g7wrpNiPFm6ObSvEtzqErS/2VqOFMcthbgLtLHdvJBAG05JAB5BQAUAFABQAUAFABQAUAFABQAUAFABQAUAFABQAUAFAHov7M198QrL4g+O/wDhA/C/h3WN+jaD9q/tfXp9N8rE+p7PL8qzuPMzl852YwuN2TtAPoj+3P2g/wDomHw8/wDC7vv/AJUUAH9uftB/9Ew+Hn/hd33/AMqKAPjLwv8AEj9rTRv2k/F/g/4I+HLXXvDlrq7LqWjHUZdQ0LS7hgrXMUV9NFbtb7ZDLiJVUKcqEk2gkA+8P2Wte/aOh+EZTQfhV8N7y0/4SzxaxlvPH99ay+cfEOoGZfLTRpRtWUuqtvy6qrFULFFAPW/+Ej/an/6I38Kv/Dl6j/8AKKgA/wCEj/an/wCiN/Cr/wAOXqP/AMoqAD/hI/2p/wDojfwq/wDDl6j/APKKgA/4SP8Aan/6I38Kv/Dl6j/8oqAD/hI/2p/+iN/Cr/w5eo//ACioAP8AhI/2p/8Aojfwq/8ADl6j/wDKKgA/4SP9qf8A6I38Kv8Aw5eo/wDyioAP+Ej/AGp/+iN/Cr/w5eo//KKgA/4SP9qf/ojfwq/8OXqP/wAoqAD/AISP9qf/AKI38Kv/AA5eo/8AyioAP+Ej/an/AOiN/Cr/AMOXqP8A8oqAD/hI/wBqf/ojfwq/8OXqP/yioAP+Ej/an/6I38Kv/Dl6j/8AKKgA/wCEj/an/wCiN/Cr/wAOXqP/AMoqAD/hI/2p/wDojfwq/wDDl6j/APKKgA/4SP8Aan/6I38Kv/Dl6j/8oqAD/hI/2p/+iN/Cr/w5eo//ACioAP8AhI/2p/8Aojfwq/8ADl6j/wDKKgA/4SP9qf8A6I38Kv8Aw5eo/wDyioAP+Ej/AGp/+iN/Cr/w5eo//KKgA/4SP9qf/ojfwq/8OXqP/wAoqAD/AISP9qf/AKI38Kv/AA5eo/8AyioAP+Ej/an/AOiN/Cr/AMOXqP8A8oqAD/hI/wBqf/ojfwq/8OXqP/yioAP+Ej/an/6I38Kv/Dl6j/8AKKgA/wCEj/an/wCiN/Cr/wAOXqP/AMoqAD/hI/2p/wDojfwq/wDDl6j/APKKgA/4SP8Aan/6I38Kv/Dl6j/8oqAD/hI/2p/+iN/Cr/w5eo//ACioAP8AhI/2p/8Aojfwq/8ADl6j/wDKKgA/4SP9qf8A6I38Kv8Aw5eo/wDyioAP+Ej/AGp/+iN/Cr/w5eo//KKgA/4SP9qf/ojfwq/8OXqP/wAoqAD/AISP9qf/AKI38Kv/AA5eo/8AyioAP+Ej/an/AOiN/Cr/AMOXqP8A8oqAD/hI/wBqf/ojfwq/8OXqP/yioAP+Ej/an/6I38Kv/Dl6j/8AKKgA/wCEj/an/wCiN/Cr/wAOXqP/AMoqAD/hI/2p/wDojfwq/wDDl6j/APKKgA/4SP8Aan/6I38Kv/Dl6j/8oqAPir9tb9gH9qf9sH4p6V8TM/Crwl/Znh+DQvsX/CU6jf8AmeXc3E3m+Z/ZcWM/adu3acbM55wAD7V/ax/5NY+Mn/ZP/EP/AKbp6APP7q1tr22ls723iuLedDHLFKgdHUjBVlPBBHY0ALbW9vZ28VpaQpDBAixxxooVUQDAUAdAAMYoAkoA+eP20v8AkV/AP/Y5D/00alQB87UAFABQAUAFABQAUAFABQAUAFABQAUAFABQAUAFABQB7P8Ascf8lB+Iv/YG8O/+j9VoA+qaACgCtp+m6dpFolhpVjb2dtHkpDBGI0Uk5OFHHJJJ9zQB2X7In/JF2/7HLxp/6k2p0Aez0AFABQAUAFABQAUAFABQAUAFABQAUAFABQAUAFABQAUAFABQAUAFABQAUAFABQAUAFABQAUAFABQAUAFABQAUAFABQAUAFAHlX7WP/JrHxk/7J/4h/8ATdPQBwlABQAUAfPH7aX/ACK/gH/sch/6aNSoA+dqACgAoAKACgAoAKACgAoAKACgAoAKACgAoAKACgAoA9n/AGOP+Sg/EX/sDeHf/R+q0AfVNABQAUAdT+yJ/wAkXb/scvGn/qTanQB7PQAUAFABQAUAFABQAUAFABQAUAFABQAUAFABQAUAFABQAUAFABQAUAFABQAUAFABQAUAFABQAUAFABQAUAFABQAUAFABQAUAeVftY/8AJrHxk/7J/wCIf/TdPQB5V4u8aeEvAOiTeI/GviTTtE0yDh7m+uFiTd2UFj8zHHCjJPYGgDWtp0ureK5jSRVmRZFWSNkcAjOGVgCp9QQCO9AElAHzx+2l/wAiv4B/7HIf+mjUqAPnagAoAKACgAoAKACgAoAKACgAoAKACgAoAKACgAoAKAPZ/wBjj/koPxF/7A3h3/0fqtAH1TQAUAYPhXx34Q8bLe/8It4gs9Ql0y5ksr+COT9/Z3CMVeKeI4eJwVI2sAeKAPR/2RP+SLt/2OXjT/1JtToA9noAKACgAoAKACgAoAKACgAoAKACgAoAKACgAoAKACgAoAKACgAoAKACgAoAKACgAoAKACgAoAKACgAoAKACgAoAKACgAoAKAPKf2shn9lj4yYJH/FAeIf8A03T0AfmX8fP2N/jxL8T9K+L+l/ETWviVp+lalBfPp909tHqtpAkqu6WscqGyk4UkJ5aqWwPKfJyAfWdt8N/Gd1bxXUX7RfxGCTIsi79O0BGwRkZVtLBU+xAI70ASf8Kw8bf9HF/EP/wB8Pf/ACroA8R/ao8HeIvD2keBb3V/iv4q8Twv4s8pbTVbbSo4kY6VqJ8wG0s4JNwAIwXK4Y5UnBAB5BQAUAFABQAUAFABQAUAFABQAUAFABQAUAFABQAUAFAHov7M3hfW/EnxB8d/2N8RvEXhX7Po2g+Z/ZEGnyfad0+p48z7Zaz427TjZt++2d3GAD6I/wCFYeNv+ji/iH/4A+Hv/lXQAf8ACsPG3/RxfxD/APAHw9/8q6APkaw/ZC+Ovj79onXvi7YfETXvBGjm+CW2t3Yt4tZ1SOJUjaUW1nHBEiSmIn94iMVZS6SEsSAfo3+xhaT2HwGgsrrUrnUZrfxZ4wiku7lY1luGXxJqQMjiNVQMxBY7VVck4AGAAD3GgAoAKACgAoAKACgAoAKACgAoAKACgAoAKACgAoAKACgAoAKACgAoAKACgAoAKACgAoAKACgAoAKACgAoAKACgAoAKACgAoA8q/ax/wCTWPjJ/wBk/wDEP/punoA4SgAoAKAPnj9tL/kV/AP/AGOQ/wDTRqVAHztQAUAFABQAUAFABQAUAFABQAUAFABQAUAFABQAUAFAHs/7HH/JQfiL/wBgbw7/AOj9VoA+qaACgAoA6n9kT/ki7f8AY5eNP/Um1OgD2egAoAKACgAoAKACgAoAKACgAoAKACgAoAKACgAoAKACgAoAKACgAoAKACgAoAKACgAoAKACgAoAKACgAoAKACgAoAKACgAoA8q/ax/5NY+Mn/ZP/EP/AKbp6AOEoAKACgDwD9sfSta1Lwj4Mn0Xw9rOr/YPFi3NzFpWmT30sUR0zUI/MMcCO+3fJGu7GAXGetAHzf8AYvFH/RNfiH/4ROr/APyNQAfYvFH/AETX4h/+ETq//wAjUAH2LxR/0TX4h/8AhE6v/wDI1AB9i8Uf9E1+If8A4ROr/wDyNQAfYvFH/RNfiH/4ROr/APyNQAfYvFH/AETX4h/+ETq//wAjUAH2LxR/0TX4h/8AhE6v/wDI1AB9i8Uf9E1+If8A4ROr/wDyNQAfYvFH/RNfiH/4ROr/APyNQAfYvFH/AETX4h/+ETq//wAjUAH2LxR/0TX4h/8AhE6v/wDI1AB9i8Uf9E1+If8A4ROr/wDyNQAfYvFH/RNfiH/4ROr/APyNQAfYvFH/AETX4h/+ETq//wAjUAH2LxR/0TX4h/8AhE6v/wDI1AB9i8Uf9E1+If8A4ROr/wDyNQAfYvFH/RNfiH/4ROr/APyNQAfYvFH/AETX4h/+ETq//wAjUAe3fse6Tr9r4x8f6rqvhXxFpFrdaZoVvbyavo11p/nSRy6k0gjFxGhfaJY8lQQN6+tAH1DQAUAFAHU/sif8kXb/ALHLxp/6k2p0Aez0AFABQAUAFABQAUAFABQAUAFABQAUAFABQAUAFABQAUAFABQAUAFABQAUAFABQAUAFABQAUAFABQAUAFABQAUAFABQAUAFAHlX7WP/JrHxk/7J/4h/wDTdPQBwlABQAUAFABQAUAFABQAUAFABQAUAFABQAUAFABQAUAFABQAUAFABQAUAFABQB1P7In/ACRdv+xy8af+pNqdAHs9ABQAUAFABQAUAFABQAUAFABQAUAFABQAUAFABQAUAFABQAUAFABQAUAFABQAUAFABQAUAFABQAUAFABQAUAFABQAUAFABQB5V+1j/wAmsfGT/sn/AIh/9N09AHCUAFABQAUAFABQAUAFABQAUAFABQAUAFABQAUAFABQAUAFABQAUAFABQAUAFAHU/sif8kXb/scvGn/AKk2p0Aez0AFABQAUAFABQAUAFABQAUAFABQAUAFABQAUAFABQAUAFABQAUAFABQAUAFABQAUAFABQAUAFABQAUAFABQAUAFABQAUAFAHlX7WP8Ayax8ZP8Asn/iH/03T0AcJQAUAFABQAUAFABQAUAFABQAUAFABQAUAFABQAUAFABQAUAFABQAUAFABQAUAdT+yJ/yRdv+xy8af+pNqdAHs9ABQAUAFABQAUAFABQAUAFABQAUAFABQAUAFABQAUAFABQAUAFABQAUAFABQAUAFABQAUAFABQAUAFABQAUAFABQAUAFABQB5V+1j/yax8ZP+yf+If/AE3T0Aflx/w9s/6t/wD/AC6//uOgA/4e2f8AVv8A/wCXX/8AcdAB/wAPbP8Aq3//AMuv/wC46AD/AIe2f9W//wDl1/8A3HQAf8PbP+rf/wDy6/8A7joAP+Htn/Vv/wD5df8A9x0AH/D2z/q3/wD8uv8A+46AD/h7Z/1b/wD+XX/9x0AH/D2z/q3/AP8ALr/+46AD/h7Z/wBW/wD/AJdf/wBx0AH/AA9s/wCrf/8Ay6//ALjoAP8Ah7Z/1b//AOXX/wDcdAB/w9s/6t//APLr/wDuOgA/4e2f9W//APl1/wD3HQAf8PbP+rf/APy6/wD7joAP+Htn/Vv/AP5df/3HQAf8PbP+rf8A/wAuv/7joAP+Htn/AFb/AP8Al1//AHHQAf8AD2z/AKt//wDLr/8AuOgA/wCHtn/Vv/8A5df/ANx0AH/D2z/q3/8A8uv/AO46AD/h7Z/1b/8A+XX/APcdAB/w9s/6t/8A/Lr/APuOgA/4e2f9W/8A/l1//cdAB/w9s/6t/wD/AC6//uOgA/4e2f8AVv8A/wCXX/8AcdAH6J/8E/vF3/Cf/sq+GvHn9n/YP+Ek1nxPq/2XzfN+z/aNf1CXy9+1d+3fjdtGcZwOlAH0TQAUAFABQAUAFABQAUAFABQAUAFABQAUAFABQAUAFABQAUAFABQAUAFABQAUAFABQAUAFABQAUAFABQAUAFABQAUAFABQAUAf//Z;rotation=0;movable=1;resizable=1;rotatable=1;deletable=1;editable=1;locked=0;connectable=1;" parent="1" vertex="1">
          <mxGeometry x="147.06" y="120" width="235.42" height="167.11" as="geometry" />
        </mxCell>
        <mxCell id="QpHx91wKqnsLslPYvwTs-1" value="" style="shape=flexArrow;endArrow=classic;html=1;rounded=0;fillColor=#dae8fc;strokeColor=#6c8ebf;strokeWidth=3;exitX=1;exitY=0.5;exitDx=0;exitDy=0;entryX=-0.014;entryY=0.392;entryDx=0;entryDy=0;entryPerimeter=0;" parent="1" source="QpHx91wKqnsLslPYvwTs-2" target="4d_4YYLaJ1jjLgdpW4iN-1" edge="1">
          <mxGeometry width="50" height="50" relative="1" as="geometry">
            <mxPoint x="307.06" y="150" as="sourcePoint" />
            <mxPoint x="540" y="150" as="targetPoint" />
          </mxGeometry>
        </mxCell>
        <mxCell id="QpHx91wKqnsLslPYvwTs-2" value="" style="ellipse;whiteSpace=wrap;html=1;fillColor=none;strokeColor=#6c8ebf;strokeWidth=5;" parent="1" vertex="1">
          <mxGeometry x="147.06" y="160" width="107.06" height="60" as="geometry" />
        </mxCell>
        <mxCell id="kpEnE-B1vE5IlFD3DoZN-2" value="" style="group" parent="1" vertex="1" connectable="0">
          <mxGeometry x="292.93" y="480" width="244.14" height="70" as="geometry" />
        </mxCell>
        <mxCell id="kpEnE-B1vE5IlFD3DoZN-1" value="Web enable,&lt;br&gt;User Interface,&lt;br&gt;Postman integration&lt;br&gt;&lt;br&gt;&lt;br&gt;&lt;br&gt;&lt;br&gt;" style="rounded=1;whiteSpace=wrap;html=1;fillColor=#f5f5f5;fontColor=#333333;strokeColor=#666666;movable=0;resizable=0;rotatable=0;deletable=0;editable=0;locked=1;connectable=0;" parent="kpEnE-B1vE5IlFD3DoZN-2" vertex="1">
          <mxGeometry x="-32.93000000000001" y="-120" width="277.07" height="190" as="geometry" />
        </mxCell>
        <mxCell id="kpEnE-B1vE5IlFD3DoZN-3" value="" style="rounded=0;whiteSpace=wrap;html=1;fillColor=none;movable=1;resizable=1;rotatable=1;deletable=1;editable=1;locked=0;connectable=1;" parent="kpEnE-B1vE5IlFD3DoZN-2" vertex="1">
          <mxGeometry x="-22.93" y="-10" width="67.5" height="45" as="geometry" />
        </mxCell>
        <mxCell id="kpEnE-B1vE5IlFD3DoZN-4" value="" style="rounded=0;whiteSpace=wrap;html=1;container=0;" parent="kpEnE-B1vE5IlFD3DoZN-2" vertex="1">
          <mxGeometry x="-18.5278260869565" y="-6.785714285714278" width="58.69565217391304" height="38.57142857142857" as="geometry" />
        </mxCell>
        <mxCell id="kpEnE-B1vE5IlFD3DoZN-5" value="" style="rounded=0;whiteSpace=wrap;html=1;container=0;" parent="kpEnE-B1vE5IlFD3DoZN-2" vertex="1">
          <mxGeometry x="4.950434782608745" y="6.071428571428555" width="5.869565217391304" as="geometry" />
        </mxCell>
        <mxCell id="kpEnE-B1vE5IlFD3DoZN-6" value="&lt;font style=&quot;font-size: 2px;&quot;&gt;12:30 15/05&lt;/font&gt;" style="rounded=0;whiteSpace=wrap;html=1;container=0;fontSize=2;" parent="kpEnE-B1vE5IlFD3DoZN-2" vertex="1">
          <mxGeometry x="-18.5278260869565" y="-6.785714285714278" width="17.608695652173914" height="6.428571428571429" as="geometry" />
        </mxCell>
        <mxCell id="kpEnE-B1vE5IlFD3DoZN-7" value="&lt;font style=&quot;font-size: 5px;&quot;&gt;Coffee ++&lt;/font&gt;" style="rounded=0;whiteSpace=wrap;html=1;container=0;fontSize=5;" parent="kpEnE-B1vE5IlFD3DoZN-2" vertex="1">
          <mxGeometry x="10.82" y="-6.7900000000000205" width="29.35" height="16.79" as="geometry" />
        </mxCell>
        <mxCell id="kpEnE-B1vE5IlFD3DoZN-8" value="&lt;span style=&quot;color: rgb(0, 0, 0); font-family: Helvetica; font-size: 5px; font-style: normal; font-variant-ligatures: normal; font-variant-caps: normal; font-weight: 400; letter-spacing: normal; orphans: 2; text-align: center; text-indent: 0px; text-transform: none; widows: 2; word-spacing: 0px; -webkit-text-stroke-width: 0px; background-color: rgb(251, 251, 251); text-decoration-thickness: initial; text-decoration-style: initial; text-decoration-color: initial; float: none; display: inline !important;&quot;&gt;Coffee --&lt;/span&gt;" style="rounded=0;whiteSpace=wrap;html=1;container=0;fontSize=5;" parent="kpEnE-B1vE5IlFD3DoZN-2" vertex="1">
          <mxGeometry x="10.82" y="18.928571428571445" width="29.34782608695652" height="12.857142857142858" as="geometry" />
        </mxCell>
        <mxCell id="EavbC-aji37pWyVxJC-W-2" value="&lt;font style=&quot;font-size: 5px;&quot;&gt;Upload&lt;/font&gt;" style="rounded=0;whiteSpace=wrap;html=1;container=0;fontSize=5;" parent="kpEnE-B1vE5IlFD3DoZN-2" vertex="1">
          <mxGeometry x="-18.530000000000022" y="15" width="29.35" height="16.79" as="geometry" />
        </mxCell>
        <mxCell id="EavbC-aji37pWyVxJC-W-1" value="" style="shape=image;verticalLabelPosition=bottom;labelBackgroundColor=default;verticalAlign=top;aspect=fixed;imageAspect=0;image=data:image/png,iVBORw0KGgoAAAANSUhEUgAAAgAAAAIABAMAAAAGVsnJAAAABGdBTUEAALGPC/xhBQAAAAFzUkdCAK7OHOkAAAAbUExURQAAAO1tP+1tP+1tP+5tP/////vXy/Wqj/GJZNfo6PcAAAAEdFJOUwB9zDZHT5BCAAARpUlEQVR42u2dYXqizBKFMWYBmLgAJ3EBJnEBgj3IAgK6AMnMAmQyC5CZLPveT42BpoEGuqur6Ol/97vzaOr41jnVrYDj/Fv/Fvgav0wmDw9zdl3+w8Pk/mVhRfEvkwdWtfxvk5dhf/I1xV/Xt/vFUKufM8nlTwanwfhJuvrzergfVPl3rMMaDAZPnco/2cEQJHiash6LvATjXuWTl2B8xxQsuhJMmKJFMxHaBl/tYOBaSn+uDyz++ClCcMc0LDoQ9M8+8fKIxMET07burcWfThvowp9KG4zmTPPCnQYjBrBcK+2PhBU+M6D1aKH9EwiDKQNcnuX1I1QAuH50CoDXj0wBA/WjUsBI/YgUeGaG1try+pFMRCNmcN1bXj+CndGYMasVGM9NC+AvbAxANGG4ZAiWwTC8YSjWo6UBYNwIzRugYSOcMjTLiBE+M0Tr0WIDMGQDeAzAkA1MGbLlWTkBGLOBMUO4FjY3AHATPDOU69HqBoDMwilWATxrEwC0CcYM8XJtbgCgJhgx1Gtm2x4AfBxaIq9fdxOMGPrl2uuAAAjcMAJrZrED6vbBJYn69X1TMmZElmuvA2r1wRFjdiMwpSOAZzkAehCYUxLAt3QG0jkNzWkJ4FsOgHoE5tQE8C0HQDUCc3oC+JYDoBaBOUUBfMsBUInAnKYAvuUAqENgTlUARQiMGNmlZlM4pSuAZzkAahCYUhbAsxwAFd8RLGkL0Ps7gjFjdiNwQ12Ama1DkKJhaMTIL9feDFSQhGM2gLWwNwP7JyHmuo4ANog2A9/fov+vt3c5EWZDs8C/SfS5fmu1QaQWmEa5tT1qtEGUFhgmUWHFR302iHIK5OqXUsAf0BSYRqW11TUNYrTAP5Fg7fT0AEYL3ETCddRigzc0GuA/F9AzCiDsgEAMwF7LKICxA5KuAHTpgeWQAGBsNYQhoAcA7UcBhEPApg6Ag+pRAGEHZDUABI3T0Jp+B9QBkEQHtT0womKB8ef/96q2BxB2QFoLQLMXrgfZAfEXHEeVPUAmA/Zf+ai0BxB2wPcGACKlOTAnYgH7/ICkcBbCeBTSBEAUKZyFlkQsoABA855gRbkDgkYAmg+GfMo74e+NAEicDcruiW9pnAVxAEhsC1eET0OTRgAkjgY9uh3AmgGQiAHJHrihIUAJAAkBZlRDkIUNALzJnY3JDYMYAdjUA7A/nZa8Nr8O2W/ENvUAnP+BhAAu0Q4oz0EFAOKzSTR/RSYVhFMKAhQBiM+DgoQAHtEQLAnARcBRVgCJILyhIAA/AxxOZ8YS35NLBOGSggD8DLA/bRZkBFiTDEFegNIQ+HoSQKYFfJIhyAtQGgLlBWgMwlsCApR3AfuTB0gJsKIYgtwg9CraBaRSg1BzEDICAhxKTBzlBWA0rw8ISwKkXE/I/lCgwQSQWkBxO7znCXg9K3Rg/U1gSkGAHe8Bh7MecgJ4NH8fn5R+FhfwFiDxa7lGE8B7iVBWh8DhREgs+VIuRQvgjsU5BPYfv+R+MttoAnivkQqiWheQ+8VsswmgrZ8/EjpW7pB6mQDmqwSjRgQOrLcJYL5ONm1EQPqlViSvkvvehMBW+qXWJC8U3kQNCLxKv5RP8zrRqAGBg/xLLUheKZ3VIxC3eCmX3BgkCD0egV2Ll1qRGYPCv+8fVT3AIdCiAypHIXS+d/p4498VPVBAIG71yjQ88A8XcJs6BF5bvbRLYQz6U4r4pAaBY6vXnhEYg/7mS/0ptMEcArt2L77G74HFKyR/NCHQDoAKF0Q798WHiiS8IrBr+/rYx6BNxdXRqRiBuPUbuLg9MEwqLowNxQgcWr/DDLcHppXnHEHU7RRIxgWnOOuPa48F2rpfnQsiHfr39QcjXRFAPAduRNeFhh+fH3WYKkFggTcEEgEAv75mgfP/6HAO1OSCWPbCmQCArEj712104t9d32aF1QM3gqPuTWnH+/fXf1cKvv3u/j4e0vNA7iY5caEpYoVv5CMNgVQAQNDl2K+1C44wNkDMueJO4Vu5KAfhpBYApT0wwxgCWT0AnUNfZhie4muA8k9hVJqAhzAEkiYA5L8Abh8D6A6BRACoFICLAQQhEEaNACgVwMUWAmkzAEoFmCELgUB4k7xEnwArZMdB/InvQaSKylHQw5WCf2QAiJg2AbA5oBiAWOl7ojoOSqUAeFX6ngtEKbiRAkCpBRRz8AaZA25r/quWHDScgoEJAAo5uMTlgGIAdorf1kOTgplcBBw1CjBH5YBiAPbK3xjLGJAamAG4HByjckAoAHI5aHQMSKQA2DKdAtzgB+AcgWp9cIViDJAD4ByBodo+WGMYAzIpAC4RmKodhTwEY0D59jhCAPaXvDxqEsDcGJDKAXDpFsVR6JsfAzZyABwudqk6CsyPAXIAXH8p+6r47RemxwBJAI6fdql6GHJNC5BIAbC72qXq7dDM8BgQSAEQX7tF+XZgZVgAOQD2125RfSBwnYSWBABIdOyH1mbnIDkADl9iqbaA6yQ0RQxA7mIR9ScCvslBMIykADh/6n90nAl+TUI4dkFCAHY5sfa6BBjjBSDOD4xH9X/FwtwcJAfAPjcwajgUvIyCJgTYtAEg0fDFYF4AEwdiqRQAh3xcHDT8GTNTg6AcAIXrJXV0wGUWvsUKQC4CtYTgpwBLpAD8LMSFjg64zMJLnADExX+r5Q/xzEzCgRiAsDoCNXWAKQESMQBZtQNq6oDLZmCOEoBD8d8yjQKgBGBX/Lc7TX+LCQHkAChEoK4OOAswxgjAvrhjinX9MQt4AaQA4CJQWwecBBihBWAT6e6A025ohA+ALQeAtg4wIIAUAFwE6jgLym0Hb9ABsOO1Og5HACkAuAjU8vug3HbwFhsAe/7QcD8cAWQA4CNQowWCC9ACgI2uqwTKBwJLXABsS0cGx8EIIAUAH4E6LRBaABkAShGo0wLPJyJTTADEfARqtUBgAcoAHEsAlCJQLwCgApQB2JUBOP/TLIKxwLMAc0QAHPgI1LcR/joTgxIgawagHIH6NsLwAoTNABxLvbJlwxGAR6AMQDkCNVsgsABhAwBxGYBY+x8Feiic1QNQjkDtAMAJcCjVVgZAoNJxKAIEMV/cjs87QQTqzkBAAZIzzCH32ab1EQgAAJAAQfHGgEIAyg6oPQPhBLj+0DesBEAQgbqHIDgBAv7ekGUAYmYGABgBkq9ICysAEEQgQAYCCRCUbg9aBUAWgQ5BUAIk+U80FAIgiEAYACAECEp3iC0BIIpAGAAgBEiKn2koAEAQgUAAAAhQuiNmtqs49EgMAAAgQGlzG/IAiCIQCgD9AgTij3XTEIEQUzCMABU3REzrIxBiGwQjAPfr198CAEQRCAaAdgESUfkFAEQRCAeAbgFyAPzIbW02DREIB4BuAa63RX8/VpwO/hRZBRwAmgUIqp4CkNVGICAAmgU4fa4/BOWEtREICADTeiwelNjnEdiKIhASAL3fCyTVT8AIayIQEgCtAmzqPsmsMgJBTsJgCKhojEPxXKDievHhCpBsPxHYiyIQFICTAMCXDAWXEsOKCAQFAPYnMtfP+4LAJQITYxFgRIDgSnkojMAdG7gACYf5JjIJwEmAJTgAeaNLjQIA/VPZq+NvxecF4ACAC1B6UHZiFoCTALfwAETxHgcARn4uH//4fUTiAGcBAC+ZSd7ei9ujjWEAgK8ZCsv/KTULAPxFU6Udo1kADFw3WIPAntkowAb828CSAKZuqRpyCJgAwMTV4+f18SvhLg8zAsD5ZmLg73p6Zix/gaARAAzcQSL8+wvsVmmyAszhqn9/q7pG1AwAoHeR+XgvXTTzhYAhAODuI3Rp+6jqlsH7gQuwicTrEwFDAMDdSyytEOATgYNRAW6NAXD9ctTUHAp1P8G0UgBT7BcEuDEHgDH3y+2GAXZDaY0AZhGAuatsHQCGEXBBbqyc1gpgFIEFxK216wEwKwDIvcXrATDaAiB3l28AYMsQCDA1CMDRpAAewCM2GgD4aTQFIZ4xgjgCQJ4y0wDAAYcAN6YA2Jqt//qgJX2jYFjfAEfDArjaH7aW4Z2Cc4OgvkkoRN0AuQcPz40AYLoBcg9cnJoAwHgD6H/maIa7AbQ/dTbE3QD6nzuc4Z2Bi2OApkEgRN4A2p89niGegXkBxtAA7DHU/zUGaJmEMuwNkBsDdORgiDwBCmOAjhzM0DdAbgzQkIMh+gbIjwEaTgQyxJvg8higPgdD7AlYTEH1Ofi9uv4dlvq/TgM05GCC9Ri0YgxQnYMBgQYopKBqARLUeyBBCirOwQB9AvIpqDgHE/QJyKeg2hwMCBgAl4JqczAhYAB8CKg8GA4oGEBxL6g2BhIKBsCnoML9YEDCAPgUVBgDCQkD4ENAXQwEJAygFALqYiBBvwUQh4CqGAhQH4LVhICqGEhIGKAgBBTtBgIaBljaCShzwYSGAQo8UI0LBhQmIMFxkLJDoYSGAQpDQIULBkQMUOiBKobhhIgBCgZhJcNwgPsQuHYQVhIDCZEAEIdAfxcMSEzA1R7Y2wUTIgFY5YF9XTCgEgBVHtjXBRNC9Qs9sKcLBlQCsNoD+7lgQql+sQf2csGAygBQ44G9dsQJlQGgYi/c1wQCUvVXWUCPHXFCqn7RXrjfueCGygB0Xn5V/Z1HoZRU/RVjUI9RaEOr/koP7OyCKa36Kz2w6yi0IVY/q66/2yiUEqvfqxHgti8ABOqvsYBuJpASq7/OArqYwIZa/XUW0MUEUmr1e7UC3PYBYE+h/loL6GAC+d+Fk6i/3gI6mEBGZQckZQEdTCAkcQQiawFdJoGMlgCrBgHaTwIhLQEaLKDdmUBYQGA7BAtodyaQHPIIxBTqXzcK0OJMIIi2BQQoCDBrFKDFwWByfWoW4p+CcGvRKIB8EAbXvs+wfxUmHYKtgjDJP1CdiABrCQFGLQC4PlCdyl7AlRDAaQNAAYHXAYSgfBAGhfDLaExCnpQAN20AyCOAfxKaSQkwbgNAHgH8k9BCSgCpIEy4HwKEFCYhuQ6QCsKg9FvYjMAktJIUYNwKgIv5hQQGAckOkNgRih6WnqEfBHzZ+pt7IBH8HCBEPwispQUYtQPgwn6GfRBwpQVo6gHxL4JC5IOAfAc0DYNBxW8is+1AOqCpB8L397c3wa+iw3goHSB1Mhh+/H3/9ZbkB2Lcc0Cb+tucDIYf/wGBfwxetxJgxAa3WnUA5BPYEGYA0OOnMHfAAHugZQcMrgfadgDsI8kRdoC5h9Ga3gnrvM8ogbMgbXfXMr1mHQQYW94BgxoFunTAoEYBt5MAwxkF/G71D6cH1h0FGFveAYMZBbyu9Q/FBmedBRiIDXavfxg2uO4hwNhqCxyIDXp96h+CDfYCYAA26Pern/6meNVTAPI2uOgpAPUkXPetnzoCbm8BaCeh179+2kmoAADSCKgAgDQCSgAgPAz5auqnOwzNFAlAFQFVAJBFQBkARBFQBwBRBBQCQBIBlQCQREApAAQRUAsAQQQUA0AOAdUAkENAOQDEEFAPALFNoatBAErnAp6O+ikhoAUAQgjoAYAQApoAIPMdwVpX/US+I/AX2gSgMQ3NHI1raq8DkvFBV6sA+BFY660fvQ/qdEASPjhztK+pvQ5IwAcXAAI4z3jrf3RA1tTmBkDdBAsgAbA2waMDtqY2NwDacWgBKADGJpg5oGtqcwOcmgDZ1wT+AlgAbFnoOuDr2dIERGkDnon6EdkAvAEgswHXMbSeLTYARN+UrB2Da2qrAeIxQlMGiMYIDddvXAHXMb6eLK/faBg+OijW0vL6jYWh5zhWK4CofiMKoKrfgALI6gdXAF39wAogrN9x7iyvH3AienSQLqCp+N5Bu0aW1/9/BbSfD/iug3qNNYeBt3CwL61h8M0hsJ4sbX/9beAvHCrrzlr89aWBf+/QWooh+LZwqC2VEJD7+BXHwcQhusZ3ltKvUgLPdWivfhJ49w791V2Cb0Mov7sEpHu/nAgPbYNvUOWfMJhIDwb+ZHDVXzR4kuiFh6FWf1kvk7t5TfEvjg1r/DKZPDzkdXh4mExeFs6/9W+Br/8B3qjcfxmAcH0AAAAASUVORK5CYII=;" parent="kpEnE-B1vE5IlFD3DoZN-2" vertex="1">
          <mxGeometry x="167.07" y="-12.600000000000023" width="72" height="72" as="geometry" />
        </mxCell>
        <mxCell id="kpEnE-B1vE5IlFD3DoZN-9" value="" style="shape=image;verticalLabelPosition=bottom;labelBackgroundColor=default;verticalAlign=top;aspect=fixed;imageAspect=0;image=data:image/png,iVBORw0KGgoAAAANSUhEUgAAALYAAACaCAYAAAAEnrJJAAAAAXNSR0IArs4c6QAAAARnQU1BAACxjwv8YQUAAAAJcEhZcwAADsMAAA7DAcdvqGQAABbTSURBVHhe7Z0JuFVjF8ffyjwWboaEEElKRIPxKqFCZCpjRabIkPEhhcwzj1CmDJnnIcRNKskQKUMUSWZlnvm+81udXbfTPfcMe+93v3vv9Xue89yx2737/M/a613vf623zv8y/PPPP4aHosSdpZZaSh51+eC///6TTypK3PG0LMLOBG35QFHijqdlFbaSKBYTtqIkDRW2kkhU2EoiUWEriUSFrSQSFbaSSFTYSiJRYSuJRIWtJBIVtpJIxN33xx9/ZD9UiuXff/81P/30k/n111/Nzz//bH777Tfzww8/mB9//NH88ssv8vm///7b/Pnnn0uYzOrWrWuWXXZZs/TSS5sVV1zRrLTSSmbllVc2q622mllhhRXkfT7PW5xqSmkst9xyKux84DlAvAh0xowZZu7cueajjz4y48ePNx9++OHCryPafG/5Hu9RnTp16ix8IPJ69erlfcv3bLjhhmaHHXYwG220kdlggw3MpptuKsL3vq4sTuqFjfiIqr///rsI+JtvvjFz5swxb775poh53LhxZt68ednvdgui+/bbb2+aNm1qtt12W7Puuuuahg0bSvTniV1mmWXkxZFGUils0gQE/Mknn5iZM2eaL7/80rzzzjvy8ezZs0XkcYQnE3FvvPHGZosttpD3mzRpIlF+jTXWMKusskr2O5NPKoRNWvDdd9+ZadOmmaqqKhHzt99+K0L++uuv5etJhDSloqJChL366qtLZK+srDQtWrQQofP1pJJYYZNiEIlfeeUV89hjj5nXX39dIjHRmtQjjbBQJU1ZfvnlzTbbbGO6desmQl977bUTl7IkRthEXS/FID++5557zMSJE6VSoeSHCkyHDh3MQQcdJGJfc801Rfxxj+axFjZRmfLaxx9/bN544w1Z6I0dO1bKbUrprLrqqmbnnXeWBWmbNm0kdWnQoEEso3lshY2YR48eLanGBx98IBUMJThYgG622WZmxx13NLvvvrt8HCdiJWzSDRaAV155pURnNkXImzO/fvY7lCChPk4+ziYRNfQTTjjBbLXVVrHYMHJe2Cz0SC0mTJhgrr32WvPqq69mv6JEAXn4qaeearbbbjspH1IrdxFnhc02NNGZVOORRx6RqobiDuTge+21l1RVqJljD3AJ54RNhCYq33rrrWb69Omyhf3XX39lv6q4BOVDFpjUxfv06WPat2/vTAR3RthUOKZOnWrOP/9889prrzm7ja3UDNv7bdu2NYMGDTItW7aMvJISubBZ/H366afmxhtvNCNGjMh+VokzRx55pDnuuOPErMXiMwoiEzYDMCdPnmwef/xxSTswICnJAedh3759zd577y0GLduVlEiEjVdj+PDh5umnn5Z6tJJcqH9TBz/mmGPEs2ILq8LGlH/33XebG264wXz++eep9WykDaI1TkPSk8MPP9yKy9CKsMmj33vvPXP22WfLxoqSXtiuv/DCC2WBGWb+Haqwichsd48aNcpcffXV2c8qijEnn3yyGK/YtqdsGDShCZsofdttt0nqwUaLnpagVAf34Oabb24OPfRQWWQGHb1DETa9gb179zZvvfWWVjuUWsE2u/XWW5vbb7/dNGrUKPtZ/wQqbExJOO4wyyTNOoohiCeBhRC3TnbYuHgsiniwQYGXmSeHt1hA+V65wJl/m7vljGUgc9kN1527GdeLbh6CAm/ZoGKBzYPvYfeV1I7vxWPOv00SXK9rrrnGdO3aVUxXfglM2O+++6656aabzEMPPSTVj7iDKClPrbXWWtJGxcXG2cbHiJe3CJ1HWNvIiBkR8xaBf/HFF+arr76SRgqCCO1ufEz5NAmpHtWS/fbbT0qD+E/84FvYRJH77rtPRE3qEVcQcvPmzU3r1q3NJptsIu1S1GA9YSNeV7pKsO8idk/Y7AXQBkcPJ5teVKDiLHQCCLuXBx98cNlBw5ewuX2eeeaZ5uGHH5YIEjdIHzDS77nnnhIhSCGIwN4gmziBkElviPCInQX7s88+a1588cVY+m5oT+vRo4e59NJLJU0plbKFTXRA1E888UT2M26DKYdbHVu9Xbp0kd0w3Gj169eXHDiJZJ5WaZ3DLcna55lnnpHFPKkiprM4gDX24osvljESpTxPJQubqPDcc8+Ziy66SGZxuA5pBLZK8mUE3a5dO+njS6qY84HI58+fbyZNmiQCJzCxLmIMhevw/J122mlyZy22LFiSsLkw5NLXXXedRAKXoYTUsWNHMcSTN6+zzjqpnYqUC9GadIU1EQ0cL730kjRDuwwp4imnnGKOPfZYSSELUbSwyaHPOussGWtQTj5ui1122UXKjQiaSgaLj7RF52IhirMI5blF2Hh4yMldBbH26tXLXHLJJQVLggWFzR/Pq5sSzPPPP5/9rDvwB7C4IF/mhcdtSyNzefBcU1G57LLLzMsvvyzFAReDWOfOnc2wYcOkcpUvaNUqbEp59Byee+65zpXyqFoQlfkjWT3ToqQEBy15VLvGjBkj6QqR3SWoYhG56Z6vqYKVV9iUj5588klzzjnnyEKDV7MrkG4gZkp1dGlQg1aCBw189tlnEr0RuUtpCpGaSglOQRaVuRrIK+wHH3zQua1xovJ5550n04riOqEojngTt7h7Dx48WBybrkAaSjHjgAMOyH5mAUsIG1fevffea/r37y8fRw2bJYh4wIAB5ogjjpC6sxIdCBzHJkOLqJJR/nUBFr4sLL1y4GLC5helZYvFQ9SuPG411J7xDtB1QcqhuAMN2HfeeaekKHhVot7wYeONWne/fv0kEC4UNtuuV111lXSLI/CooY0IUeMbcG0Yi7IAovWUKVMkbb3jjjsin2yLoKlzM6mKWrcIm0UiXS5R/3K0Dg0ZMsRsueWWUpRX3AfNMNwIDUXd+odmTjrpJDN06NAFx+E1a9Ys0uoCZ6ews4TtlXnNcRd1JlbIAyceZVPKZdUffI6ved8XZ3iumOlH5CZa8lxGBRrGnQkSsTHGsKvIJCY2ZGyBMQn/xumnny6DDuOCZx1l2DyVIxbdvM/i6vvvv5dSGXmn56fOrTqRA7Iriiio7vCEcJwGi2PvcCSujbd7GqeSJgNEWafhS7HpzcdizJ7LIYccItdu4eKRBeMDDzwgrj0bvxALQqov5NJYRl2G68FpCSyaqO1S2+d9T9gImOuHsFmvlLqYQtzkhQibhRDCppSFsLlOHIe33nrryftERJ44l6ELiLsv1QquU9hwPXABHnjggQuv30JhA9GFM1uoRIQJT86jjz4qW+DlmsnDBGEiXjYnsBLQteKlFLxl4cRbG7Cz5nnEuVa8bdWqldltt93kLseZjy4ercG1ev/998V6SlAIE6aJESA9LS0hbA9ebccff3zgkZsIxK2CW5Urt1fSBi/aYsXF7XbzzTdnvxoPmHbaqVMnqSJ5Ud+V60uQGDhwoNS/g25IIVJff/31hTdoPHi1BZlzU5fmdsof2LNnz8hLeFxsGmdpq8KXzEFMRGV6C+MMjcVYdlmA46egvY0ezah3abnD0ULIxg7XPCO57FfKp3pOnXvXzytsCDLnxhvNApGFYpSpBxf47bfflr8LJxsXmSbZUnNi10HIeNARNlUCgglpHwvTqCB1w1BFk4pf3wmRmp/D0B3uTrnUKmwgctP+xWCTcqExk8gfZRsWt0CGYLKzyjnopB1UNtIAImfzgp3co48+WkxDhfzMYUGk5tpjXmIzsFzY9ezevXveIFlQ2B7l5NyUsjBSnXHGGdbnJHMBKcERjVkMkzPHPc0ICm7h+OtxSBLVeW5sBxyemyuuuEJmiZSyKcgLkkpLbk6dS9HCJnKT/F9wwQVF5dxcMIxLRGvbmy2U38iZud3hZbBZl48TCBxx45bE11xON7gfEDTVDIRKCbUQ/L4MNj3ssMMKrtGKFjYUm3OTy3GrIa+2uTLnd/LEPH78eKmlKoWh4RlvO0Pa6d63WSMnHaSkimBraw7PrVMXoiRhQ6Gcm61Vbvts0du8vVHR4MXEqAEEnvmTsl9RioHnits8pw9QaeCtLXiuWPdgfMt33CGz/fbdd9+iCw8lC9uDyE3+7EVuFihUPDiLkYhtA15k5M2Yt/T8mmAhhcRM1LhxY2tVLKpU/J9syXtVKl5s1KmJ1KWAsOsNzsAmRSnQzcI2OJGSbWXyNKb2sCNmA8p05Px4cF3urI4r9Lgyf4RUAQ8Lj7CpqKiQ2js7vjzIqenYQdSlprR8f1kRG8i577//fsln6RC30VDLi4gDTfH/cvFd6eBIKizSsBCzYKMSYaMOTtAiSJIO0RVTTE6dS9mpiAfpAP/WxoJj1qxZUjocO3asCFyxB4LmrkxnuI1Dkth3IAUqd4fat7BtQFmoqqpKvL6zZ8/OflaJAsq4bIvvuuuuZUVSWzgtbPI73GHsMlHrVNyBFiyMV5wh46Kz0Flh4yugrMjuFCaltGx/xwXEzEIPUxu21JqG1kSJs8LG1kpzsUtzTZQlYbeSsi/Fg6gdhNVxStjULvF24AKkCUGJD+xaEoywzbogcITtxMuMOjqFeUpKKur4wZn4PHdMiyp1TyQsnIjY1KYxWLk0PssPnlWUTQdKZRjBvEUW6wXq75S06I+kbSopfnCsFGzJs/0dJU6kIvgAyNHimk/jjGvbtq3chtdff30pibGY4uJiCWUXDKF73pnM5ZYHkY3rTjmTxTKnC1Crx+nG5hMtanGEvJvZMHi/oyJSYbNzidmcon8pnlzbEGmp2SJSovBOO+1kunXrJp0piDgsByNRnNPAKHlyPArWAaZ0ca14uHLLrwnuULhAMTZFUe+OTNjchin0c/SHi5GaCMtgcTrA2WmjG5xGWaKy7aYJD8z5eMtpr8IFxwxrHhjBXExliNw0NHBuum2vdyTCJtoMGjRI/B5EbdfgECaiMnVaojJ+5aibj3PBysA5jwgbHzOLtqeeeir7VXcgWnNeI15qmw0nkQgb0xTisTWXoxh4AoguLHropmfBZ7NJwg+kJAQI7AYswtmldSlgsN6g35S1iC0iS0XCmltSCkQQRMzcbVr4bd8uw4LUDkvvyJEjZcRvlCLHHMdg9lL91H6JTNil9lAGCTky0QMjD7VXSnJRdc+HReYplVSFPQFO6OUuadsRiZ+aCax0W9keuRGZsIFIYnNWIHky1kvEXFlZKYvDNEDgoK8Q7zwuSRvPdak9ikETqbChUA9lUJBmUIWhWVWGgicsQheCCM5m0AsvvCBVCmZ7hAmFgX322cd6pPaIXNgeuT2UQUDJDkHzoqELOik5tF/IwfF1sDHG+0GWCqPKqXNxRthE7iBnBRIpyKGpdJB+xKXCYQsqKXQiMVGAKB5Eix05db5ZerZxRtgQVM7N7iAtZIyVZSCjkh/clMxhIYKz2CwXInVts/Rs45SwgcjtZz43R08zNovODtfM767CfgLmM45KoXpSDlHn1LkgbHfc4Rm4MFQt7rrrrpIahCnh7b///pLOtGzZUkVdAlwrdlm55lzDUiwDPEe07pFTuyJqj7LmioQN42+rzy2pDfwbNPqyTW9j/kVSYbfVa9JlBEIhDw85NS4+RO1a3yNrKieFzYXyfBr4IPItbph5Qb0UPwK3H8UfRF3meXDt8aHgLqwJIjULfXLqqExhtYGwncqxc6mtzs0TwEg1Ug8X2pGSBCVAmqhPPPFEM3ny5OxnF+FaTp2Lc4vHfOR6SxAzZ77bGN5SG5lLJy8+7ihcQ34/ypXcxrGT8j7H4+Fo5PsAMRDliHpUbWhOoMbO1j4VHXZIeWL4vqg3kjjxi1Rj6tSp8jGz9JiVyB3SZWIjbETheUsQ9S233BLZEXq0djGimPly5KJ0vHDbpiEAMSNqBF8qmLIQORUd1hhNmjQRkxYvXvLZqPJY/la6YbDH0ulExco1G28usRE2UOdmU4HDg3iibYJQ6U3ktoypCIsowkbUYc08QcgsjBE25zvusccepk2bNvKCth3J+dtpcGCzy4U6dSFiJWxAYLafVKIyk/cx8tOXSLrB72ET1hCkAYiKjaejjjpKorpNorj25RI7YduAJ5DWNQ6+J58cPXq0U00RwKqfA0wpczZv3lzy9bQZu2pDhV0NBE1E5iRemmdZsMYBqhOkKdSgo0hTXESFnYXFKbkzlRZEHbe52yzmOnfuLNUKRO5qGc4WKuwMrPqxzI4bN05SkLgOr/HycDrqGWsRVdXIBVItbERM/swmRNjGe9tQF+fsFhorEHvaSK2wOaUKQzx5dJDNDS7BgpIKSv/+/aU2niZSJ+zMn2rGjBkj3uFJkyZlP5tssB7gTyf3TsvCMlXCxujFjuXll19uvTM+asi3OWGtX79+qbD0pkbYbHMzSIaGXkaFpREqJ9S9WVMkvf8zFcImOnO8GnMCFSN9oAzXT/L4icQLm3o0t196KZVF0CkzfPhw581M5YKwE21kZqOCw3+UxWEMctI3cRItbKoAPXr0kIitc0UWlABHjhwpfaVJr5CkovWEjQqqIbbtri7B304bHQchpYFUCJsSFyOCafglaqUN/mYGRLrYTR4Wqdqgqa2HMskwIqF79+6pEXXiF4+58MSyzVzq3JK4wt9I4y05dVpE7ZGqiO1RvYcyjF1InHbs9jVs2FDERSrk7fjhHuT/Z14KLVeMGQujvYycOqr51FGTmp3HmvBmBQZ1FB/jiRkoz1QlGnERtSdshOUNxkTYdOQgbCyzCJv+yWnTpsmIMT8z9Dz4P6OcTx01qRY2BJFzt2rVSo776NixowiZ0QqlRkh+D7b6vYZhPC01zfMolrTl1LmkXtgeRO5S5nPjcSYyM8iRzpWgjUUYtjjXkSmoRPJify8itQvzqaNGhZ2FiFnMfG5mf3To0MH07NlTdjSZdxcmpCt0x/O7cbZjbQclkVO7Mp86alTY1Sg0n7tx48YyOKZXr17WDUTM0OMMGVq+5syZk/3sIojULs2njhoVdg5E7prmczMcE9FzOm9UxiF+N6bPUrrLXWC6PkvPNirsPHizArkuTHRF1K40x1LBoRbP4pInkN5GxK4sQoWdB6LjqFGjZOE2cOBA5zq+mX+C94VeRkYuaKReHBV2LVB+Y+OEnNU1J1zmKZM1AfP9XJxPHTUqbCWRIOxUeUWU9KDCVhKJCltJJCpsC1Bl4bQDHryvhI8KOwTojp85c6YZMWKEadeunfRbNm3aVB68z8kEjIOYMWOG1MqV4NGqSMDMmjVLvB08ONKjNvB34O1gp9P2CQVJRst9ATNx4kTxbODMK4XKykppCsBgpfhHhR0g+DiwvnK6Vqkztum4wQbLGDbSFMUfWscOiHnz5ol3esqUKWUNjuff8IJgm5yfpfhHhR0AdOHw8EtQP0fRxaNvOA2hffv2coptEHCmI00F9evXz35GKRVNRQKABWNQogZ+FufhKP5QYfuE6Bo0EyZMyL6nlIsK2wfYWhmZEDS8WMI6yjotqLB9QDWDuSBBw7yRcqoryiJU2EoiUWH7gHkinTp1yn4UHPzMoGeVpA0Vtk84CTdowviZaUOF7RN8HoxnCIoGDRrIz1T8ocL2CQ69Pn36ZD/yT+/eveVnKv7QnccAmDt3rgylLGRTLUSjRo1MVVWVTJ1Sykd3HgOCCMusbT+RltklQ4cOTfT5izZRYQcA8z26dOlS9hk3/BsGSnbt2nXhHG3FH5qKBAj9jFhXBwwYIDbUYmjRooX4sFu3bq0TnQJCGw1CgilSw4YNk2GR8+fPl75GZl4DEZnBlqQeLBT79u2r05wCRoUdMgyQpGF3+vTpMm8PKioqTLNmzWTunh6qGg4qbCWRaFVESSwqbCWRqLCVBGLM/wEYX6xZKtlSJwAAAABJRU5ErkJggg==;imageBackground=#757575;" parent="kpEnE-B1vE5IlFD3DoZN-2" vertex="1">
          <mxGeometry x="-15.770000000000039" y="-100" width="53.18" height="45" as="geometry" />
        </mxCell>
        <mxCell id="fWhhPJzGt1uJJLe1erNi-1" value="ESP32 µC" style="rounded=0;whiteSpace=wrap;html=1;" parent="1" vertex="1">
          <mxGeometry x="452" y="370" width="60" height="40" as="geometry" />
        </mxCell>
        <mxCell id="fWhhPJzGt1uJJLe1erNi-2" value="ESP32 µC" style="rounded=0;whiteSpace=wrap;html=1;" parent="1" vertex="1">
          <mxGeometry x="370" y="485" width="60" height="40" as="geometry" />
        </mxCell>
        <mxCell id="xpwUNEwgnW051Bj4pvcM-1" value="" style="endArrow=classic;html=1;rounded=0;" parent="1" edge="1">
          <mxGeometry width="50" height="50" relative="1" as="geometry">
            <mxPoint x="440" y="390" as="sourcePoint" />
            <mxPoint x="340" y="390" as="targetPoint" />
          </mxGeometry>
        </mxCell>
        <mxCell id="xpwUNEwgnW051Bj4pvcM-2" value="" style="endArrow=classic;html=1;rounded=0;exitX=0.5;exitY=1;exitDx=0;exitDy=0;" parent="1" source="fWhhPJzGt1uJJLe1erNi-1" edge="1">
          <mxGeometry width="50" height="50" relative="1" as="geometry">
            <mxPoint x="462" y="405" as="sourcePoint" />
            <mxPoint x="482" y="460" as="targetPoint" />
          </mxGeometry>
        </mxCell>
        <mxCell id="xpwUNEwgnW051Bj4pvcM-3" value="" style="endArrow=classic;html=1;rounded=0;entryX=0;entryY=0.75;entryDx=0;entryDy=0;exitX=1;exitY=0.75;exitDx=0;exitDy=0;" parent="1" source="kpEnE-B1vE5IlFD3DoZN-3" target="fWhhPJzGt1uJJLe1erNi-2" edge="1">
          <mxGeometry width="50" height="50" relative="1" as="geometry">
            <mxPoint x="362.03" y="500" as="sourcePoint" />
            <mxPoint x="356.03" y="557" as="targetPoint" />
          </mxGeometry>
        </mxCell>
        <mxCell id="xpwUNEwgnW051Bj4pvcM-4" value="" style="endArrow=classic;html=1;rounded=0;entryX=1;entryY=0.25;entryDx=0;entryDy=0;exitX=0;exitY=0.25;exitDx=0;exitDy=0;" parent="1" source="fWhhPJzGt1uJJLe1erNi-2" target="kpEnE-B1vE5IlFD3DoZN-3" edge="1">
          <mxGeometry width="50" height="50" relative="1" as="geometry">
            <mxPoint x="348" y="491" as="sourcePoint" />
            <mxPoint x="380" y="525" as="targetPoint" />
          </mxGeometry>
        </mxCell>
        <mxCell id="xpwUNEwgnW051Bj4pvcM-5" value="" style="endArrow=classic;html=1;rounded=0;" parent="1" edge="1">
          <mxGeometry width="50" height="50" relative="1" as="geometry">
            <mxPoint x="390" y="480" as="sourcePoint" />
            <mxPoint x="304" y="430" as="targetPoint" />
            <Array as="points">
              <mxPoint x="310" y="460" />
            </Array>
          </mxGeometry>
        </mxCell>
        <mxCell id="xpwUNEwgnW051Bj4pvcM-6" value="" style="endArrow=classic;html=1;rounded=0;exitX=1.029;exitY=0.64;exitDx=0;exitDy=0;entryX=0;entryY=0.5;entryDx=0;entryDy=0;exitPerimeter=0;" parent="1" source="fWhhPJzGt1uJJLe1erNi-2" target="EavbC-aji37pWyVxJC-W-1" edge="1">
          <mxGeometry width="50" height="50" relative="1" as="geometry">
            <mxPoint x="410" y="495" as="sourcePoint" />
            <mxPoint x="350" y="465" as="targetPoint" />
          </mxGeometry>
        </mxCell>
        <mxCell id="4d_4YYLaJ1jjLgdpW4iN-1" value="Vibration Sense&lt;br&gt;&lt;br&gt;&lt;br&gt;&lt;br&gt;" style="rounded=1;whiteSpace=wrap;html=1;fillColor=#f5f5f5;fontColor=#333333;strokeColor=#666666;" parent="1" vertex="1">
          <mxGeometry x="460.0000000000001" y="80" width="182.93" height="120" as="geometry" />
        </mxCell>
        <mxCell id="4d_4YYLaJ1jjLgdpW4iN-3" value="" style="verticalLabelPosition=bottom;verticalAlign=top;html=1;shape=mxgraph.basic.x;fillColor=#dae8fc;strokeColor=#6c8ebf;strokeWidth=4;rotation=0;" parent="1" vertex="1">
          <mxGeometry x="511.47" y="130" width="150" height="115" as="geometry" />
        </mxCell>
        <mxCell id="4d_4YYLaJ1jjLgdpW4iN-4" value="" style="shape=flexArrow;endArrow=classic;html=1;rounded=0;fillColor=#dae8fc;strokeColor=#6c8ebf;strokeWidth=3;" parent="1" edge="1">
          <mxGeometry width="50" height="50" relative="1" as="geometry">
            <mxPoint x="580" y="250" as="sourcePoint" />
            <mxPoint x="440" y="360" as="targetPoint" />
          </mxGeometry>
        </mxCell>
      </root>
    </mxGraphModel>
  </diagram>
  <diagram id="tQjNami1rcVNOuNn4DaU" name="Systembeskrivelse">
    <mxGraphModel dx="162" dy="543" grid="1" gridSize="10" guides="1" tooltips="1" connect="1" arrows="1" fold="1" page="1" pageScale="1" pageWidth="827" pageHeight="1169" math="0" shadow="0">
      <root>
        <mxCell id="0" />
        <mxCell id="1" parent="0" />
        <mxCell id="H1YNJdES1nhzmdvhT4rR-32" value="" style="rounded=1;whiteSpace=wrap;html=1;fillColor=#f5f5f5;fontColor=#333333;strokeColor=#666666;" parent="1" vertex="1">
          <mxGeometry x="915" y="211" width="220" height="220" as="geometry" />
        </mxCell>
        <mxCell id="H1YNJdES1nhzmdvhT4rR-20" value="Coffee Display" style="shape=umlFrame;whiteSpace=wrap;html=1;pointerEvents=0;recursiveResize=0;container=0;collapsible=0;width=160;movable=1;resizable=1;rotatable=1;deletable=1;editable=1;locked=0;connectable=1;" parent="1" vertex="1">
          <mxGeometry x="863.05" y="160" width="727.07" height="300" as="geometry" />
        </mxCell>
        <mxCell id="H1YNJdES1nhzmdvhT4rR-26" value="" style="endArrow=classic;html=1;rounded=0;" parent="1" edge="1">
          <mxGeometry width="50" height="50" relative="1" as="geometry">
            <mxPoint x="1333.18" y="355" as="sourcePoint" />
            <mxPoint x="1300" y="340" as="targetPoint" />
          </mxGeometry>
        </mxCell>
        <mxCell id="H1YNJdES1nhzmdvhT4rR-28" value="" style="endArrow=classic;html=1;rounded=0;" parent="1" edge="1">
          <mxGeometry width="50" height="50" relative="1" as="geometry">
            <mxPoint x="1300" y="320" as="sourcePoint" />
            <mxPoint x="1343.18" y="339.64" as="targetPoint" />
          </mxGeometry>
        </mxCell>
        <mxCell id="H1YNJdES1nhzmdvhT4rR-30" value="" style="endArrow=classic;html=1;rounded=0;" parent="1" edge="1">
          <mxGeometry width="50" height="50" relative="1" as="geometry">
            <mxPoint x="1120" y="360" as="sourcePoint" />
            <mxPoint x="1160" y="340" as="targetPoint" />
          </mxGeometry>
        </mxCell>
        <mxCell id="H1YNJdES1nhzmdvhT4rR-31" value="" style="endArrow=classic;html=1;rounded=0;" parent="1" edge="1">
          <mxGeometry width="50" height="50" relative="1" as="geometry">
            <mxPoint x="1153" y="317" as="sourcePoint" />
            <mxPoint x="1113" y="347" as="targetPoint" />
          </mxGeometry>
        </mxCell>
        <mxCell id="H1YNJdES1nhzmdvhT4rR-13" value="ESP32 µC" style="rounded=0;whiteSpace=wrap;html=1;movable=1;resizable=1;rotatable=1;deletable=1;editable=1;locked=0;connectable=1;" parent="1" vertex="1">
          <mxGeometry x="980" y="230" width="60" height="40" as="geometry" />
        </mxCell>
        <mxCell id="H1YNJdES1nhzmdvhT4rR-34" value="" style="shape=image;verticalLabelPosition=bottom;labelBackgroundColor=default;verticalAlign=top;aspect=fixed;imageAspect=0;image=data:image/png,iVBORw0KGgoAAAANSUhEUgAAALYAAACaCAYAAAAEnrJJAAAAAXNSR0IArs4c6QAAAARnQU1BAACxjwv8YQUAAAAJcEhZcwAADsMAAA7DAcdvqGQAABbTSURBVHhe7Z0JuFVjF8ffyjwWboaEEElKRIPxKqFCZCpjRabIkPEhhcwzj1CmDJnnIcRNKskQKUMUSWZlnvm+81udXbfTPfcMe+93v3vv9Xue89yx2737/M/a613vf623zv8y/PPPP4aHosSdpZZaSh51+eC///6TTypK3PG0LMLOBG35QFHijqdlFbaSKBYTtqIkDRW2kkhU2EoiUWEriUSFrSQSFbaSSFTYSiJRYSuJRIWtJBIVtpJIxN33xx9/ZD9UiuXff/81P/30k/n111/Nzz//bH777Tfzww8/mB9//NH88ssv8vm///7b/Pnnn0uYzOrWrWuWXXZZs/TSS5sVV1zRrLTSSmbllVc2q622mllhhRXkfT7PW5xqSmkst9xyKux84DlAvAh0xowZZu7cueajjz4y48ePNx9++OHCryPafG/5Hu9RnTp16ix8IPJ69erlfcv3bLjhhmaHHXYwG220kdlggw3MpptuKsL3vq4sTuqFjfiIqr///rsI+JtvvjFz5swxb775poh53LhxZt68ednvdgui+/bbb2+aNm1qtt12W7Puuuuahg0bSvTniV1mmWXkxZFGUils0gQE/Mknn5iZM2eaL7/80rzzzjvy8ezZs0XkcYQnE3FvvPHGZosttpD3mzRpIlF+jTXWMKusskr2O5NPKoRNWvDdd9+ZadOmmaqqKhHzt99+K0L++uuv5etJhDSloqJChL366qtLZK+srDQtWrQQofP1pJJYYZNiEIlfeeUV89hjj5nXX39dIjHRmtQjjbBQJU1ZfvnlzTbbbGO6desmQl977bUTl7IkRthEXS/FID++5557zMSJE6VSoeSHCkyHDh3MQQcdJGJfc801Rfxxj+axFjZRmfLaxx9/bN544w1Z6I0dO1bKbUrprLrqqmbnnXeWBWmbNm0kdWnQoEEso3lshY2YR48eLanGBx98IBUMJThYgG622WZmxx13NLvvvrt8HCdiJWzSDRaAV155pURnNkXImzO/fvY7lCChPk4+ziYRNfQTTjjBbLXVVrHYMHJe2Cz0SC0mTJhgrr32WvPqq69mv6JEAXn4qaeearbbbjspH1IrdxFnhc02NNGZVOORRx6RqobiDuTge+21l1RVqJljD3AJ54RNhCYq33rrrWb69Omyhf3XX39lv6q4BOVDFpjUxfv06WPat2/vTAR3RthUOKZOnWrOP/9889prrzm7ja3UDNv7bdu2NYMGDTItW7aMvJISubBZ/H366afmxhtvNCNGjMh+VokzRx55pDnuuOPErMXiMwoiEzYDMCdPnmwef/xxSTswICnJAedh3759zd577y0GLduVlEiEjVdj+PDh5umnn5Z6tJJcqH9TBz/mmGPEs2ILq8LGlH/33XebG264wXz++eep9WykDaI1TkPSk8MPP9yKy9CKsMmj33vvPXP22WfLxoqSXtiuv/DCC2WBGWb+Haqwichsd48aNcpcffXV2c8qijEnn3yyGK/YtqdsGDShCZsofdttt0nqwUaLnpagVAf34Oabb24OPfRQWWQGHb1DETa9gb179zZvvfWWVjuUWsE2u/XWW5vbb7/dNGrUKPtZ/wQqbExJOO4wyyTNOoohiCeBhRC3TnbYuHgsiniwQYGXmSeHt1hA+V65wJl/m7vljGUgc9kN1527GdeLbh6CAm/ZoGKBzYPvYfeV1I7vxWPOv00SXK9rrrnGdO3aVUxXfglM2O+++6656aabzEMPPSTVj7iDKClPrbXWWtJGxcXG2cbHiJe3CJ1HWNvIiBkR8xaBf/HFF+arr76SRgqCCO1ufEz5NAmpHtWS/fbbT0qD+E/84FvYRJH77rtPRE3qEVcQcvPmzU3r1q3NJptsIu1S1GA9YSNeV7pKsO8idk/Y7AXQBkcPJ5teVKDiLHQCCLuXBx98cNlBw5ewuX2eeeaZ5uGHH5YIEjdIHzDS77nnnhIhSCGIwN4gmziBkElviPCInQX7s88+a1588cVY+m5oT+vRo4e59NJLJU0plbKFTXRA1E888UT2M26DKYdbHVu9Xbp0kd0w3Gj169eXHDiJZJ5WaZ3DLcna55lnnpHFPKkiprM4gDX24osvljESpTxPJQubqPDcc8+Ziy66SGZxuA5pBLZK8mUE3a5dO+njS6qY84HI58+fbyZNmiQCJzCxLmIMhevw/J122mlyZy22LFiSsLkw5NLXXXedRAKXoYTUsWNHMcSTN6+zzjqpnYqUC9GadIU1EQ0cL730kjRDuwwp4imnnGKOPfZYSSELUbSwyaHPOussGWtQTj5ui1122UXKjQiaSgaLj7RF52IhirMI5blF2Hh4yMldBbH26tXLXHLJJQVLggWFzR/Pq5sSzPPPP5/9rDvwB7C4IF/mhcdtSyNzefBcU1G57LLLzMsvvyzFAReDWOfOnc2wYcOkcpUvaNUqbEp59Byee+65zpXyqFoQlfkjWT3ToqQEBy15VLvGjBkj6QqR3SWoYhG56Z6vqYKVV9iUj5588klzzjnnyEKDV7MrkG4gZkp1dGlQg1aCBw189tlnEr0RuUtpCpGaSglOQRaVuRrIK+wHH3zQua1xovJ5550n04riOqEojngTt7h7Dx48WBybrkAaSjHjgAMOyH5mAUsIG1fevffea/r37y8fRw2bJYh4wIAB5ogjjpC6sxIdCBzHJkOLqJJR/nUBFr4sLL1y4GLC5helZYvFQ9SuPG411J7xDtB1QcqhuAMN2HfeeaekKHhVot7wYeONWne/fv0kEC4UNtuuV111lXSLI/CooY0IUeMbcG0Yi7IAovWUKVMkbb3jjjsin2yLoKlzM6mKWrcIm0UiXS5R/3K0Dg0ZMsRsueWWUpRX3AfNMNwIDUXd+odmTjrpJDN06NAFx+E1a9Ys0uoCZ6ews4TtlXnNcRd1JlbIAyceZVPKZdUffI6ved8XZ3iumOlH5CZa8lxGBRrGnQkSsTHGsKvIJCY2ZGyBMQn/xumnny6DDuOCZx1l2DyVIxbdvM/i6vvvv5dSGXmn56fOrTqRA7Iriiio7vCEcJwGi2PvcCSujbd7GqeSJgNEWafhS7HpzcdizJ7LIYccItdu4eKRBeMDDzwgrj0bvxALQqov5NJYRl2G68FpCSyaqO1S2+d9T9gImOuHsFmvlLqYQtzkhQibhRDCppSFsLlOHIe33nrryftERJ44l6ELiLsv1QquU9hwPXABHnjggQuv30JhA9GFM1uoRIQJT86jjz4qW+DlmsnDBGEiXjYnsBLQteKlFLxl4cRbG7Cz5nnEuVa8bdWqldltt93kLseZjy4ercG1ev/998V6SlAIE6aJESA9LS0hbA9ebccff3zgkZsIxK2CW5Urt1fSBi/aYsXF7XbzzTdnvxoPmHbaqVMnqSJ5Ud+V60uQGDhwoNS/g25IIVJff/31hTdoPHi1BZlzU5fmdsof2LNnz8hLeFxsGmdpq8KXzEFMRGV6C+MMjcVYdlmA46egvY0ezah3abnD0ULIxg7XPCO57FfKp3pOnXvXzytsCDLnxhvNApGFYpSpBxf47bfflr8LJxsXmSbZUnNi10HIeNARNlUCgglpHwvTqCB1w1BFk4pf3wmRmp/D0B3uTrnUKmwgctP+xWCTcqExk8gfZRsWt0CGYLKzyjnopB1UNtIAImfzgp3co48+WkxDhfzMYUGk5tpjXmIzsFzY9ezevXveIFlQ2B7l5NyUsjBSnXHGGdbnJHMBKcERjVkMkzPHPc0ICm7h+OtxSBLVeW5sBxyemyuuuEJmiZSyKcgLkkpLbk6dS9HCJnKT/F9wwQVF5dxcMIxLRGvbmy2U38iZud3hZbBZl48TCBxx45bE11xON7gfEDTVDIRKCbUQ/L4MNj3ssMMKrtGKFjYUm3OTy3GrIa+2uTLnd/LEPH78eKmlKoWh4RlvO0Pa6d63WSMnHaSkimBraw7PrVMXoiRhQ6Gcm61Vbvts0du8vVHR4MXEqAEEnvmTsl9RioHnits8pw9QaeCtLXiuWPdgfMt33CGz/fbdd9+iCw8lC9uDyE3+7EVuFihUPDiLkYhtA15k5M2Yt/T8mmAhhcRM1LhxY2tVLKpU/J9syXtVKl5s1KmJ1KWAsOsNzsAmRSnQzcI2OJGSbWXyNKb2sCNmA8p05Px4cF3urI4r9Lgyf4RUAQ8Lj7CpqKiQ2js7vjzIqenYQdSlprR8f1kRG8i577//fsln6RC30VDLi4gDTfH/cvFd6eBIKizSsBCzYKMSYaMOTtAiSJIO0RVTTE6dS9mpiAfpAP/WxoJj1qxZUjocO3asCFyxB4LmrkxnuI1Dkth3IAUqd4fat7BtQFmoqqpKvL6zZ8/OflaJAsq4bIvvuuuuZUVSWzgtbPI73GHsMlHrVNyBFiyMV5wh46Kz0Flh4yugrMjuFCaltGx/xwXEzEIPUxu21JqG1kSJs8LG1kpzsUtzTZQlYbeSsi/Fg6gdhNVxStjULvF24AKkCUGJD+xaEoywzbogcITtxMuMOjqFeUpKKur4wZn4PHdMiyp1TyQsnIjY1KYxWLk0PssPnlWUTQdKZRjBvEUW6wXq75S06I+kbSopfnCsFGzJs/0dJU6kIvgAyNHimk/jjGvbtq3chtdff30pibGY4uJiCWUXDKF73pnM5ZYHkY3rTjmTxTKnC1Crx+nG5hMtanGEvJvZMHi/oyJSYbNzidmcon8pnlzbEGmp2SJSovBOO+1kunXrJp0piDgsByNRnNPAKHlyPArWAaZ0ca14uHLLrwnuULhAMTZFUe+OTNjchin0c/SHi5GaCMtgcTrA2WmjG5xGWaKy7aYJD8z5eMtpr8IFxwxrHhjBXExliNw0NHBuum2vdyTCJtoMGjRI/B5EbdfgECaiMnVaojJ+5aibj3PBysA5jwgbHzOLtqeeeir7VXcgWnNeI15qmw0nkQgb0xTisTWXoxh4AoguLHropmfBZ7NJwg+kJAQI7AYswtmldSlgsN6g35S1iC0iS0XCmltSCkQQRMzcbVr4bd8uw4LUDkvvyJEjZcRvlCLHHMdg9lL91H6JTNil9lAGCTky0QMjD7VXSnJRdc+HReYplVSFPQFO6OUuadsRiZ+aCax0W9keuRGZsIFIYnNWIHky1kvEXFlZKYvDNEDgoK8Q7zwuSRvPdak9ikETqbChUA9lUJBmUIWhWVWGgicsQheCCM5m0AsvvCBVCmZ7hAmFgX322cd6pPaIXNgeuT2UQUDJDkHzoqELOik5tF/IwfF1sDHG+0GWCqPKqXNxRthE7iBnBRIpyKGpdJB+xKXCYQsqKXQiMVGAKB5Eix05db5ZerZxRtgQVM7N7iAtZIyVZSCjkh/clMxhIYKz2CwXInVts/Rs45SwgcjtZz43R08zNovODtfM767CfgLmM45KoXpSDlHn1LkgbHfc4Rm4MFQt7rrrrpIahCnh7b///pLOtGzZUkVdAlwrdlm55lzDUiwDPEe07pFTuyJqj7LmioQN42+rzy2pDfwbNPqyTW9j/kVSYbfVa9JlBEIhDw85NS4+RO1a3yNrKieFzYXyfBr4IPItbph5Qb0UPwK3H8UfRF3meXDt8aHgLqwJIjULfXLqqExhtYGwncqxc6mtzs0TwEg1Ug8X2pGSBCVAmqhPPPFEM3ny5OxnF+FaTp2Lc4vHfOR6SxAzZ77bGN5SG5lLJy8+7ihcQ34/ypXcxrGT8j7H4+Fo5PsAMRDliHpUbWhOoMbO1j4VHXZIeWL4vqg3kjjxi1Rj6tSp8jGz9JiVyB3SZWIjbETheUsQ9S233BLZEXq0djGimPly5KJ0vHDbpiEAMSNqBF8qmLIQORUd1hhNmjQRkxYvXvLZqPJY/la6YbDH0ulExco1G28usRE2UOdmU4HDg3iibYJQ6U3ktoypCIsowkbUYc08QcgsjBE25zvusccepk2bNvKCth3J+dtpcGCzy4U6dSFiJWxAYLafVKIyk/cx8tOXSLrB72ET1hCkAYiKjaejjjpKorpNorj25RI7YduAJ5DWNQ6+J58cPXq0U00RwKqfA0wpczZv3lzy9bQZu2pDhV0NBE1E5iRemmdZsMYBqhOkKdSgo0hTXESFnYXFKbkzlRZEHbe52yzmOnfuLNUKRO5qGc4WKuwMrPqxzI4bN05SkLgOr/HycDrqGWsRVdXIBVItbERM/swmRNjGe9tQF+fsFhorEHvaSK2wOaUKQzx5dJDNDS7BgpIKSv/+/aU2niZSJ+zMn2rGjBkj3uFJkyZlP5tssB7gTyf3TsvCMlXCxujFjuXll19uvTM+asi3OWGtX79+qbD0pkbYbHMzSIaGXkaFpREqJ9S9WVMkvf8zFcImOnO8GnMCFSN9oAzXT/L4icQLm3o0t196KZVF0CkzfPhw581M5YKwE21kZqOCw3+UxWEMctI3cRItbKoAPXr0kIitc0UWlABHjhwpfaVJr5CkovWEjQqqIbbtri7B304bHQchpYFUCJsSFyOCafglaqUN/mYGRLrYTR4Wqdqgqa2HMskwIqF79+6pEXXiF4+58MSyzVzq3JK4wt9I4y05dVpE7ZGqiO1RvYcyjF1InHbs9jVs2FDERSrk7fjhHuT/Z14KLVeMGQujvYycOqr51FGTmp3HmvBmBQZ1FB/jiRkoz1QlGnERtSdshOUNxkTYdOQgbCyzCJv+yWnTpsmIMT8z9Dz4P6OcTx01qRY2BJFzt2rVSo776NixowiZ0QqlRkh+D7b6vYZhPC01zfMolrTl1LmkXtgeRO5S5nPjcSYyM8iRzpWgjUUYtjjXkSmoRPJify8itQvzqaNGhZ2FiFnMfG5mf3To0MH07NlTdjSZdxcmpCt0x/O7cbZjbQclkVO7Mp86alTY1Sg0n7tx48YyOKZXr17WDUTM0OMMGVq+5syZk/3sIojULs2njhoVdg5E7prmczMcE9FzOm9UxiF+N6bPUrrLXWC6PkvPNirsPHizArkuTHRF1K40x1LBoRbP4pInkN5GxK4sQoWdB6LjqFGjZOE2cOBA5zq+mX+C94VeRkYuaKReHBV2LVB+Y+OEnNU1J1zmKZM1AfP9XJxPHTUqbCWRIOxUeUWU9KDCVhKJCltJJCpsC1Bl4bQDHryvhI8KOwTojp85c6YZMWKEadeunfRbNm3aVB68z8kEjIOYMWOG1MqV4NGqSMDMmjVLvB08ONKjNvB34O1gp9P2CQVJRst9ATNx4kTxbODMK4XKykppCsBgpfhHhR0g+DiwvnK6Vqkztum4wQbLGDbSFMUfWscOiHnz5ol3esqUKWUNjuff8IJgm5yfpfhHhR0AdOHw8EtQP0fRxaNvOA2hffv2coptEHCmI00F9evXz35GKRVNRQKABWNQogZ+FufhKP5QYfuE6Bo0EyZMyL6nlIsK2wfYWhmZEDS8WMI6yjotqLB9QDWDuSBBw7yRcqoryiJU2EoiUWH7gHkinTp1yn4UHPzMoGeVpA0Vtk84CTdowviZaUOF7RN8HoxnCIoGDRrIz1T8ocL2CQ69Pn36ZD/yT+/eveVnKv7QnccAmDt3rgylLGRTLUSjRo1MVVWVTJ1Sykd3HgOCCMusbT+RltklQ4cOTfT5izZRYQcA8z26dOlS9hk3/BsGSnbt2nXhHG3FH5qKBAj9jFhXBwwYIDbUYmjRooX4sFu3bq0TnQJCGw1CgilSw4YNk2GR8+fPl75GZl4DEZnBlqQeLBT79u2r05wCRoUdMgyQpGF3+vTpMm8PKioqTLNmzWTunh6qGg4qbCWRaFVESSwqbCWRqLCVBGLM/wEYX6xZKtlSJwAAAABJRU5ErkJggg==;imageBackground=#757575;movable=1;resizable=1;rotatable=1;deletable=1;editable=1;locked=0;connectable=1;container=0;" parent="1" vertex="1">
          <mxGeometry x="1060" y="316" width="53.18" height="45" as="geometry" />
        </mxCell>
        <mxCell id="H1YNJdES1nhzmdvhT4rR-37" value="" style="endArrow=classic;html=1;rounded=0;movable=1;resizable=1;rotatable=1;deletable=1;editable=1;locked=0;connectable=1;exitX=0.75;exitY=1;exitDx=0;exitDy=0;" parent="1" source="H1YNJdES1nhzmdvhT4rR-13" edge="1">
          <mxGeometry width="50" height="50" relative="1" as="geometry">
            <mxPoint x="991.5" y="270" as="sourcePoint" />
            <mxPoint x="1070" y="320" as="targetPoint" />
          </mxGeometry>
        </mxCell>
        <mxCell id="H1YNJdES1nhzmdvhT4rR-38" value="" style="endArrow=classic;html=1;rounded=0;movable=1;resizable=1;rotatable=1;deletable=1;editable=1;locked=0;connectable=1;" parent="1" edge="1">
          <mxGeometry width="50" height="50" relative="1" as="geometry">
            <mxPoint x="1050" y="320" as="sourcePoint" />
            <mxPoint x="1015" y="270" as="targetPoint" />
          </mxGeometry>
        </mxCell>
        <mxCell id="H1YNJdES1nhzmdvhT4rR-42" value="" style="endArrow=classic;html=1;rounded=0;movable=1;resizable=1;rotatable=1;deletable=1;editable=1;locked=0;connectable=1;exitX=0.378;exitY=1.033;exitDx=0;exitDy=0;entryX=0.533;entryY=-0.009;entryDx=0;entryDy=0;entryPerimeter=0;exitPerimeter=0;" parent="1" source="H1YNJdES1nhzmdvhT4rR-13" target="H1YNJdES1nhzmdvhT4rR-3" edge="1">
          <mxGeometry width="50" height="50" relative="1" as="geometry">
            <mxPoint x="940" y="260" as="sourcePoint" />
            <mxPoint x="985" y="312" as="targetPoint" />
          </mxGeometry>
        </mxCell>
        <mxCell id="H1YNJdES1nhzmdvhT4rR-43" value="" style="shape=image;verticalLabelPosition=bottom;labelBackgroundColor=default;verticalAlign=top;aspect=fixed;imageAspect=0;image=data:image/png,iVBORw0KGgoAAAANSUhEUgAAAOsAAADWCAMAAAAHMIWUAAAAn1BMVEX///8QHCgAAAAAABMNGiYAABUAABAAEyEAABcAEB8PGygKGCUAABYADR0AAA0GFiMAAAYABxr19vbw8fLq6+zP0dPg4eKtsLO5u77k5eabnqLJy83CxMalqKxASE/s7e5rcHZbYWiQlZlLUllwdnsrNT+Ch4uytbc/Rk4VIi+eoaWFio4jLjlTWV+9v8KSlpoyO0R3fYImMDlscnhhaG4Iv6OXAAAKx0lEQVR4nO2dCXeiOhSAG8KOEEDBfau1brRix///294NgiBYrcVq8k6+M+cMDHQmNze5WxLm5UUgEAgEAoFAIBAIBAKBQCAQCAQCgUAgEAgEAoHgbxmHQMt/djP+GL/f28+RZtiercnRbNPpPrtFf8S4PfOwYhBLTrAsTceN+Wvw7Hbdn/7UwZqMDpimebiQie7G7We37b4MYslIBJUNXU1RbIv+kUkce/3s9t2P8EPSqJya0kAf28UgCMOg31lPIg8nPWA5q86z23gntpJBJfW80TA8fdJa7DWFwHi2pOn4OY27K92RQyXV0Xt47nFzGGMCL9jG4NEtuzsDmyrVM1+/19siVizoDen1gc36C9oSiEGUyUVH6m8J7RBp8qBG/Q1rCWyPvVpcey+cNUBYdfqINv0RQwkk0GenSvXHrW63Oy7FiDsVegXzK2yHahXvi1KF68lypTsuJvF0028WnqypsOrbo9t4JwKdilpo/Xg9w9gmspxETIbuzIu2uQ3Cmk7v8e28A/4cAghlcrxvbiNVy4LEw29Etye5tG0XugD3n9DU2rzpYJZmx9vPObZojATqlFz4hW0riTDI9jjGeyAs+eIw2fvEMiKrbEb67wqNGDRH228/w1Yr7K93c9eG0Wzh3HbtPTBluyc1+Pf4c4JMKUvYmh8gOSLubFEwR37/H7ZpyBRlr/kR/JDOXZbXw2CXNulNc6RT9xlXwsBw78JI1oxskgbgpIxZ+S3GaUYWslbpjT+DsWm5m3MzsSNDyESMzEK9wZuYs8iYqlXKErUJ3BDvm7StG8M41qJ0bDdVkzfF0tlK4vSmDQPTsr/1Jc0lCOtlEdNrA3IirmbsANTjpFFwS4EYAX9+/3IzArcrpW83XRl5XEVPexvJVno9gSmoXgyHAvA9lpbO5p2HrKh56XW2GINl0lMjHFLT+nH5/cRop91BTbHDkXXqqzAo00n3ZiPTPp2AQW9bqsbEGpKN9Br6yeMonnin4/Bw6cP8syfFh+FMUnQsfRSl7WATuZ3jD2ujx7TzHnxoyE5V01Yh5i2qdegaSdxvOMW6cEyQsT9cdhwko7O1KRZpzi2Eh4drsFJkWXi2drOCuFzM3151uD9ctuiE5cbrhAaMyLS1YGL1QtGsjzNRQVg112zgHWe4v8p7in0CBxp+cBugJFMphBEzA+VY2nGo+lEuIMwA7/2hDa4BnXHWwV324VLO601JqSLHzn3RCARMvRRY7lNrxjJDjKz5QdaFChY5j/l7SlFUZKrHCuPEPhqnjYcMbopsIFFmj0BsMs+fTOwTWZG2zPqBepo05gc7pV0JPtihJGucP5kaqKTYLE7e5F51y6ms7ct6zaPH3YlerwWV7NDOJyk1U4VIftMoyXrM30DjmUF652m+DhxkegdZAxeZuWd5+VRLsh7zNwic9O3hEpRv/3t0m39LQIsSreTShyBIzXPXUJZLsloHj9SCACIzyuB+siSJfUJTPqZlNGsppN4zraxYnGhzQLvnoH/fkJF6dbWLFXwYkI002KUpT6G8PawMYhLTp/8gudcOr9CEF3MTD1NDkwUGA9ryvKzWMq2ysE6HDmH5GBfSSCRqPaHVv6OHwcCmyiTySTq6L3udxL8EunlM7sE0aRxVEgMdITe1SFtcDAVhYpplYWlKNDO01CP7EDI3ONpOQCds5i1p20nBxUaVQUwrLh0spX2zcDgrmr5D6u2m8vUgw/P2x0cbvSyrRcbQBdk4h4xOW1b/RnYJPBkpaWhAC2dIPTrM0Cu7WKSuITBMVZlY4e2Zv5JdICe37NQ6BXTh1TlOwVHFxZJl7pTAdlkmX9tPPyE2UDJdDh1QpbNLBYJ0oIx0rFzQ6jBfZf+XRHuym+lnQ4XFo7SepFWsU16GWNJCMTdFxBSq2HzBLRFW03eJFJC+lZBx2itrh8uF9SkEDe5xs2xPJ3RzhL0HzxJU4kTUOFijELrEWvETM2WEEMLL7tFRDr4aoFrZpgF+TCpuJ0l3/S8CcQePW6eHqolIblLHuwbdCkKztWHVOiVR1odXWIg9Q7PF7PrdvgFz9CsfkcFEVzS6scBXK3FiEhSDDSbRt/tRP/dxNJ8yuqnajw0QYl5wluHryKWLym+VBAAdxrasfhcddmeOTSxiqFM2p3PXgolpRMXm+912+6DBEnRstx2prLZWeBCtu7LTseDFbEYaIbW+mla1NvOqdaLr6tLpMo7fW66sVdyDJ/O82GqP2NzZFnoa3Zk2KduUdtXt0O0Vp699RlizZIvgVX/oFN7EjDrgbkQDB29VUq3vVhKANKEPF+3BQeS2mimf2KuT111GUz5/5tBzGjg+nYnV2CmxTsESqxjbu+bp6iU67Rl2K+WvyeEcoka9gjsJq9bJe39ZS8nRLFk3+y8jo/JG3i3M7h0JYifZTatIy95x9FUzO9MYHjuA6GcUn8PyfoqhpiS5DVFcKZq+9zpJqaUibGEBRK564BPFXtga9mz83io7OWgZniLBH2kV63QDxbU/BlnMDGxYBwHVYbIaVwOJ8YWBbnsa2apuG5odwZ1bR9biQiej+MHn9t/HaPkFNmp/wdBex+Uq9RtU3c4NZPviOKGast+Cw80WKMq6mrLfolj52e2/hbFdx+0kFXR+uBgbXVes/ez230JQy+0cd1fzQXVHwS3IHptJ+3na1aD4JsXytMbVXFWWO27BMnhS7Hst68TXjA3qDWILPVuAW6hnnRDmKSoe1lMs43nsKWNUyzohro58n1nuuAV7f/2fYIZ+vdhJNthc8TiLXy+zy3fb8EBNF0u+ni3ADZzZUXATPJ34rjuIubJO9bJYJK84+qJXp144gTDjpeIi9KRhHfg58wGJXc0Jy9Xp9uqS3U2YHMWJ/rKeXjk6QJrsNa4FP6cDWjWHMEzYFR8xcdiLai1hJahMT1i/FQaD9mY61xr18tcEhc2yU/C53n3EEdJsHeOGQeq51hQGT3wPXpcaSOgZxLIqZwjrwJpxGux1Va+1R+J7rDlL0cRwJdVblLuITNg5IdBZOXewQBdg5ljleCr9raQIOYw4nb5Wr1L4Exg5Gtz5c6UCbHw+ZiHdxYNegYlgYiD9nfVlTNZQfcAAZkTWuG4K80MYmK+9mqXfH8OAHa5+c+CPeL5/DWrtS7uF58dN/UfJKltPj4d9/UFjmMTPz3Pakp1KK8tEsz29gVXHcQFHxbp9twyPiS9bBRNNSmis4tl+99obLj4H/SDoDxbD7W7kSY27OCVWiqbN5P/xOr/nyg96I6neylWCw/CpjiLhm1u7Zor4qJkC4ahmyMFauekim5p7a7naNL2tHur+ObL2dO96E2/l7+vdAE/rrwnL36908LQ5JKG1+u3CJF8fQEoI7F8GlJe+ps8qC/yrkJGz/+QhJfny0a3w9bmynF71wP5VMDcfyCzRu7nqaDB8mPsK6xuFJYSbSLhK+6ZFLvn5daY6DLSfBxUy6we5rxHGPw0XZYmnQxxn8Sc/m7TEZfRTTjfR1n+wimlbfDrWMuHHtYVM2Z2x+cmqX9C2lEsZrSExsFh1N/xXVf9OWiJ9cOxWz9HcqOq5rV5EmvOWsP4Afxi7ymnB3PLc+P9gfs8RrkceVj1DI0SzdVVZvf8/rO83+MFis58tl7PJtsNXEU0gEAgEAoFAIBAIBAKBQCAQCAQCgUAgEAgEAoGAVf4D8iyy2lO2NM4AAAAASUVORK5CYII=;" parent="1" vertex="1">
          <mxGeometry x="974.86" y="361" width="70.28" height="64" as="geometry" />
        </mxCell>
        <mxCell id="H1YNJdES1nhzmdvhT4rR-22" value="" style="shape=image;verticalLabelPosition=bottom;labelBackgroundColor=default;verticalAlign=top;aspect=fixed;imageAspect=0;image=data:image/png,iVBORw0KGgoAAAANSUhEUgAAAPMAAADQCAMAAADlEKeVAAAAflBMVEX///8CAgIAAADExMS+vr4ICAi2tra7u7ufn58MDAxJSUmMjIyxsbFxcXGDg4NUVFTc3Nzt7e329vbKysqnp6d0dHRra2vX19fa2tpRUVHz8/M3NzeXl5dZWVkuLi6JiYno6OgzMzN+fn4eHh4/Pz9hYWEXFxcmJiZFRUU9PT1lDnjJAAANqUlEQVR4nO1d64KyKhQ1asrKmS6aTmVmdn//FzwqewMmVqOgfp7WnzHwwhoQ9hUNI4PQitbHry7huI6s0CjE0jySFL3ugBI6mks55Wm32IqImU0ljO1eZxkniMnZkk5uulmaketqFymTLgKpuVnKjPEhcoaD7mDoRAfO2hUHNjLeP5nW/1mEe2TNh7dNS+K+3zTZNI3YuEgRJzL8bTXaLr2wkCT9OYVf/WZbpRl9IJ2O7mX6o9u9nMACnolEZpLHKa2joIsTMePDC6Xf1emLY0M7+mIYc5KdxI35YNQlDOaMGUxc83iYp90cQnl4alZk0oAT40Y72jKi9O82U9wt8A7dplwjY5L+/YHSe/cox+zuwO4n5TqBKcyBd7mLlNNXOIUDkxh9rwe0cMgE766A8hlSegNK1qCFIINZpGOUQfgCzn36L5BwRpm0E6BT9Yfzh/OHcxdQjvNykQOvzNdx4/kmV9eAHlOKcySZ/8dwuj2WVEa0bjmT1G3DmqgylOEss3sTkGBDIq2kKtpaWjeukW6KMpwvUmmU+EmdL69LL1/IlRWScyZoRhs41210K8M5krWdUKF9Lq+jOtpJXlkn3wSl5rCzTIi18HQJzrRusZXUfXl1cUWUW6vCeQ5sPVrm68JnF2qnmMNHJvlwpoUfzl3Ah3Mh5x4Zdwdv2oY6ZRDrvcu5a/hfcrb+h5zfmMO6hPc4E+KYXYHzWZ8/nGnhh3MX0DjnpWf5q9npcL0cg/vanTr24vVF1dAo59Byr7K1ZGdqtRc1x9n7ObLF8kFcSOCOlD8R0RDnxXQspZvhvdLU241w9s7PCTPawVDlYxENcLZvEsbyYR6XOeoejKid81zutAqmjjmTu7MGqh6NqJtzxHnxjiUX6rIKZyRXFx/eQkUPB9TLuS/wjJekG5gsduwEH5Se8SrD2lfydEStnFcC44u5AZ8denZSOPBvsIwhf+0VO6lr5BxeOYd78pLSoEoWhUixB3U9lsbmrvA/Urhc18d5wBkf0td3yNmJmNDiNF4+FHK89pVbgKiNs4n2RubB/MrYKxgWkC9AnXfell23MxShLs4/rOnfS+G+PTLLnUpfaUbRYV19Kkhk/Stq4rxiQ5QFFXzR+4b5k69iR8cD/I7/r0AN6Xo4M8oTFho1or25kpwNobbfrOBHLelaOP/guI542amwmw0joHU8dGyEpO+y0/+KOjibSFlI15oLs3MOMKObwukQtyN5/f+OGjj3sZN6K4tFUsAyXKAt0lZd8Wc42gf4dkTyK/4C/ZxDUdwkZLK3vCU+91BwDcsAMuYDf3choshaPbdPP2fsIYE3uVBJu1BRhAygQ0ByOiafz0tDO+dIbvzBv8Fkdl5F+6mfYDr9Wbm7yfbC6yUXX18/tFnOLI9aahh56lEq/E/9vH5so5zpfEsm5raQyztIrv3aR/D/+201Z8yjjpfazSgqMnS+pEuI6ySvMegfQZs5w5yNqVrGxvbPLwyeecKz6SjE6+F+1eZuvZzPeaNAjPmITVGvnMR7LxvHj/pnqdYgtHL+FdLIRYAQZnkjx5xG7nm3ntxOMSbr3dld7X1naHv0UvPxljC6KxmLtHLeFazCoC0+VRhonmpOZ4aVu1JH6+Q8Z0nkD/gmr2eiacFjo5ws/mfo5LySG0IM45De8rnk3C/QuzbVO1ojZ2jdMVexxNzyZ1gQsRECfrJLQQlo5OwUrSu/T3UqxFg+iaG9rIJSqZHzvejC4RtTGE5iEgX7TO9b3jWvjzPMsJK92PyCqS2LfZG26T3XyV5DG+cFzGC770es6BR2XeVqMmfd6HPzZ8GN76V1Sk2cl8xNU6g1PZfCnp2FN76VZK2H8+ZYXoV6H6RkBp4ezkENjHvS5bsxzmY9lBO9vDWcuW1EI2gjy5gPdHAGtan3dF6uiNW2vIKlg/OoQFRWC9wo6O/QwXmYvaK/PlCr3fx8dcPkYBkFMw+Kgu9UoNqssMjfTmhz4qIdXY32hxt1uVu3OxNGqXLGnVrvQz/nQfLyJX6mMH0NE7tHahfzWFEihH5h0S45SGSsZVpHrWCEmvL95ABZui3mvEUlKrUgJI5IkykJqUiV2G59FDTt9ODLwM2PbkyrXFLtggnabeaM+i5Ye0i45N6oWaYoURADZk2aojJ5pAdT3Lzvt/2cwQ5oTmB1cYFMMvvQnQDINzprr6BynVhjyIHltPWz1oI2cwYLkeip6+EQXbKVXKyDXR3u8jqcxNrMmU6wPS6a0Z80DAjDwbJ167TOltaxnT1azVm2XQWrleyBwTyPO4kIy61rreYM/vVs03GEjiR1yEOy+aJgQ2g3Z+PhlRRHKNthUXhvmdUHQ296vI5rjy3njG8tGaJqwO2/NhZZeMAD/jZY5J/gYM1v2nLOxhiXJ1i4tkIdODtuuHCJtkF0a8J8lokxaDtn0Do29BXN2jfmtMjDtmSsu7TIkVlB287ZSHe/TdgkW7o/+CmjpChhM0oOspET6a42iZNnnkrfon239ZyNqHelxlnzOH6M0PUvY2oRHga5reytAAJEvRtZZ2x+7dKrRlzQ0ggaSCiLnXwFHZzB6H79KUb0pO49rOlD2mInqdMeVibtTAvnqURo1ILMotcs54Kd5NRTLtXNmjjXs005kbjzm+NsLHc1+KuOJXNItfklQ7Dk3GaP2NHcg+MuV5M5i9rRSP4sEFaD0ttFavc/SxYTavDLx1xkQYNoJIE24DIoH0WjMc7gUHQhGL1eXL7OSdgAGEBtjDPAj6nk5xmQWV64mi4FwwRCc0p55yj0xw3lR+ebcUPpSfnwINAvK+QS6owPg0GYD3eiRuxy8WH4+aES7UHo5OwVdTRVA5/LUH7BY/fl5WyE1nhP0ANyg9h545Z0Cls/FmO8Z5XkMq2cvYIGQlDcYG4PLHO6j77d82y2jlfesxv9TH1nZHtFKx0szrKvYb4NvfHb0MIHxX6B1vqXYhjxw+ylAzSQVYFeznPRF5PAsyLZrhWFiM89uKaNAwV9PVWierXnY2DWSNJoezoR5eX3WSfEo1FiNAKz6SsRrlnOaD7YWbu/030gfvfRGlxxY3bdnPv81S3sxELVKXcuPShjA6uTM3glc+1nNMaH9dn9XkUJViv3vL7z9Egp+erfHNDO+cFmAv04fj4Xgc96LOn1krYREfo58x320/Zfv007xOeeCq6BF9czFvFEf8rwrjhnJ9DPGT/6lej/Plt1IMOgIDL3K6th/zruEW+i4JuXNXDmnxgWlKRfqbQCGOVk6sUV7lE0Mv6COjjjPJb5qjZYFKSa//axjjlsryo2caiFM8gSPXFfFTCWyBRKiBjinjwfKY+VfBGoHs5IOm41m3UxXCx/MgwBPHODO46RixoXWE2c4+GNXY1eSfOxNxGwQQ2qkRibEA9sRd99qotz4ngG0pe+8Oi8GQUNIbSbQ7atHJko2nqnxn2lLNZ4MvHYjfPa9U7o/0XELyrjaZajPs6G98WFk1miJgTZQUyBekQY93EkOC0U7oVYI2djeRYcOluLZcGLPThkGrJ9FhhfVX4Wp07ONDyE9TVZ4X6AXLaCjbPIeD8WT1Ww+YyAejkbG77dnaA1kYP3UCsK2FirDDVzjkWqLafT47zW5sD6ltao39W0ds6xNB3k9eICUwFRvc1ligY4G8bg9I6ZKFGzqyuOEjTCOVarohfWsaR6l/f6KEFDnGMM3GeWL7J2tH1htDnOMTxf9mHReO3e91XJmTI0yjlB2DejM36P8Dr79ofav8rXOOcG8OH84UwL/8ecB8OuYCDlTHKcdQfp1otejjMBk3r2H9E1YJfSpIIviOsBWXfzhmj874HtBkwTkwPY0Qc1eUka3L8PZn6lMUznx/3KpJ97/sfBTMx0Qpvie83c+cPJuEt9TcYTFpBp43wNJmYV+z63HZBpv2Q25opxG/8AoJsTNxoM7ldbfP37uAiiSMD5dxkY8p/+wEg9BV79FgNdxHb2502bhaZxbNClgOvWkrkRtZgeWwD+YRZmh5qzIrLX+hXARuAlOcnAT7BF2YIfhYxvk0qoeLnau93SuDMkl1mQbUG5aFJM1ACB14MMEgadVKk4CAnC3LCfkg6zJkQe7r9YkW7STmitisKQNs5E0etT+TZKbzZ54RvyLH9aAbDZ7L7KPRgg12hV5R6+pX31hdhONS6oJb1ZxU9kaIengXPbxSRbA+e2q/a2Uk8IteG0nfNIA2d9X8RWA5oeqcroQvOiNXwiWSnoLvEqIuwT0D131H1VVA8KvwZQCtQIXyHNvQ5Avrsq2wN1tpB222+maldUWO0rZQPrBiZBK7thJqa9lfglqvsFNwlsrfiJ8diKpLAEbMPbcrsNaQdLPVG5nrKtM9WlK6iDjdkIkuyaKmCZS19tE0GFCPSb4lvfmOXA1Rkk+Wc4hFmQ1bu9dtz63h4p1DtwK44OOXHPb686daEkFjztovLuAwWwhSe4mrfVfAe+YKrT9sItxYQVDRkMf8Lgwhsz1hRqn6I/5g+6VPg+XWXMJ8Kg063x7YVnTbTHfRdgGQmtWIfan8dTSJPMs0bWLTFPLtA5rDn6ASet4Lvnf4UnpIuRo+mYdcAxj/yhZFvzumVmHFuVnSvvI/PUWsMi6tm79RW0f0Iqg2EbKPMQ7Fpgt4RzraqWLOG1dsbldqcuj33jpMtLQf8BmU0cwB1Qto4AAAAASUVORK5CYII=;container=0;" parent="1" vertex="1">
          <mxGeometry x="1169.34" y="272" width="114.49" height="98" as="geometry" />
        </mxCell>
        <mxCell id="H1YNJdES1nhzmdvhT4rR-36" value="" style="group" parent="1" vertex="1" connectable="0">
          <mxGeometry x="1350" y="200" width="180" height="230" as="geometry" />
        </mxCell>
        <mxCell id="H1YNJdES1nhzmdvhT4rR-2" value="" style="rounded=1;whiteSpace=wrap;html=1;fillColor=#f5f5f5;fontColor=#333333;strokeColor=#666666;movable=1;resizable=1;rotatable=1;deletable=1;editable=1;locked=0;connectable=1;container=0;" parent="H1YNJdES1nhzmdvhT4rR-36" vertex="1">
          <mxGeometry width="180.00000000000006" height="230" as="geometry" />
        </mxCell>
        <mxCell id="H1YNJdES1nhzmdvhT4rR-12" value="ESP32s =local Webserver" style="rounded=0;whiteSpace=wrap;html=1;movable=1;resizable=1;rotatable=1;deletable=1;editable=1;locked=0;connectable=1;container=0;" parent="H1YNJdES1nhzmdvhT4rR-36" vertex="1">
          <mxGeometry x="39.63789473684211" y="23" width="92.99368421052631" height="38.92307692307692" as="geometry" />
        </mxCell>
        <mxCell id="H1YNJdES1nhzmdvhT4rR-14" value="" style="endArrow=classic;html=1;rounded=0;movable=1;resizable=1;rotatable=1;deletable=1;editable=1;locked=0;connectable=1;" parent="H1YNJdES1nhzmdvhT4rR-36" target="H1YNJdES1nhzmdvhT4rR-10" edge="1">
          <mxGeometry width="50" height="50" relative="1" as="geometry">
            <mxPoint x="66.3157894736842" y="70.76923076923077" as="sourcePoint" />
            <mxPoint x="-23.781212841854938" y="53.66666666666667" as="targetPoint" />
          </mxGeometry>
        </mxCell>
        <mxCell id="H1YNJdES1nhzmdvhT4rR-24" value="" style="endArrow=classic;html=1;rounded=0;movable=1;resizable=1;rotatable=1;deletable=1;editable=1;locked=0;connectable=1;exitX=0.75;exitY=0;exitDx=0;exitDy=0;" parent="H1YNJdES1nhzmdvhT4rR-36" source="H1YNJdES1nhzmdvhT4rR-10" edge="1">
          <mxGeometry width="50" height="50" relative="1" as="geometry">
            <mxPoint x="93.93579072532701" y="115" as="sourcePoint" />
            <mxPoint x="85.26315789473684" y="70.76923076923077" as="targetPoint" />
          </mxGeometry>
        </mxCell>
        <mxCell id="H1YNJdES1nhzmdvhT4rR-11" value="" style="shape=image;verticalLabelPosition=bottom;labelBackgroundColor=default;verticalAlign=top;aspect=fixed;imageAspect=0;image=data:image/png,iVBORw0KGgoAAAANSUhEUgAAALYAAACaCAYAAAAEnrJJAAAAAXNSR0IArs4c6QAAAARnQU1BAACxjwv8YQUAAAAJcEhZcwAADsMAAA7DAcdvqGQAABbTSURBVHhe7Z0JuFVjF8ffyjwWboaEEElKRIPxKqFCZCpjRabIkPEhhcwzj1CmDJnnIcRNKskQKUMUSWZlnvm+81udXbfTPfcMe+93v3vv9Xue89yx2737/M/a613vf623zv8y/PPPP4aHosSdpZZaSh51+eC///6TTypK3PG0LMLOBG35QFHijqdlFbaSKBYTtqIkDRW2kkhU2EoiUWEriUSFrSQSFbaSSFTYSiJRYSuJRIWtJBIVtpJIxN33xx9/ZD9UiuXff/81P/30k/n111/Nzz//bH777Tfzww8/mB9//NH88ssv8vm///7b/Pnnn0uYzOrWrWuWXXZZs/TSS5sVV1zRrLTSSmbllVc2q622mllhhRXkfT7PW5xqSmkst9xyKux84DlAvAh0xowZZu7cueajjz4y48ePNx9++OHCryPafG/5Hu9RnTp16ix8IPJ69erlfcv3bLjhhmaHHXYwG220kdlggw3MpptuKsL3vq4sTuqFjfiIqr///rsI+JtvvjFz5swxb775poh53LhxZt68ednvdgui+/bbb2+aNm1qtt12W7Puuuuahg0bSvTniV1mmWXkxZFGUils0gQE/Mknn5iZM2eaL7/80rzzzjvy8ezZs0XkcYQnE3FvvPHGZosttpD3mzRpIlF+jTXWMKusskr2O5NPKoRNWvDdd9+ZadOmmaqqKhHzt99+K0L++uuv5etJhDSloqJChL366qtLZK+srDQtWrQQofP1pJJYYZNiEIlfeeUV89hjj5nXX39dIjHRmtQjjbBQJU1ZfvnlzTbbbGO6desmQl977bUTl7IkRthEXS/FID++5557zMSJE6VSoeSHCkyHDh3MQQcdJGJfc801Rfxxj+axFjZRmfLaxx9/bN544w1Z6I0dO1bKbUrprLrqqmbnnXeWBWmbNm0kdWnQoEEso3lshY2YR48eLanGBx98IBUMJThYgG622WZmxx13NLvvvrt8HCdiJWzSDRaAV155pURnNkXImzO/fvY7lCChPk4+ziYRNfQTTjjBbLXVVrHYMHJe2Cz0SC0mTJhgrr32WvPqq69mv6JEAXn4qaeearbbbjspH1IrdxFnhc02NNGZVOORRx6RqobiDuTge+21l1RVqJljD3AJ54RNhCYq33rrrWb69Omyhf3XX39lv6q4BOVDFpjUxfv06WPat2/vTAR3RthUOKZOnWrOP/9889prrzm7ja3UDNv7bdu2NYMGDTItW7aMvJISubBZ/H366afmxhtvNCNGjMh+VokzRx55pDnuuOPErMXiMwoiEzYDMCdPnmwef/xxSTswICnJAedh3759zd577y0GLduVlEiEjVdj+PDh5umnn5Z6tJJcqH9TBz/mmGPEs2ILq8LGlH/33XebG264wXz++eep9WykDaI1TkPSk8MPP9yKy9CKsMmj33vvPXP22WfLxoqSXtiuv/DCC2WBGWb+Haqwichsd48aNcpcffXV2c8qijEnn3yyGK/YtqdsGDShCZsofdttt0nqwUaLnpagVAf34Oabb24OPfRQWWQGHb1DETa9gb179zZvvfWWVjuUWsE2u/XWW5vbb7/dNGrUKPtZ/wQqbExJOO4wyyTNOoohiCeBhRC3TnbYuHgsiniwQYGXmSeHt1hA+V65wJl/m7vljGUgc9kN1527GdeLbh6CAm/ZoGKBzYPvYfeV1I7vxWPOv00SXK9rrrnGdO3aVUxXfglM2O+++6656aabzEMPPSTVj7iDKClPrbXWWtJGxcXG2cbHiJe3CJ1HWNvIiBkR8xaBf/HFF+arr76SRgqCCO1ufEz5NAmpHtWS/fbbT0qD+E/84FvYRJH77rtPRE3qEVcQcvPmzU3r1q3NJptsIu1S1GA9YSNeV7pKsO8idk/Y7AXQBkcPJ5teVKDiLHQCCLuXBx98cNlBw5ewuX2eeeaZ5uGHH5YIEjdIHzDS77nnnhIhSCGIwN4gmziBkElviPCInQX7s88+a1588cVY+m5oT+vRo4e59NJLJU0plbKFTXRA1E888UT2M26DKYdbHVu9Xbp0kd0w3Gj169eXHDiJZJ5WaZ3DLcna55lnnpHFPKkiprM4gDX24osvljESpTxPJQubqPDcc8+Ziy66SGZxuA5pBLZK8mUE3a5dO+njS6qY84HI58+fbyZNmiQCJzCxLmIMhevw/J122mlyZy22LFiSsLkw5NLXXXedRAKXoYTUsWNHMcSTN6+zzjqpnYqUC9GadIU1EQ0cL730kjRDuwwp4imnnGKOPfZYSSELUbSwyaHPOussGWtQTj5ui1122UXKjQiaSgaLj7RF52IhirMI5blF2Hh4yMldBbH26tXLXHLJJQVLggWFzR/Pq5sSzPPPP5/9rDvwB7C4IF/mhcdtSyNzefBcU1G57LLLzMsvvyzFAReDWOfOnc2wYcOkcpUvaNUqbEp59Byee+65zpXyqFoQlfkjWT3ToqQEBy15VLvGjBkj6QqR3SWoYhG56Z6vqYKVV9iUj5588klzzjnnyEKDV7MrkG4gZkp1dGlQg1aCBw189tlnEr0RuUtpCpGaSglOQRaVuRrIK+wHH3zQua1xovJ5550n04riOqEojngTt7h7Dx48WBybrkAaSjHjgAMOyH5mAUsIG1fevffea/r37y8fRw2bJYh4wIAB5ogjjpC6sxIdCBzHJkOLqJJR/nUBFr4sLL1y4GLC5helZYvFQ9SuPG411J7xDtB1QcqhuAMN2HfeeaekKHhVot7wYeONWne/fv0kEC4UNtuuV111lXSLI/CooY0IUeMbcG0Yi7IAovWUKVMkbb3jjjsin2yLoKlzM6mKWrcIm0UiXS5R/3K0Dg0ZMsRsueWWUpRX3AfNMNwIDUXd+odmTjrpJDN06NAFx+E1a9Ys0uoCZ6ews4TtlXnNcRd1JlbIAyceZVPKZdUffI6ved8XZ3iumOlH5CZa8lxGBRrGnQkSsTHGsKvIJCY2ZGyBMQn/xumnny6DDuOCZx1l2DyVIxbdvM/i6vvvv5dSGXmn56fOrTqRA7Iriiio7vCEcJwGi2PvcCSujbd7GqeSJgNEWafhS7HpzcdizJ7LIYccItdu4eKRBeMDDzwgrj0bvxALQqov5NJYRl2G68FpCSyaqO1S2+d9T9gImOuHsFmvlLqYQtzkhQibhRDCppSFsLlOHIe33nrryftERJ44l6ELiLsv1QquU9hwPXABHnjggQuv30JhA9GFM1uoRIQJT86jjz4qW+DlmsnDBGEiXjYnsBLQteKlFLxl4cRbG7Cz5nnEuVa8bdWqldltt93kLseZjy4ercG1ev/998V6SlAIE6aJESA9LS0hbA9ebccff3zgkZsIxK2CW5Urt1fSBi/aYsXF7XbzzTdnvxoPmHbaqVMnqSJ5Ud+V60uQGDhwoNS/g25IIVJff/31hTdoPHi1BZlzU5fmdsof2LNnz8hLeFxsGmdpq8KXzEFMRGV6C+MMjcVYdlmA46egvY0ezah3abnD0ULIxg7XPCO57FfKp3pOnXvXzytsCDLnxhvNApGFYpSpBxf47bfflr8LJxsXmSbZUnNi10HIeNARNlUCgglpHwvTqCB1w1BFk4pf3wmRmp/D0B3uTrnUKmwgctP+xWCTcqExk8gfZRsWt0CGYLKzyjnopB1UNtIAImfzgp3co48+WkxDhfzMYUGk5tpjXmIzsFzY9ezevXveIFlQ2B7l5NyUsjBSnXHGGdbnJHMBKcERjVkMkzPHPc0ICm7h+OtxSBLVeW5sBxyemyuuuEJmiZSyKcgLkkpLbk6dS9HCJnKT/F9wwQVF5dxcMIxLRGvbmy2U38iZud3hZbBZl48TCBxx45bE11xON7gfEDTVDIRKCbUQ/L4MNj3ssMMKrtGKFjYUm3OTy3GrIa+2uTLnd/LEPH78eKmlKoWh4RlvO0Pa6d63WSMnHaSkimBraw7PrVMXoiRhQ6Gcm61Vbvts0du8vVHR4MXEqAEEnvmTsl9RioHnits8pw9QaeCtLXiuWPdgfMt33CGz/fbdd9+iCw8lC9uDyE3+7EVuFihUPDiLkYhtA15k5M2Yt/T8mmAhhcRM1LhxY2tVLKpU/J9syXtVKl5s1KmJ1KWAsOsNzsAmRSnQzcI2OJGSbWXyNKb2sCNmA8p05Px4cF3urI4r9Lgyf4RUAQ8Lj7CpqKiQ2js7vjzIqenYQdSlprR8f1kRG8i577//fsln6RC30VDLi4gDTfH/cvFd6eBIKizSsBCzYKMSYaMOTtAiSJIO0RVTTE6dS9mpiAfpAP/WxoJj1qxZUjocO3asCFyxB4LmrkxnuI1Dkth3IAUqd4fat7BtQFmoqqpKvL6zZ8/OflaJAsq4bIvvuuuuZUVSWzgtbPI73GHsMlHrVNyBFiyMV5wh46Kz0Flh4yugrMjuFCaltGx/xwXEzEIPUxu21JqG1kSJs8LG1kpzsUtzTZQlYbeSsi/Fg6gdhNVxStjULvF24AKkCUGJD+xaEoywzbogcITtxMuMOjqFeUpKKur4wZn4PHdMiyp1TyQsnIjY1KYxWLk0PssPnlWUTQdKZRjBvEUW6wXq75S06I+kbSopfnCsFGzJs/0dJU6kIvgAyNHimk/jjGvbtq3chtdff30pibGY4uJiCWUXDKF73pnM5ZYHkY3rTjmTxTKnC1Crx+nG5hMtanGEvJvZMHi/oyJSYbNzidmcon8pnlzbEGmp2SJSovBOO+1kunXrJp0piDgsByNRnNPAKHlyPArWAaZ0ca14uHLLrwnuULhAMTZFUe+OTNjchin0c/SHi5GaCMtgcTrA2WmjG5xGWaKy7aYJD8z5eMtpr8IFxwxrHhjBXExliNw0NHBuum2vdyTCJtoMGjRI/B5EbdfgECaiMnVaojJ+5aibj3PBysA5jwgbHzOLtqeeeir7VXcgWnNeI15qmw0nkQgb0xTisTWXoxh4AoguLHropmfBZ7NJwg+kJAQI7AYswtmldSlgsN6g35S1iC0iS0XCmltSCkQQRMzcbVr4bd8uw4LUDkvvyJEjZcRvlCLHHMdg9lL91H6JTNil9lAGCTky0QMjD7VXSnJRdc+HReYplVSFPQFO6OUuadsRiZ+aCax0W9keuRGZsIFIYnNWIHky1kvEXFlZKYvDNEDgoK8Q7zwuSRvPdak9ikETqbChUA9lUJBmUIWhWVWGgicsQheCCM5m0AsvvCBVCmZ7hAmFgX322cd6pPaIXNgeuT2UQUDJDkHzoqELOik5tF/IwfF1sDHG+0GWCqPKqXNxRthE7iBnBRIpyKGpdJB+xKXCYQsqKXQiMVGAKB5Eix05db5ZerZxRtgQVM7N7iAtZIyVZSCjkh/clMxhIYKz2CwXInVts/Rs45SwgcjtZz43R08zNovODtfM767CfgLmM45KoXpSDlHn1LkgbHfc4Rm4MFQt7rrrrpIahCnh7b///pLOtGzZUkVdAlwrdlm55lzDUiwDPEe07pFTuyJqj7LmioQN42+rzy2pDfwbNPqyTW9j/kVSYbfVa9JlBEIhDw85NS4+RO1a3yNrKieFzYXyfBr4IPItbph5Qb0UPwK3H8UfRF3meXDt8aHgLqwJIjULfXLqqExhtYGwncqxc6mtzs0TwEg1Ug8X2pGSBCVAmqhPPPFEM3ny5OxnF+FaTp2Lc4vHfOR6SxAzZ77bGN5SG5lLJy8+7ihcQ34/ypXcxrGT8j7H4+Fo5PsAMRDliHpUbWhOoMbO1j4VHXZIeWL4vqg3kjjxi1Rj6tSp8jGz9JiVyB3SZWIjbETheUsQ9S233BLZEXq0djGimPly5KJ0vHDbpiEAMSNqBF8qmLIQORUd1hhNmjQRkxYvXvLZqPJY/la6YbDH0ulExco1G28usRE2UOdmU4HDg3iibYJQ6U3ktoypCIsowkbUYc08QcgsjBE25zvusccepk2bNvKCth3J+dtpcGCzy4U6dSFiJWxAYLafVKIyk/cx8tOXSLrB72ET1hCkAYiKjaejjjpKorpNorj25RI7YduAJ5DWNQ6+J58cPXq0U00RwKqfA0wpczZv3lzy9bQZu2pDhV0NBE1E5iRemmdZsMYBqhOkKdSgo0hTXESFnYXFKbkzlRZEHbe52yzmOnfuLNUKRO5qGc4WKuwMrPqxzI4bN05SkLgOr/HycDrqGWsRVdXIBVItbERM/swmRNjGe9tQF+fsFhorEHvaSK2wOaUKQzx5dJDNDS7BgpIKSv/+/aU2niZSJ+zMn2rGjBkj3uFJkyZlP5tssB7gTyf3TsvCMlXCxujFjuXll19uvTM+asi3OWGtX79+qbD0pkbYbHMzSIaGXkaFpREqJ9S9WVMkvf8zFcImOnO8GnMCFSN9oAzXT/L4icQLm3o0t196KZVF0CkzfPhw581M5YKwE21kZqOCw3+UxWEMctI3cRItbKoAPXr0kIitc0UWlABHjhwpfaVJr5CkovWEjQqqIbbtri7B304bHQchpYFUCJsSFyOCafglaqUN/mYGRLrYTR4Wqdqgqa2HMskwIqF79+6pEXXiF4+58MSyzVzq3JK4wt9I4y05dVpE7ZGqiO1RvYcyjF1InHbs9jVs2FDERSrk7fjhHuT/Z14KLVeMGQujvYycOqr51FGTmp3HmvBmBQZ1FB/jiRkoz1QlGnERtSdshOUNxkTYdOQgbCyzCJv+yWnTpsmIMT8z9Dz4P6OcTx01qRY2BJFzt2rVSo776NixowiZ0QqlRkh+D7b6vYZhPC01zfMolrTl1LmkXtgeRO5S5nPjcSYyM8iRzpWgjUUYtjjXkSmoRPJify8itQvzqaNGhZ2FiFnMfG5mf3To0MH07NlTdjSZdxcmpCt0x/O7cbZjbQclkVO7Mp86alTY1Sg0n7tx48YyOKZXr17WDUTM0OMMGVq+5syZk/3sIojULs2njhoVdg5E7prmczMcE9FzOm9UxiF+N6bPUrrLXWC6PkvPNirsPHizArkuTHRF1K40x1LBoRbP4pInkN5GxK4sQoWdB6LjqFGjZOE2cOBA5zq+mX+C94VeRkYuaKReHBV2LVB+Y+OEnNU1J1zmKZM1AfP9XJxPHTUqbCWRIOxUeUWU9KDCVhKJCltJJCpsC1Bl4bQDHryvhI8KOwTojp85c6YZMWKEadeunfRbNm3aVB68z8kEjIOYMWOG1MqV4NGqSMDMmjVLvB08ONKjNvB34O1gp9P2CQVJRst9ATNx4kTxbODMK4XKykppCsBgpfhHhR0g+DiwvnK6Vqkztum4wQbLGDbSFMUfWscOiHnz5ol3esqUKWUNjuff8IJgm5yfpfhHhR0AdOHw8EtQP0fRxaNvOA2hffv2coptEHCmI00F9evXz35GKRVNRQKABWNQogZ+FufhKP5QYfuE6Bo0EyZMyL6nlIsK2wfYWhmZEDS8WMI6yjotqLB9QDWDuSBBw7yRcqoryiJU2EoiUWH7gHkinTp1yn4UHPzMoGeVpA0Vtk84CTdowviZaUOF7RN8HoxnCIoGDRrIz1T8ocL2CQ69Pn36ZD/yT+/eveVnKv7QnccAmDt3rgylLGRTLUSjRo1MVVWVTJ1Sykd3HgOCCMusbT+RltklQ4cOTfT5izZRYQcA8z26dOlS9hk3/BsGSnbt2nXhHG3FH5qKBAj9jFhXBwwYIDbUYmjRooX4sFu3bq0TnQJCGw1CgilSw4YNk2GR8+fPl75GZl4DEZnBlqQeLBT79u2r05wCRoUdMgyQpGF3+vTpMm8PKioqTLNmzWTunh6qGg4qbCWRaFVESSwqbCWRqLCVBGLM/wEYX6xZKtlSJwAAAABJRU5ErkJggg==;imageBackground=#757575;movable=1;resizable=1;rotatable=1;deletable=1;editable=1;locked=0;connectable=1;container=0;" parent="H1YNJdES1nhzmdvhT4rR-36" vertex="1">
          <mxGeometry x="70" y="153.33" width="49.52" height="41.9" as="geometry" />
        </mxCell>
        <mxCell id="H1YNJdES1nhzmdvhT4rR-10" value="" style="shape=image;verticalLabelPosition=bottom;labelBackgroundColor=default;verticalAlign=top;aspect=fixed;imageAspect=0;image=data:image/png,iVBORw0KGgoAAAANSUhEUgAAAgAAAAIABAMAAAAGVsnJAAAABGdBTUEAALGPC/xhBQAAAAFzUkdCAK7OHOkAAAAbUExURQAAAO1tP+1tP+1tP+5tP/////vXy/Wqj/GJZNfo6PcAAAAEdFJOUwB9zDZHT5BCAAARpUlEQVR42u2dYXqizBKFMWYBmLgAJ3EBJnEBgj3IAgK6AMnMAmQyC5CZLPveT42BpoEGuqur6Ol/97vzaOr41jnVrYDj/Fv/Fvgav0wmDw9zdl3+w8Pk/mVhRfEvkwdWtfxvk5dhf/I1xV/Xt/vFUKufM8nlTwanwfhJuvrzergfVPl3rMMaDAZPnco/2cEQJHiash6LvATjXuWTl2B8xxQsuhJMmKJFMxHaBl/tYOBaSn+uDyz++ClCcMc0LDoQ9M8+8fKIxMET07burcWfThvowp9KG4zmTPPCnQYjBrBcK+2PhBU+M6D1aKH9EwiDKQNcnuX1I1QAuH50CoDXj0wBA/WjUsBI/YgUeGaG1try+pFMRCNmcN1bXj+CndGYMasVGM9NC+AvbAxANGG4ZAiWwTC8YSjWo6UBYNwIzRugYSOcMjTLiBE+M0Tr0WIDMGQDeAzAkA1MGbLlWTkBGLOBMUO4FjY3AHATPDOU69HqBoDMwilWATxrEwC0CcYM8XJtbgCgJhgx1Gtm2x4AfBxaIq9fdxOMGPrl2uuAAAjcMAJrZrED6vbBJYn69X1TMmZElmuvA2r1wRFjdiMwpSOAZzkAehCYUxLAt3QG0jkNzWkJ4FsOgHoE5tQE8C0HQDUCc3oC+JYDoBaBOUUBfMsBUInAnKYAvuUAqENgTlUARQiMGNmlZlM4pSuAZzkAahCYUhbAsxwAFd8RLGkL0Ps7gjFjdiNwQ12Ama1DkKJhaMTIL9feDFSQhGM2gLWwNwP7JyHmuo4ANog2A9/fov+vt3c5EWZDs8C/SfS5fmu1QaQWmEa5tT1qtEGUFhgmUWHFR302iHIK5OqXUsAf0BSYRqW11TUNYrTAP5Fg7fT0AEYL3ETCddRigzc0GuA/F9AzCiDsgEAMwF7LKICxA5KuAHTpgeWQAGBsNYQhoAcA7UcBhEPApg6Ag+pRAGEHZDUABI3T0Jp+B9QBkEQHtT0womKB8ef/96q2BxB2QFoLQLMXrgfZAfEXHEeVPUAmA/Zf+ai0BxB2wPcGACKlOTAnYgH7/ICkcBbCeBTSBEAUKZyFlkQsoABA855gRbkDgkYAmg+GfMo74e+NAEicDcruiW9pnAVxAEhsC1eET0OTRgAkjgY9uh3AmgGQiAHJHrihIUAJAAkBZlRDkIUNALzJnY3JDYMYAdjUA7A/nZa8Nr8O2W/ENvUAnP+BhAAu0Q4oz0EFAOKzSTR/RSYVhFMKAhQBiM+DgoQAHtEQLAnARcBRVgCJILyhIAA/AxxOZ8YS35NLBOGSggD8DLA/bRZkBFiTDEFegNIQ+HoSQKYFfJIhyAtQGgLlBWgMwlsCApR3AfuTB0gJsKIYgtwg9CraBaRSg1BzEDICAhxKTBzlBWA0rw8ISwKkXE/I/lCgwQSQWkBxO7znCXg9K3Rg/U1gSkGAHe8Bh7MecgJ4NH8fn5R+FhfwFiDxa7lGE8B7iVBWh8DhREgs+VIuRQvgjsU5BPYfv+R+MttoAnivkQqiWheQ+8VsswmgrZ8/EjpW7pB6mQDmqwSjRgQOrLcJYL5ONm1EQPqlViSvkvvehMBW+qXWJC8U3kQNCLxKv5RP8zrRqAGBg/xLLUheKZ3VIxC3eCmX3BgkCD0egV2Ll1qRGYPCv+8fVT3AIdCiAypHIXS+d/p4498VPVBAIG71yjQ88A8XcJs6BF5bvbRLYQz6U4r4pAaBY6vXnhEYg/7mS/0ptMEcArt2L77G74HFKyR/NCHQDoAKF0Q798WHiiS8IrBr+/rYx6BNxdXRqRiBuPUbuLg9MEwqLowNxQgcWr/DDLcHppXnHEHU7RRIxgWnOOuPa48F2rpfnQsiHfr39QcjXRFAPAduRNeFhh+fH3WYKkFggTcEEgEAv75mgfP/6HAO1OSCWPbCmQCArEj712104t9d32aF1QM3gqPuTWnH+/fXf1cKvv3u/j4e0vNA7iY5caEpYoVv5CMNgVQAQNDl2K+1C44wNkDMueJO4Vu5KAfhpBYApT0wwxgCWT0AnUNfZhie4muA8k9hVJqAhzAEkiYA5L8Abh8D6A6BRACoFICLAQQhEEaNACgVwMUWAmkzAEoFmCELgUB4k7xEnwArZMdB/InvQaSKylHQw5WCf2QAiJg2AbA5oBiAWOl7ojoOSqUAeFX6ngtEKbiRAkCpBRRz8AaZA25r/quWHDScgoEJAAo5uMTlgGIAdorf1kOTgplcBBw1CjBH5YBiAPbK3xjLGJAamAG4HByjckAoAHI5aHQMSKQA2DKdAtzgB+AcgWp9cIViDJAD4ByBodo+WGMYAzIpAC4RmKodhTwEY0D59jhCAPaXvDxqEsDcGJDKAXDpFsVR6JsfAzZyABwudqk6CsyPAXIAXH8p+6r47RemxwBJAI6fdql6GHJNC5BIAbC72qXq7dDM8BgQSAEQX7tF+XZgZVgAOQD2125RfSBwnYSWBABIdOyH1mbnIDkADl9iqbaA6yQ0RQxA7mIR9ScCvslBMIykADh/6n90nAl+TUI4dkFCAHY5sfa6BBjjBSDOD4xH9X/FwtwcJAfAPjcwajgUvIyCJgTYtAEg0fDFYF4AEwdiqRQAh3xcHDT8GTNTg6AcAIXrJXV0wGUWvsUKQC4CtYTgpwBLpAD8LMSFjg64zMJLnADExX+r5Q/xzEzCgRiAsDoCNXWAKQESMQBZtQNq6oDLZmCOEoBD8d8yjQKgBGBX/Lc7TX+LCQHkAChEoK4OOAswxgjAvrhjinX9MQt4AaQA4CJQWwecBBihBWAT6e6A025ohA+ALQeAtg4wIIAUAFwE6jgLym0Hb9ABsOO1Og5HACkAuAjU8vug3HbwFhsAe/7QcD8cAWQA4CNQowWCC9ACgI2uqwTKBwJLXABsS0cGx8EIIAUAH4E6LRBaABkAShGo0wLPJyJTTADEfARqtUBgAcoAHEsAlCJQLwCgApQB2JUBOP/TLIKxwLMAc0QAHPgI1LcR/joTgxIgawagHIH6NsLwAoTNABxLvbJlwxGAR6AMQDkCNVsgsABhAwBxGYBY+x8Feiic1QNQjkDtAMAJcCjVVgZAoNJxKAIEMV/cjs87QQTqzkBAAZIzzCH32ab1EQgAAJAAQfHGgEIAyg6oPQPhBLj+0DesBEAQgbqHIDgBAv7ekGUAYmYGABgBkq9ICysAEEQgQAYCCRCUbg9aBUAWgQ5BUAIk+U80FAIgiEAYACAECEp3iC0BIIpAGAAgBEiKn2koAEAQgUAAAAhQuiNmtqs49EgMAAAgQGlzG/IAiCIQCgD9AgTij3XTEIEQUzCMABU3REzrIxBiGwQjAPfr198CAEQRCAaAdgESUfkFAEQRCAeAbgFyAPzIbW02DREIB4BuAa63RX8/VpwO/hRZBRwAmgUIqp4CkNVGICAAmgU4fa4/BOWEtREICADTeiwelNjnEdiKIhASAL3fCyTVT8AIayIQEgCtAmzqPsmsMgJBTsJgCKhojEPxXKDievHhCpBsPxHYiyIQFICTAMCXDAWXEsOKCAQFAPYnMtfP+4LAJQITYxFgRIDgSnkojMAdG7gACYf5JjIJwEmAJTgAeaNLjQIA/VPZq+NvxecF4ACAC1B6UHZiFoCTALfwAETxHgcARn4uH//4fUTiAGcBAC+ZSd7ei9ujjWEAgK8ZCsv/KTULAPxFU6Udo1kADFw3WIPAntkowAb828CSAKZuqRpyCJgAwMTV4+f18SvhLg8zAsD5ZmLg73p6Zix/gaARAAzcQSL8+wvsVmmyAszhqn9/q7pG1AwAoHeR+XgvXTTzhYAhAODuI3Rp+6jqlsH7gQuwicTrEwFDAMDdSyytEOATgYNRAW6NAXD9ctTUHAp1P8G0UgBT7BcEuDEHgDH3y+2GAXZDaY0AZhGAuatsHQCGEXBBbqyc1gpgFIEFxK216wEwKwDIvcXrATDaAiB3l28AYMsQCDA1CMDRpAAewCM2GgD4aTQFIZ4xgjgCQJ4y0wDAAYcAN6YA2Jqt//qgJX2jYFjfAEfDArjaH7aW4Z2Cc4OgvkkoRN0AuQcPz40AYLoBcg9cnJoAwHgD6H/maIa7AbQ/dTbE3QD6nzuc4Z2Bi2OApkEgRN4A2p89niGegXkBxtAA7DHU/zUGaJmEMuwNkBsDdORgiDwBCmOAjhzM0DdAbgzQkIMh+gbIjwEaTgQyxJvg8higPgdD7AlYTEH1Ofi9uv4dlvq/TgM05GCC9Ri0YgxQnYMBgQYopKBqARLUeyBBCirOwQB9AvIpqDgHE/QJyKeg2hwMCBgAl4JqczAhYAB8CKg8GA4oGEBxL6g2BhIKBsCnoML9YEDCAPgUVBgDCQkD4ENAXQwEJAygFALqYiBBvwUQh4CqGAhQH4LVhICqGEhIGKAgBBTtBgIaBljaCShzwYSGAQo8UI0LBhQmIMFxkLJDoYSGAQpDQIULBkQMUOiBKobhhIgBCgZhJcNwgPsQuHYQVhIDCZEAEIdAfxcMSEzA1R7Y2wUTIgFY5YF9XTCgEgBVHtjXBRNC9Qs9sKcLBlQCsNoD+7lgQql+sQf2csGAygBQ44G9dsQJlQGgYi/c1wQCUvVXWUCPHXFCqn7RXrjfueCGygB0Xn5V/Z1HoZRU/RVjUI9RaEOr/koP7OyCKa36Kz2w6yi0IVY/q66/2yiUEqvfqxHgti8ABOqvsYBuJpASq7/OArqYwIZa/XUW0MUEUmr1e7UC3PYBYE+h/loL6GAC+d+Fk6i/3gI6mEBGZQckZQEdTCAkcQQiawFdJoGMlgCrBgHaTwIhLQEaLKDdmUBYQGA7BAtodyaQHPIIxBTqXzcK0OJMIIi2BQQoCDBrFKDFwWByfWoW4p+CcGvRKIB8EAbXvs+wfxUmHYKtgjDJP1CdiABrCQFGLQC4PlCdyl7AlRDAaQNAAYHXAYSgfBAGhfDLaExCnpQAN20AyCOAfxKaSQkwbgNAHgH8k9BCSgCpIEy4HwKEFCYhuQ6QCsKg9FvYjMAktJIUYNwKgIv5hQQGAckOkNgRih6WnqEfBHzZ+pt7IBH8HCBEPwispQUYtQPgwn6GfRBwpQVo6gHxL4JC5IOAfAc0DYNBxW8is+1AOqCpB8L397c3wa+iw3goHSB1Mhh+/H3/9ZbkB2Lcc0Cb+tucDIYf/wGBfwxetxJgxAa3WnUA5BPYEGYA0OOnMHfAAHugZQcMrgfadgDsI8kRdoC5h9Ga3gnrvM8ogbMgbXfXMr1mHQQYW94BgxoFunTAoEYBt5MAwxkF/G71D6cH1h0FGFveAYMZBbyu9Q/FBmedBRiIDXavfxg2uO4hwNhqCxyIDXp96h+CDfYCYAA26Pern/6meNVTAPI2uOgpAPUkXPetnzoCbm8BaCeh179+2kmoAADSCKgAgDQCSgAgPAz5auqnOwzNFAlAFQFVAJBFQBkARBFQBwBRBBQCQBIBlQCQREApAAQRUAsAQQQUA0AOAdUAkENAOQDEEFAPALFNoatBAErnAp6O+ikhoAUAQgjoAYAQApoAIPMdwVpX/US+I/AX2gSgMQ3NHI1raq8DkvFBV6sA+BFY660fvQ/qdEASPjhztK+pvQ5IwAcXAAI4z3jrf3RA1tTmBkDdBAsgAbA2waMDtqY2NwDacWgBKADGJpg5oGtqcwOcmgDZ1wT+AlgAbFnoOuDr2dIERGkDnon6EdkAvAEgswHXMbSeLTYARN+UrB2Da2qrAeIxQlMGiMYIDddvXAHXMb6eLK/faBg+OijW0vL6jYWh5zhWK4CofiMKoKrfgALI6gdXAF39wAogrN9x7iyvH3AienSQLqCp+N5Bu0aW1/9/BbSfD/iug3qNNYeBt3CwL61h8M0hsJ4sbX/9beAvHCrrzlr89aWBf+/QWooh+LZwqC2VEJD7+BXHwcQhusZ3ltKvUgLPdWivfhJ49w791V2Cb0Mov7sEpHu/nAgPbYNvUOWfMJhIDwb+ZHDVXzR4kuiFh6FWf1kvk7t5TfEvjg1r/DKZPDzkdXh4mExeFs6/9W+Br/8B3qjcfxmAcH0AAAAASUVORK5CYII=;movable=1;resizable=1;rotatable=1;deletable=1;editable=1;locked=0;connectable=1;container=0;" parent="H1YNJdES1nhzmdvhT4rR-36" vertex="1">
          <mxGeometry x="50" y="123.85" width="55.16" height="55.16" as="geometry" />
        </mxCell>
        <mxCell id="0iOADLooDGNSS4tO4EJr-10" value="2" style="text;html=1;align=center;verticalAlign=middle;resizable=0;points=[];autosize=1;strokeColor=none;fillColor=none;strokeWidth=5;fontSize=30;fontStyle=1" parent="H1YNJdES1nhzmdvhT4rR-36" vertex="1">
          <mxGeometry y="17.460000000000008" width="40" height="50" as="geometry" />
        </mxCell>
        <mxCell id="H1YNJdES1nhzmdvhT4rR-41" value="" style="endArrow=classic;html=1;rounded=0;movable=1;resizable=1;rotatable=1;deletable=1;editable=1;locked=0;connectable=1;exitX=0.346;exitY=-0.018;exitDx=0;exitDy=0;exitPerimeter=0;" parent="1" source="H1YNJdES1nhzmdvhT4rR-3" edge="1">
          <mxGeometry width="50" height="50" relative="1" as="geometry">
            <mxPoint x="1032" y="324" as="sourcePoint" />
            <mxPoint x="988" y="273" as="targetPoint" />
          </mxGeometry>
        </mxCell>
        <mxCell id="0iOADLooDGNSS4tO4EJr-1" value="" style="shape=image;verticalLabelPosition=bottom;labelBackgroundColor=default;verticalAlign=top;aspect=fixed;imageAspect=0;image=data:image/png,iVBORw0KGgoAAAANSUhEUgAAAgAAAAIABAMAAAAGVsnJAAAABGdBTUEAALGPC/xhBQAAAAFzUkdCAK7OHOkAAAAbUExURQAAAO1tP+1tP+1tP+5tP/////vXy/Wqj/GJZNfo6PcAAAAEdFJOUwB9zDZHT5BCAAARpUlEQVR42u2dYXqizBKFMWYBmLgAJ3EBJnEBgj3IAgK6AMnMAmQyC5CZLPveT42BpoEGuqur6Ol/97vzaOr41jnVrYDj/Fv/Fvgav0wmDw9zdl3+w8Pk/mVhRfEvkwdWtfxvk5dhf/I1xV/Xt/vFUKufM8nlTwanwfhJuvrzergfVPl3rMMaDAZPnco/2cEQJHiash6LvATjXuWTl2B8xxQsuhJMmKJFMxHaBl/tYOBaSn+uDyz++ClCcMc0LDoQ9M8+8fKIxMET07burcWfThvowp9KG4zmTPPCnQYjBrBcK+2PhBU+M6D1aKH9EwiDKQNcnuX1I1QAuH50CoDXj0wBA/WjUsBI/YgUeGaG1try+pFMRCNmcN1bXj+CndGYMasVGM9NC+AvbAxANGG4ZAiWwTC8YSjWo6UBYNwIzRugYSOcMjTLiBE+M0Tr0WIDMGQDeAzAkA1MGbLlWTkBGLOBMUO4FjY3AHATPDOU69HqBoDMwilWATxrEwC0CcYM8XJtbgCgJhgx1Gtm2x4AfBxaIq9fdxOMGPrl2uuAAAjcMAJrZrED6vbBJYn69X1TMmZElmuvA2r1wRFjdiMwpSOAZzkAehCYUxLAt3QG0jkNzWkJ4FsOgHoE5tQE8C0HQDUCc3oC+JYDoBaBOUUBfMsBUInAnKYAvuUAqENgTlUARQiMGNmlZlM4pSuAZzkAahCYUhbAsxwAFd8RLGkL0Ps7gjFjdiNwQ12Ama1DkKJhaMTIL9feDFSQhGM2gLWwNwP7JyHmuo4ANog2A9/fov+vt3c5EWZDs8C/SfS5fmu1QaQWmEa5tT1qtEGUFhgmUWHFR302iHIK5OqXUsAf0BSYRqW11TUNYrTAP5Fg7fT0AEYL3ETCddRigzc0GuA/F9AzCiDsgEAMwF7LKICxA5KuAHTpgeWQAGBsNYQhoAcA7UcBhEPApg6Ag+pRAGEHZDUABI3T0Jp+B9QBkEQHtT0womKB8ef/96q2BxB2QFoLQLMXrgfZAfEXHEeVPUAmA/Zf+ai0BxB2wPcGACKlOTAnYgH7/ICkcBbCeBTSBEAUKZyFlkQsoABA855gRbkDgkYAmg+GfMo74e+NAEicDcruiW9pnAVxAEhsC1eET0OTRgAkjgY9uh3AmgGQiAHJHrihIUAJAAkBZlRDkIUNALzJnY3JDYMYAdjUA7A/nZa8Nr8O2W/ENvUAnP+BhAAu0Q4oz0EFAOKzSTR/RSYVhFMKAhQBiM+DgoQAHtEQLAnARcBRVgCJILyhIAA/AxxOZ8YS35NLBOGSggD8DLA/bRZkBFiTDEFegNIQ+HoSQKYFfJIhyAtQGgLlBWgMwlsCApR3AfuTB0gJsKIYgtwg9CraBaRSg1BzEDICAhxKTBzlBWA0rw8ISwKkXE/I/lCgwQSQWkBxO7znCXg9K3Rg/U1gSkGAHe8Bh7MecgJ4NH8fn5R+FhfwFiDxa7lGE8B7iVBWh8DhREgs+VIuRQvgjsU5BPYfv+R+MttoAnivkQqiWheQ+8VsswmgrZ8/EjpW7pB6mQDmqwSjRgQOrLcJYL5ONm1EQPqlViSvkvvehMBW+qXWJC8U3kQNCLxKv5RP8zrRqAGBg/xLLUheKZ3VIxC3eCmX3BgkCD0egV2Ll1qRGYPCv+8fVT3AIdCiAypHIXS+d/p4498VPVBAIG71yjQ88A8XcJs6BF5bvbRLYQz6U4r4pAaBY6vXnhEYg/7mS/0ptMEcArt2L77G74HFKyR/NCHQDoAKF0Q798WHiiS8IrBr+/rYx6BNxdXRqRiBuPUbuLg9MEwqLowNxQgcWr/DDLcHppXnHEHU7RRIxgWnOOuPa48F2rpfnQsiHfr39QcjXRFAPAduRNeFhh+fH3WYKkFggTcEEgEAv75mgfP/6HAO1OSCWPbCmQCArEj712104t9d32aF1QM3gqPuTWnH+/fXf1cKvv3u/j4e0vNA7iY5caEpYoVv5CMNgVQAQNDl2K+1C44wNkDMueJO4Vu5KAfhpBYApT0wwxgCWT0AnUNfZhie4muA8k9hVJqAhzAEkiYA5L8Abh8D6A6BRACoFICLAQQhEEaNACgVwMUWAmkzAEoFmCELgUB4k7xEnwArZMdB/InvQaSKylHQw5WCf2QAiJg2AbA5oBiAWOl7ojoOSqUAeFX6ngtEKbiRAkCpBRRz8AaZA25r/quWHDScgoEJAAo5uMTlgGIAdorf1kOTgplcBBw1CjBH5YBiAPbK3xjLGJAamAG4HByjckAoAHI5aHQMSKQA2DKdAtzgB+AcgWp9cIViDJAD4ByBodo+WGMYAzIpAC4RmKodhTwEY0D59jhCAPaXvDxqEsDcGJDKAXDpFsVR6JsfAzZyABwudqk6CsyPAXIAXH8p+6r47RemxwBJAI6fdql6GHJNC5BIAbC72qXq7dDM8BgQSAEQX7tF+XZgZVgAOQD2125RfSBwnYSWBABIdOyH1mbnIDkADl9iqbaA6yQ0RQxA7mIR9ScCvslBMIykADh/6n90nAl+TUI4dkFCAHY5sfa6BBjjBSDOD4xH9X/FwtwcJAfAPjcwajgUvIyCJgTYtAEg0fDFYF4AEwdiqRQAh3xcHDT8GTNTg6AcAIXrJXV0wGUWvsUKQC4CtYTgpwBLpAD8LMSFjg64zMJLnADExX+r5Q/xzEzCgRiAsDoCNXWAKQESMQBZtQNq6oDLZmCOEoBD8d8yjQKgBGBX/Lc7TX+LCQHkAChEoK4OOAswxgjAvrhjinX9MQt4AaQA4CJQWwecBBihBWAT6e6A025ohA+ALQeAtg4wIIAUAFwE6jgLym0Hb9ABsOO1Og5HACkAuAjU8vug3HbwFhsAe/7QcD8cAWQA4CNQowWCC9ACgI2uqwTKBwJLXABsS0cGx8EIIAUAH4E6LRBaABkAShGo0wLPJyJTTADEfARqtUBgAcoAHEsAlCJQLwCgApQB2JUBOP/TLIKxwLMAc0QAHPgI1LcR/joTgxIgawagHIH6NsLwAoTNABxLvbJlwxGAR6AMQDkCNVsgsABhAwBxGYBY+x8Feiic1QNQjkDtAMAJcCjVVgZAoNJxKAIEMV/cjs87QQTqzkBAAZIzzCH32ab1EQgAAJAAQfHGgEIAyg6oPQPhBLj+0DesBEAQgbqHIDgBAv7ekGUAYmYGABgBkq9ICysAEEQgQAYCCRCUbg9aBUAWgQ5BUAIk+U80FAIgiEAYACAECEp3iC0BIIpAGAAgBEiKn2koAEAQgUAAAAhQuiNmtqs49EgMAAAgQGlzG/IAiCIQCgD9AgTij3XTEIEQUzCMABU3REzrIxBiGwQjAPfr198CAEQRCAaAdgESUfkFAEQRCAeAbgFyAPzIbW02DREIB4BuAa63RX8/VpwO/hRZBRwAmgUIqp4CkNVGICAAmgU4fa4/BOWEtREICADTeiwelNjnEdiKIhASAL3fCyTVT8AIayIQEgCtAmzqPsmsMgJBTsJgCKhojEPxXKDievHhCpBsPxHYiyIQFICTAMCXDAWXEsOKCAQFAPYnMtfP+4LAJQITYxFgRIDgSnkojMAdG7gACYf5JjIJwEmAJTgAeaNLjQIA/VPZq+NvxecF4ACAC1B6UHZiFoCTALfwAETxHgcARn4uH//4fUTiAGcBAC+ZSd7ei9ujjWEAgK8ZCsv/KTULAPxFU6Udo1kADFw3WIPAntkowAb828CSAKZuqRpyCJgAwMTV4+f18SvhLg8zAsD5ZmLg73p6Zix/gaARAAzcQSL8+wvsVmmyAszhqn9/q7pG1AwAoHeR+XgvXTTzhYAhAODuI3Rp+6jqlsH7gQuwicTrEwFDAMDdSyytEOATgYNRAW6NAXD9ctTUHAp1P8G0UgBT7BcEuDEHgDH3y+2GAXZDaY0AZhGAuatsHQCGEXBBbqyc1gpgFIEFxK216wEwKwDIvcXrATDaAiB3l28AYMsQCDA1CMDRpAAewCM2GgD4aTQFIZ4xgjgCQJ4y0wDAAYcAN6YA2Jqt//qgJX2jYFjfAEfDArjaH7aW4Z2Cc4OgvkkoRN0AuQcPz40AYLoBcg9cnJoAwHgD6H/maIa7AbQ/dTbE3QD6nzuc4Z2Bi2OApkEgRN4A2p89niGegXkBxtAA7DHU/zUGaJmEMuwNkBsDdORgiDwBCmOAjhzM0DdAbgzQkIMh+gbIjwEaTgQyxJvg8higPgdD7AlYTEH1Ofi9uv4dlvq/TgM05GCC9Ri0YgxQnYMBgQYopKBqARLUeyBBCirOwQB9AvIpqDgHE/QJyKeg2hwMCBgAl4JqczAhYAB8CKg8GA4oGEBxL6g2BhIKBsCnoML9YEDCAPgUVBgDCQkD4ENAXQwEJAygFALqYiBBvwUQh4CqGAhQH4LVhICqGEhIGKAgBBTtBgIaBljaCShzwYSGAQo8UI0LBhQmIMFxkLJDoYSGAQpDQIULBkQMUOiBKobhhIgBCgZhJcNwgPsQuHYQVhIDCZEAEIdAfxcMSEzA1R7Y2wUTIgFY5YF9XTCgEgBVHtjXBRNC9Qs9sKcLBlQCsNoD+7lgQql+sQf2csGAygBQ44G9dsQJlQGgYi/c1wQCUvVXWUCPHXFCqn7RXrjfueCGygB0Xn5V/Z1HoZRU/RVjUI9RaEOr/koP7OyCKa36Kz2w6yi0IVY/q66/2yiUEqvfqxHgti8ABOqvsYBuJpASq7/OArqYwIZa/XUW0MUEUmr1e7UC3PYBYE+h/loL6GAC+d+Fk6i/3gI6mEBGZQckZQEdTCAkcQQiawFdJoGMlgCrBgHaTwIhLQEaLKDdmUBYQGA7BAtodyaQHPIIxBTqXzcK0OJMIIi2BQQoCDBrFKDFwWByfWoW4p+CcGvRKIB8EAbXvs+wfxUmHYKtgjDJP1CdiABrCQFGLQC4PlCdyl7AlRDAaQNAAYHXAYSgfBAGhfDLaExCnpQAN20AyCOAfxKaSQkwbgNAHgH8k9BCSgCpIEy4HwKEFCYhuQ6QCsKg9FvYjMAktJIUYNwKgIv5hQQGAckOkNgRih6WnqEfBHzZ+pt7IBH8HCBEPwispQUYtQPgwn6GfRBwpQVo6gHxL4JC5IOAfAc0DYNBxW8is+1AOqCpB8L397c3wa+iw3goHSB1Mhh+/H3/9ZbkB2Lcc0Cb+tucDIYf/wGBfwxetxJgxAa3WnUA5BPYEGYA0OOnMHfAAHugZQcMrgfadgDsI8kRdoC5h9Ga3gnrvM8ogbMgbXfXMr1mHQQYW94BgxoFunTAoEYBt5MAwxkF/G71D6cH1h0FGFveAYMZBbyu9Q/FBmedBRiIDXavfxg2uO4hwNhqCxyIDXp96h+CDfYCYAA26Pern/6meNVTAPI2uOgpAPUkXPetnzoCbm8BaCeh179+2kmoAADSCKgAgDQCSgAgPAz5auqnOwzNFAlAFQFVAJBFQBkARBFQBwBRBBQCQBIBlQCQREApAAQRUAsAQQQUA0AOAdUAkENAOQDEEFAPALFNoatBAErnAp6O+ikhoAUAQgjoAYAQApoAIPMdwVpX/US+I/AX2gSgMQ3NHI1raq8DkvFBV6sA+BFY660fvQ/qdEASPjhztK+pvQ5IwAcXAAI4z3jrf3RA1tTmBkDdBAsgAbA2waMDtqY2NwDacWgBKADGJpg5oGtqcwOcmgDZ1wT+AlgAbFnoOuDr2dIERGkDnon6EdkAvAEgswHXMbSeLTYARN+UrB2Da2qrAeIxQlMGiMYIDddvXAHXMb6eLK/faBg+OijW0vL6jYWh5zhWK4CofiMKoKrfgALI6gdXAF39wAogrN9x7iyvH3AienSQLqCp+N5Bu0aW1/9/BbSfD/iug3qNNYeBt3CwL61h8M0hsJ4sbX/9beAvHCrrzlr89aWBf+/QWooh+LZwqC2VEJD7+BXHwcQhusZ3ltKvUgLPdWivfhJ49w791V2Cb0Mov7sEpHu/nAgPbYNvUOWfMJhIDwb+ZHDVXzR4kuiFh6FWf1kvk7t5TfEvjg1r/DKZPDzkdXh4mExeFs6/9W+Br/8B3qjcfxmAcH0AAAAASUVORK5CYII=;movable=1;resizable=1;rotatable=1;deletable=1;editable=1;locked=0;connectable=1;container=0;direction=south;" parent="1" vertex="1">
          <mxGeometry x="1045.14" y="340" width="55.16" height="55.16" as="geometry" />
        </mxCell>
        <mxCell id="H1YNJdES1nhzmdvhT4rR-33" value="" style="group" parent="1" vertex="1" connectable="0">
          <mxGeometry x="940" y="310" width="67.5" height="75" as="geometry" />
        </mxCell>
        <mxCell id="H1YNJdES1nhzmdvhT4rR-3" value="Display&lt;br&gt;&lt;br&gt;&lt;br&gt;&lt;br&gt;" style="rounded=0;whiteSpace=wrap;html=1;fillColor=none;movable=1;resizable=1;rotatable=1;deletable=1;editable=1;locked=0;connectable=1;container=0;" parent="H1YNJdES1nhzmdvhT4rR-33" vertex="1">
          <mxGeometry width="67.5" height="75" as="geometry" />
        </mxCell>
        <mxCell id="H1YNJdES1nhzmdvhT4rR-4" value="" style="rounded=0;whiteSpace=wrap;html=1;container=0;movable=1;resizable=1;rotatable=1;deletable=1;editable=1;locked=0;connectable=1;" parent="H1YNJdES1nhzmdvhT4rR-33" vertex="1">
          <mxGeometry x="4.400000000000091" y="26.600000000000023" width="58.7" height="41.79" as="geometry" />
        </mxCell>
        <mxCell id="H1YNJdES1nhzmdvhT4rR-5" value="" style="rounded=0;whiteSpace=wrap;html=1;container=0;movable=1;resizable=1;rotatable=1;deletable=1;editable=1;locked=0;connectable=1;" parent="H1YNJdES1nhzmdvhT4rR-33" vertex="1">
          <mxGeometry x="27.880434782608745" y="42.67142857142858" width="5.869565217391304" as="geometry" />
        </mxCell>
        <mxCell id="H1YNJdES1nhzmdvhT4rR-6" value="&lt;font style=&quot;font-size: 2px;&quot;&gt;12:30 15/05&lt;/font&gt;" style="rounded=0;whiteSpace=wrap;html=1;container=0;fontSize=2;movable=1;resizable=1;rotatable=1;deletable=1;editable=1;locked=0;connectable=1;" parent="H1YNJdES1nhzmdvhT4rR-33" vertex="1">
          <mxGeometry x="4.402173913043498" y="29.814285714285745" width="17.608695652173914" height="6.428571428571429" as="geometry" />
        </mxCell>
        <mxCell id="H1YNJdES1nhzmdvhT4rR-7" value="&lt;font style=&quot;font-size: 5px;&quot;&gt;Coffee ++&lt;/font&gt;" style="rounded=0;whiteSpace=wrap;html=1;container=0;fontSize=5;movable=1;resizable=1;rotatable=1;deletable=1;editable=1;locked=0;connectable=1;" parent="H1YNJdES1nhzmdvhT4rR-33" vertex="1">
          <mxGeometry x="33.75" y="29.810000000000002" width="29.35" height="16.79" as="geometry" />
        </mxCell>
        <mxCell id="H1YNJdES1nhzmdvhT4rR-8" value="&lt;span style=&quot;color: rgb(0, 0, 0); font-family: Helvetica; font-size: 5px; font-style: normal; font-variant-ligatures: normal; font-variant-caps: normal; font-weight: 400; letter-spacing: normal; orphans: 2; text-align: center; text-indent: 0px; text-transform: none; widows: 2; word-spacing: 0px; -webkit-text-stroke-width: 0px; background-color: rgb(251, 251, 251); text-decoration-thickness: initial; text-decoration-style: initial; text-decoration-color: initial; float: none; display: inline !important;&quot;&gt;Coffee --&lt;/span&gt;" style="rounded=0;whiteSpace=wrap;html=1;container=0;fontSize=5;movable=1;resizable=1;rotatable=1;deletable=1;editable=1;locked=0;connectable=1;" parent="H1YNJdES1nhzmdvhT4rR-33" vertex="1">
          <mxGeometry x="33.75" y="55.52857142857147" width="29.34782608695652" height="12.857142857142858" as="geometry" />
        </mxCell>
        <mxCell id="H1YNJdES1nhzmdvhT4rR-9" value="&lt;font style=&quot;font-size: 5px;&quot;&gt;Upload&lt;/font&gt;" style="rounded=0;whiteSpace=wrap;html=1;container=0;fontSize=5;movable=1;resizable=1;rotatable=1;deletable=1;editable=1;locked=0;connectable=1;" parent="H1YNJdES1nhzmdvhT4rR-33" vertex="1">
          <mxGeometry x="4.400000000000091" y="51.60000000000002" width="29.35" height="16.79" as="geometry" />
        </mxCell>
        <mxCell id="0iOADLooDGNSS4tO4EJr-2" value="" style="shape=mxgraph.signs.food.coffee;html=1;pointerEvents=1;fillColor=#f9f7ed;strokeColor=#36393d;verticalLabelPosition=bottom;verticalAlign=top;align=center;sketch=0;" parent="1" vertex="1">
          <mxGeometry x="1190" y="321" width="30" height="19" as="geometry" />
        </mxCell>
        <mxCell id="0iOADLooDGNSS4tO4EJr-3" value="" style="shape=mxgraph.signs.food.coffee;html=1;pointerEvents=1;fillColor=#f9f7ed;strokeColor=#36393d;verticalLabelPosition=bottom;verticalAlign=top;align=center;sketch=0;" parent="1" vertex="1">
          <mxGeometry x="1220" y="329" width="30" height="19" as="geometry" />
        </mxCell>
        <mxCell id="0iOADLooDGNSS4tO4EJr-4" value="" style="shape=mxgraph.signs.food.coffee;html=1;pointerEvents=1;fillColor=#f9f7ed;strokeColor=#36393d;verticalLabelPosition=bottom;verticalAlign=top;align=center;sketch=0;" parent="1" vertex="1">
          <mxGeometry x="1241" y="316" width="30" height="19" as="geometry" />
        </mxCell>
        <mxCell id="0iOADLooDGNSS4tO4EJr-9" value="1" style="text;html=1;align=center;verticalAlign=middle;resizable=0;points=[];autosize=1;strokeColor=none;fillColor=none;strokeWidth=5;fontSize=30;fontStyle=1" parent="1" vertex="1">
          <mxGeometry x="915" y="230" width="40" height="50" as="geometry" />
        </mxCell>
      </root>
    </mxGraphModel>
  </diagram>
  <diagram name="Indledning" id="SR7ODkCfeVK6t5335iWt">
    <mxGraphModel dx="130" dy="418" grid="1" gridSize="10" guides="1" tooltips="1" connect="1" arrows="1" fold="1" page="1" pageScale="1" pageWidth="827" pageHeight="1169" math="0" shadow="0">
      <root>
        <mxCell id="i6NcPud4-Uv3nX3KhL0C-0" />
        <mxCell id="i6NcPud4-Uv3nX3KhL0C-1" parent="i6NcPud4-Uv3nX3KhL0C-0" />
        <mxCell id="i6NcPud4-Uv3nX3KhL0C-14" value="" style="shape=image;verticalLabelPosition=bottom;labelBackgroundColor=default;verticalAlign=top;aspect=fixed;imageAspect=0;image=data:image/png,iVBORw0KGgoAAAANSUhEUgAAAPMAAADQCAMAAADlEKeVAAAAflBMVEX///8CAgIAAADExMS+vr4ICAi2tra7u7ufn58MDAxJSUmMjIyxsbFxcXGDg4NUVFTc3Nzt7e329vbKysqnp6d0dHRra2vX19fa2tpRUVHz8/M3NzeXl5dZWVkuLi6JiYno6OgzMzN+fn4eHh4/Pz9hYWEXFxcmJiZFRUU9PT1lDnjJAAANqUlEQVR4nO1d64KyKhQ1asrKmS6aTmVmdn//FzwqewMmVqOgfp7WnzHwwhoQ9hUNI4PQitbHry7huI6s0CjE0jySFL3ugBI6mks55Wm32IqImU0ljO1eZxkniMnZkk5uulmaketqFymTLgKpuVnKjPEhcoaD7mDoRAfO2hUHNjLeP5nW/1mEe2TNh7dNS+K+3zTZNI3YuEgRJzL8bTXaLr2wkCT9OYVf/WZbpRl9IJ2O7mX6o9u9nMACnolEZpLHKa2joIsTMePDC6Xf1emLY0M7+mIYc5KdxI35YNQlDOaMGUxc83iYp90cQnl4alZk0oAT40Y72jKi9O82U9wt8A7dplwjY5L+/YHSe/cox+zuwO4n5TqBKcyBd7mLlNNXOIUDkxh9rwe0cMgE766A8hlSegNK1qCFIINZpGOUQfgCzn36L5BwRpm0E6BT9Yfzh/OHcxdQjvNykQOvzNdx4/kmV9eAHlOKcySZ/8dwuj2WVEa0bjmT1G3DmqgylOEss3sTkGBDIq2kKtpaWjeukW6KMpwvUmmU+EmdL69LL1/IlRWScyZoRhs41210K8M5krWdUKF9Lq+jOtpJXlkn3wSl5rCzTIi18HQJzrRusZXUfXl1cUWUW6vCeQ5sPVrm68JnF2qnmMNHJvlwpoUfzl3Ah3Mh5x4Zdwdv2oY6ZRDrvcu5a/hfcrb+h5zfmMO6hPc4E+KYXYHzWZ8/nGnhh3MX0DjnpWf5q9npcL0cg/vanTr24vVF1dAo59Byr7K1ZGdqtRc1x9n7ObLF8kFcSOCOlD8R0RDnxXQspZvhvdLU241w9s7PCTPawVDlYxENcLZvEsbyYR6XOeoejKid81zutAqmjjmTu7MGqh6NqJtzxHnxjiUX6rIKZyRXFx/eQkUPB9TLuS/wjJekG5gsduwEH5Se8SrD2lfydEStnFcC44u5AZ8denZSOPBvsIwhf+0VO6lr5BxeOYd78pLSoEoWhUixB3U9lsbmrvA/Urhc18d5wBkf0td3yNmJmNDiNF4+FHK89pVbgKiNs4n2RubB/MrYKxgWkC9AnXfell23MxShLs4/rOnfS+G+PTLLnUpfaUbRYV19Kkhk/Stq4rxiQ5QFFXzR+4b5k69iR8cD/I7/r0AN6Xo4M8oTFho1or25kpwNobbfrOBHLelaOP/guI542amwmw0joHU8dGyEpO+y0/+KOjibSFlI15oLs3MOMKObwukQtyN5/f+OGjj3sZN6K4tFUsAyXKAt0lZd8Wc42gf4dkTyK/4C/ZxDUdwkZLK3vCU+91BwDcsAMuYDf3choshaPbdPP2fsIYE3uVBJu1BRhAygQ0ByOiafz0tDO+dIbvzBv8Fkdl5F+6mfYDr9Wbm7yfbC6yUXX18/tFnOLI9aahh56lEq/E/9vH5so5zpfEsm5raQyztIrv3aR/D/+201Z8yjjpfazSgqMnS+pEuI6ySvMegfQZs5w5yNqVrGxvbPLwyeecKz6SjE6+F+1eZuvZzPeaNAjPmITVGvnMR7LxvHj/pnqdYgtHL+FdLIRYAQZnkjx5xG7nm3ntxOMSbr3dld7X1naHv0UvPxljC6KxmLtHLeFazCoC0+VRhonmpOZ4aVu1JH6+Q8Z0nkD/gmr2eiacFjo5ws/mfo5LySG0IM45De8rnk3C/QuzbVO1ojZ2jdMVexxNzyZ1gQsRECfrJLQQlo5OwUrSu/T3UqxFg+iaG9rIJSqZHzvejC4RtTGE5iEgX7TO9b3jWvjzPMsJK92PyCqS2LfZG26T3XyV5DG+cFzGC770es6BR2XeVqMmfd6HPzZ8GN76V1Sk2cl8xNU6g1PZfCnp2FN76VZK2H8+ZYXoV6H6RkBp4ezkENjHvS5bsxzmY9lBO9vDWcuW1EI2gjy5gPdHAGtan3dF6uiNW2vIKlg/OoQFRWC9wo6O/QwXmYvaK/PlCr3fx8dcPkYBkFMw+Kgu9UoNqssMjfTmhz4qIdXY32hxt1uVu3OxNGqXLGnVrvQz/nQfLyJX6mMH0NE7tHahfzWFEihH5h0S45SGSsZVpHrWCEmvL95ABZui3mvEUlKrUgJI5IkykJqUiV2G59FDTt9ODLwM2PbkyrXFLtggnabeaM+i5Ye0i45N6oWaYoURADZk2aojJ5pAdT3Lzvt/2cwQ5oTmB1cYFMMvvQnQDINzprr6BynVhjyIHltPWz1oI2cwYLkeip6+EQXbKVXKyDXR3u8jqcxNrMmU6wPS6a0Z80DAjDwbJ167TOltaxnT1azVm2XQWrleyBwTyPO4kIy61rreYM/vVs03GEjiR1yEOy+aJgQ2g3Z+PhlRRHKNthUXhvmdUHQ296vI5rjy3njG8tGaJqwO2/NhZZeMAD/jZY5J/gYM1v2nLOxhiXJ1i4tkIdODtuuHCJtkF0a8J8lokxaDtn0Do29BXN2jfmtMjDtmSsu7TIkVlB287ZSHe/TdgkW7o/+CmjpChhM0oOspET6a42iZNnnkrfon239ZyNqHelxlnzOH6M0PUvY2oRHga5reytAAJEvRtZZ2x+7dKrRlzQ0ggaSCiLnXwFHZzB6H79KUb0pO49rOlD2mInqdMeVibtTAvnqURo1ILMotcs54Kd5NRTLtXNmjjXs005kbjzm+NsLHc1+KuOJXNItfklQ7Dk3GaP2NHcg+MuV5M5i9rRSP4sEFaD0ttFavc/SxYTavDLx1xkQYNoJIE24DIoH0WjMc7gUHQhGL1eXL7OSdgAGEBtjDPAj6nk5xmQWV64mi4FwwRCc0p55yj0xw3lR+ebcUPpSfnwINAvK+QS6owPg0GYD3eiRuxy8WH4+aES7UHo5OwVdTRVA5/LUH7BY/fl5WyE1nhP0ANyg9h545Z0Cls/FmO8Z5XkMq2cvYIGQlDcYG4PLHO6j77d82y2jlfesxv9TH1nZHtFKx0szrKvYb4NvfHb0MIHxX6B1vqXYhjxw+ylAzSQVYFeznPRF5PAsyLZrhWFiM89uKaNAwV9PVWierXnY2DWSNJoezoR5eX3WSfEo1FiNAKz6SsRrlnOaD7YWbu/030gfvfRGlxxY3bdnPv81S3sxELVKXcuPShjA6uTM3glc+1nNMaH9dn9XkUJViv3vL7z9Egp+erfHNDO+cFmAv04fj4Xgc96LOn1krYREfo58x320/Zfv007xOeeCq6BF9czFvFEf8rwrjhnJ9DPGT/6lej/Plt1IMOgIDL3K6th/zruEW+i4JuXNXDmnxgWlKRfqbQCGOVk6sUV7lE0Mv6COjjjPJb5qjZYFKSa//axjjlsryo2caiFM8gSPXFfFTCWyBRKiBjinjwfKY+VfBGoHs5IOm41m3UxXCx/MgwBPHODO46RixoXWE2c4+GNXY1eSfOxNxGwQQ2qkRibEA9sRd99qotz4ngG0pe+8Oi8GQUNIbSbQ7atHJko2nqnxn2lLNZ4MvHYjfPa9U7o/0XELyrjaZajPs6G98WFk1miJgTZQUyBekQY93EkOC0U7oVYI2djeRYcOluLZcGLPThkGrJ9FhhfVX4Wp07ONDyE9TVZ4X6AXLaCjbPIeD8WT1Ww+YyAejkbG77dnaA1kYP3UCsK2FirDDVzjkWqLafT47zW5sD6ltao39W0ds6xNB3k9eICUwFRvc1ligY4G8bg9I6ZKFGzqyuOEjTCOVarohfWsaR6l/f6KEFDnGMM3GeWL7J2tH1htDnOMTxf9mHReO3e91XJmTI0yjlB2DejM36P8Dr79ofav8rXOOcG8OH84UwL/8ecB8OuYCDlTHKcdQfp1otejjMBk3r2H9E1YJfSpIIviOsBWXfzhmj874HtBkwTkwPY0Qc1eUka3L8PZn6lMUznx/3KpJ97/sfBTMx0Qpvie83c+cPJuEt9TcYTFpBp43wNJmYV+z63HZBpv2Q25opxG/8AoJsTNxoM7ldbfP37uAiiSMD5dxkY8p/+wEg9BV79FgNdxHb2502bhaZxbNClgOvWkrkRtZgeWwD+YRZmh5qzIrLX+hXARuAlOcnAT7BF2YIfhYxvk0qoeLnau93SuDMkl1mQbUG5aFJM1ACB14MMEgadVKk4CAnC3LCfkg6zJkQe7r9YkW7STmitisKQNs5E0etT+TZKbzZ54RvyLH9aAbDZ7L7KPRgg12hV5R6+pX31hdhONS6oJb1ZxU9kaIengXPbxSRbA+e2q/a2Uk8IteG0nfNIA2d9X8RWA5oeqcroQvOiNXwiWSnoLvEqIuwT0D131H1VVA8KvwZQCtQIXyHNvQ5Avrsq2wN1tpB222+maldUWO0rZQPrBiZBK7thJqa9lfglqvsFNwlsrfiJ8diKpLAEbMPbcrsNaQdLPVG5nrKtM9WlK6iDjdkIkuyaKmCZS19tE0GFCPSb4lvfmOXA1Rkk+Wc4hFmQ1bu9dtz63h4p1DtwK44OOXHPb686daEkFjztovLuAwWwhSe4mrfVfAe+YKrT9sItxYQVDRkMf8Lgwhsz1hRqn6I/5g+6VPg+XWXMJ8Kg063x7YVnTbTHfRdgGQmtWIfan8dTSJPMs0bWLTFPLtA5rDn6ASet4Lvnf4UnpIuRo+mYdcAxj/yhZFvzumVmHFuVnSvvI/PUWsMi6tm79RW0f0Iqg2EbKPMQ7Fpgt4RzraqWLOG1dsbldqcuj33jpMtLQf8BmU0cwB1Qto4AAAAASUVORK5CYII=;container=0;" vertex="1" parent="i6NcPud4-Uv3nX3KhL0C-1">
          <mxGeometry x="1100" y="250" width="114.49" height="98" as="geometry" />
        </mxCell>
        <mxCell id="i6NcPud4-Uv3nX3KhL0C-6" value="" style="endArrow=classic;html=1;rounded=0;" edge="1" parent="i6NcPud4-Uv3nX3KhL0C-1">
          <mxGeometry width="50" height="50" relative="1" as="geometry">
            <mxPoint x="1010" y="360" as="sourcePoint" />
            <mxPoint x="1100" y="310" as="targetPoint" />
          </mxGeometry>
        </mxCell>
        <mxCell id="i6NcPud4-Uv3nX3KhL0C-7" value="" style="endArrow=classic;html=1;rounded=0;" edge="1" parent="i6NcPud4-Uv3nX3KhL0C-1">
          <mxGeometry width="50" height="50" relative="1" as="geometry">
            <mxPoint x="1100" y="280" as="sourcePoint" />
            <mxPoint x="1010" y="335" as="targetPoint" />
          </mxGeometry>
        </mxCell>
        <mxCell id="i6NcPud4-Uv3nX3KhL0C-13" value="" style="shape=image;verticalLabelPosition=bottom;labelBackgroundColor=default;verticalAlign=top;aspect=fixed;imageAspect=0;image=data:image/png,iVBORw0KGgoAAAANSUhEUgAAAOsAAADWCAMAAAAHMIWUAAAAn1BMVEX///8QHCgAAAAAABMNGiYAABUAABAAEyEAABcAEB8PGygKGCUAABYADR0AAA0GFiMAAAYABxr19vbw8fLq6+zP0dPg4eKtsLO5u77k5eabnqLJy83CxMalqKxASE/s7e5rcHZbYWiQlZlLUllwdnsrNT+Ch4uytbc/Rk4VIi+eoaWFio4jLjlTWV+9v8KSlpoyO0R3fYImMDlscnhhaG4Iv6OXAAAKx0lEQVR4nO2dCXeiOhSAG8KOEEDBfau1brRix///294NgiBYrcVq8k6+M+cMDHQmNze5WxLm5UUgEAgEAoFAIBAIBAKBQCAQCAQCgUAgEAgEAoHgbxmHQMt/djP+GL/f28+RZtiercnRbNPpPrtFf8S4PfOwYhBLTrAsTceN+Wvw7Hbdn/7UwZqMDpimebiQie7G7We37b4MYslIBJUNXU1RbIv+kUkce/3s9t2P8EPSqJya0kAf28UgCMOg31lPIg8nPWA5q86z23gntpJBJfW80TA8fdJa7DWFwHi2pOn4OY27K92RQyXV0Xt47nFzGGMCL9jG4NEtuzsDmyrVM1+/19siVizoDen1gc36C9oSiEGUyUVH6m8J7RBp8qBG/Q1rCWyPvVpcey+cNUBYdfqINv0RQwkk0GenSvXHrW63Oy7FiDsVegXzK2yHahXvi1KF68lypTsuJvF0028WnqypsOrbo9t4JwKdilpo/Xg9w9gmspxETIbuzIu2uQ3Cmk7v8e28A/4cAghlcrxvbiNVy4LEw29Etye5tG0XugD3n9DU2rzpYJZmx9vPObZojATqlFz4hW0riTDI9jjGeyAs+eIw2fvEMiKrbEb67wqNGDRH228/w1Yr7K93c9eG0Wzh3HbtPTBluyc1+Pf4c4JMKUvYmh8gOSLubFEwR37/H7ZpyBRlr/kR/JDOXZbXw2CXNulNc6RT9xlXwsBw78JI1oxskgbgpIxZ+S3GaUYWslbpjT+DsWm5m3MzsSNDyESMzEK9wZuYs8iYqlXKErUJ3BDvm7StG8M41qJ0bDdVkzfF0tlK4vSmDQPTsr/1Jc0lCOtlEdNrA3IirmbsANTjpFFwS4EYAX9+/3IzArcrpW83XRl5XEVPexvJVno9gSmoXgyHAvA9lpbO5p2HrKh56XW2GINl0lMjHFLT+nH5/cRop91BTbHDkXXqqzAo00n3ZiPTPp2AQW9bqsbEGpKN9Br6yeMonnin4/Bw6cP8syfFh+FMUnQsfRSl7WATuZ3jD2ujx7TzHnxoyE5V01Yh5i2qdegaSdxvOMW6cEyQsT9cdhwko7O1KRZpzi2Eh4drsFJkWXi2drOCuFzM3151uD9ctuiE5cbrhAaMyLS1YGL1QtGsjzNRQVg112zgHWe4v8p7in0CBxp+cBugJFMphBEzA+VY2nGo+lEuIMwA7/2hDa4BnXHWwV324VLO601JqSLHzn3RCARMvRRY7lNrxjJDjKz5QdaFChY5j/l7SlFUZKrHCuPEPhqnjYcMbopsIFFmj0BsMs+fTOwTWZG2zPqBepo05gc7pV0JPtihJGucP5kaqKTYLE7e5F51y6ms7ct6zaPH3YlerwWV7NDOJyk1U4VIftMoyXrM30DjmUF652m+DhxkegdZAxeZuWd5+VRLsh7zNwic9O3hEpRv/3t0m39LQIsSreTShyBIzXPXUJZLsloHj9SCACIzyuB+siSJfUJTPqZlNGsppN4zraxYnGhzQLvnoH/fkJF6dbWLFXwYkI002KUpT6G8PawMYhLTp/8gudcOr9CEF3MTD1NDkwUGA9ryvKzWMq2ysE6HDmH5GBfSSCRqPaHVv6OHwcCmyiTySTq6L3udxL8EunlM7sE0aRxVEgMdITe1SFtcDAVhYpplYWlKNDO01CP7EDI3ONpOQCds5i1p20nBxUaVQUwrLh0spX2zcDgrmr5D6u2m8vUgw/P2x0cbvSyrRcbQBdk4h4xOW1b/RnYJPBkpaWhAC2dIPTrM0Cu7WKSuITBMVZlY4e2Zv5JdICe37NQ6BXTh1TlOwVHFxZJl7pTAdlkmX9tPPyE2UDJdDh1QpbNLBYJ0oIx0rFzQ6jBfZf+XRHuym+lnQ4XFo7SepFWsU16GWNJCMTdFxBSq2HzBLRFW03eJFJC+lZBx2itrh8uF9SkEDe5xs2xPJ3RzhL0HzxJU4kTUOFijELrEWvETM2WEEMLL7tFRDr4aoFrZpgF+TCpuJ0l3/S8CcQePW6eHqolIblLHuwbdCkKztWHVOiVR1odXWIg9Q7PF7PrdvgFz9CsfkcFEVzS6scBXK3FiEhSDDSbRt/tRP/dxNJ8yuqnajw0QYl5wluHryKWLym+VBAAdxrasfhcddmeOTSxiqFM2p3PXgolpRMXm+912+6DBEnRstx2prLZWeBCtu7LTseDFbEYaIbW+mla1NvOqdaLr6tLpMo7fW66sVdyDJ/O82GqP2NzZFnoa3Zk2KduUdtXt0O0Vp699RlizZIvgVX/oFN7EjDrgbkQDB29VUq3vVhKANKEPF+3BQeS2mimf2KuT111GUz5/5tBzGjg+nYnV2CmxTsESqxjbu+bp6iU67Rl2K+WvyeEcoka9gjsJq9bJe39ZS8nRLFk3+y8jo/JG3i3M7h0JYifZTatIy95x9FUzO9MYHjuA6GcUn8PyfoqhpiS5DVFcKZq+9zpJqaUibGEBRK564BPFXtga9mz83io7OWgZniLBH2kV63QDxbU/BlnMDGxYBwHVYbIaVwOJ8YWBbnsa2apuG5odwZ1bR9biQiej+MHn9t/HaPkFNmp/wdBex+Uq9RtU3c4NZPviOKGast+Cw80WKMq6mrLfolj52e2/hbFdx+0kFXR+uBgbXVes/ez230JQy+0cd1fzQXVHwS3IHptJ+3na1aD4JsXytMbVXFWWO27BMnhS7Hst68TXjA3qDWILPVuAW6hnnRDmKSoe1lMs43nsKWNUyzohro58n1nuuAV7f/2fYIZ+vdhJNthc8TiLXy+zy3fb8EBNF0u+ni3ADZzZUXATPJ34rjuIubJO9bJYJK84+qJXp144gTDjpeIi9KRhHfg58wGJXc0Jy9Xp9uqS3U2YHMWJ/rKeXjk6QJrsNa4FP6cDWjWHMEzYFR8xcdiLai1hJahMT1i/FQaD9mY61xr18tcEhc2yU/C53n3EEdJsHeOGQeq51hQGT3wPXpcaSOgZxLIqZwjrwJpxGux1Va+1R+J7rDlL0cRwJdVblLuITNg5IdBZOXewQBdg5ljleCr9raQIOYw4nb5Wr1L4Exg5Gtz5c6UCbHw+ZiHdxYNegYlgYiD9nfVlTNZQfcAAZkTWuG4K80MYmK+9mqXfH8OAHa5+c+CPeL5/DWrtS7uF58dN/UfJKltPj4d9/UFjmMTPz3Pakp1KK8tEsz29gVXHcQFHxbp9twyPiS9bBRNNSmis4tl+99obLj4H/SDoDxbD7W7kSY27OCVWiqbN5P/xOr/nyg96I6neylWCw/CpjiLhm1u7Zor4qJkC4ahmyMFauekim5p7a7naNL2tHur+ObL2dO96E2/l7+vdAE/rrwnL36908LQ5JKG1+u3CJF8fQEoI7F8GlJe+ps8qC/yrkJGz/+QhJfny0a3w9bmynF71wP5VMDcfyCzRu7nqaDB8mPsK6xuFJYSbSLhK+6ZFLvn5daY6DLSfBxUy6we5rxHGPw0XZYmnQxxn8Sc/m7TEZfRTTjfR1n+wimlbfDrWMuHHtYVM2Z2x+cmqX9C2lEsZrSExsFh1N/xXVf9OWiJ9cOxWz9HcqOq5rV5EmvOWsP4Afxi7ymnB3PLc+P9gfs8RrkceVj1DI0SzdVVZvf8/rO83+MFis58tl7PJtsNXEU0gEAgEAoFAIBAIBAKBQCAQCAQCgUAgEAgEAoGAVf4D8iyy2lO2NM4AAAAASUVORK5CYII=;" vertex="1" parent="i6NcPud4-Uv3nX3KhL0C-1">
          <mxGeometry x="974.86" y="361" width="70.28" height="64" as="geometry" />
        </mxCell>
        <mxCell id="i6NcPud4-Uv3nX3KhL0C-25" value="" style="group" vertex="1" connectable="0" parent="i6NcPud4-Uv3nX3KhL0C-1">
          <mxGeometry x="940" y="310" width="67.5" height="75" as="geometry" />
        </mxCell>
        <mxCell id="i6NcPud4-Uv3nX3KhL0C-26" value="Display&lt;br&gt;&lt;br&gt;&lt;br&gt;&lt;br&gt;" style="rounded=0;whiteSpace=wrap;html=1;fillColor=none;movable=1;resizable=1;rotatable=1;deletable=1;editable=1;locked=0;connectable=1;container=0;" vertex="1" parent="i6NcPud4-Uv3nX3KhL0C-25">
          <mxGeometry width="67.5" height="75" as="geometry" />
        </mxCell>
        <mxCell id="i6NcPud4-Uv3nX3KhL0C-27" value="" style="rounded=0;whiteSpace=wrap;html=1;container=0;movable=1;resizable=1;rotatable=1;deletable=1;editable=1;locked=0;connectable=1;" vertex="1" parent="i6NcPud4-Uv3nX3KhL0C-25">
          <mxGeometry x="4.400000000000091" y="26.600000000000023" width="58.7" height="41.79" as="geometry" />
        </mxCell>
        <mxCell id="i6NcPud4-Uv3nX3KhL0C-28" value="" style="rounded=0;whiteSpace=wrap;html=1;container=0;movable=1;resizable=1;rotatable=1;deletable=1;editable=1;locked=0;connectable=1;" vertex="1" parent="i6NcPud4-Uv3nX3KhL0C-25">
          <mxGeometry x="27.880434782608745" y="42.67142857142858" width="5.869565217391304" as="geometry" />
        </mxCell>
        <mxCell id="i6NcPud4-Uv3nX3KhL0C-29" value="&lt;font style=&quot;font-size: 2px;&quot;&gt;12:30 15/05&lt;/font&gt;" style="rounded=0;whiteSpace=wrap;html=1;container=0;fontSize=2;movable=1;resizable=1;rotatable=1;deletable=1;editable=1;locked=0;connectable=1;" vertex="1" parent="i6NcPud4-Uv3nX3KhL0C-25">
          <mxGeometry x="4.402173913043498" y="29.814285714285745" width="17.608695652173914" height="6.428571428571429" as="geometry" />
        </mxCell>
        <mxCell id="i6NcPud4-Uv3nX3KhL0C-30" value="&lt;font style=&quot;font-size: 5px;&quot;&gt;Coffee ++&lt;/font&gt;" style="rounded=0;whiteSpace=wrap;html=1;container=0;fontSize=5;movable=1;resizable=1;rotatable=1;deletable=1;editable=1;locked=0;connectable=1;" vertex="1" parent="i6NcPud4-Uv3nX3KhL0C-25">
          <mxGeometry x="33.75" y="29.810000000000002" width="29.35" height="16.79" as="geometry" />
        </mxCell>
        <mxCell id="i6NcPud4-Uv3nX3KhL0C-31" value="&lt;span style=&quot;color: rgb(0, 0, 0); font-family: Helvetica; font-size: 5px; font-style: normal; font-variant-ligatures: normal; font-variant-caps: normal; font-weight: 400; letter-spacing: normal; orphans: 2; text-align: center; text-indent: 0px; text-transform: none; widows: 2; word-spacing: 0px; -webkit-text-stroke-width: 0px; background-color: rgb(251, 251, 251); text-decoration-thickness: initial; text-decoration-style: initial; text-decoration-color: initial; float: none; display: inline !important;&quot;&gt;Coffee --&lt;/span&gt;" style="rounded=0;whiteSpace=wrap;html=1;container=0;fontSize=5;movable=1;resizable=1;rotatable=1;deletable=1;editable=1;locked=0;connectable=1;" vertex="1" parent="i6NcPud4-Uv3nX3KhL0C-25">
          <mxGeometry x="33.75" y="55.52857142857147" width="29.34782608695652" height="12.857142857142858" as="geometry" />
        </mxCell>
        <mxCell id="i6NcPud4-Uv3nX3KhL0C-32" value="&lt;font style=&quot;font-size: 5px;&quot;&gt;Upload&lt;/font&gt;" style="rounded=0;whiteSpace=wrap;html=1;container=0;fontSize=5;movable=1;resizable=1;rotatable=1;deletable=1;editable=1;locked=0;connectable=1;" vertex="1" parent="i6NcPud4-Uv3nX3KhL0C-25">
          <mxGeometry x="4.400000000000091" y="51.60000000000002" width="29.35" height="16.79" as="geometry" />
        </mxCell>
        <mxCell id="i6NcPud4-Uv3nX3KhL0C-33" value="" style="shape=mxgraph.signs.food.coffee;html=1;pointerEvents=1;fillColor=#f9f7ed;strokeColor=#36393d;verticalLabelPosition=bottom;verticalAlign=top;align=center;sketch=0;" vertex="1" parent="i6NcPud4-Uv3nX3KhL0C-1">
          <mxGeometry x="870" y="319" width="30" height="19" as="geometry" />
        </mxCell>
        <mxCell id="i6NcPud4-Uv3nX3KhL0C-34" value="" style="shape=mxgraph.signs.food.coffee;html=1;pointerEvents=1;fillColor=#f9f7ed;strokeColor=#36393d;verticalLabelPosition=bottom;verticalAlign=top;align=center;sketch=0;" vertex="1" parent="i6NcPud4-Uv3nX3KhL0C-1">
          <mxGeometry x="1155.54" y="300" width="30" height="19" as="geometry" />
        </mxCell>
        <mxCell id="i6NcPud4-Uv3nX3KhL0C-35" value="" style="shape=mxgraph.signs.food.coffee;html=1;pointerEvents=1;fillColor=#f9f7ed;strokeColor=#36393d;verticalLabelPosition=bottom;verticalAlign=top;align=center;sketch=0;" vertex="1" parent="i6NcPud4-Uv3nX3KhL0C-1">
          <mxGeometry x="1170" y="278" width="30" height="19" as="geometry" />
        </mxCell>
        <mxCell id="GUgBwOhU3VIkigM-xWJ9-0" value="" style="shape=mxgraph.signs.food.coffee;html=1;pointerEvents=1;fillColor=#f9f7ed;strokeColor=#36393d;verticalLabelPosition=bottom;verticalAlign=top;align=center;sketch=0;" vertex="1" parent="i6NcPud4-Uv3nX3KhL0C-1">
          <mxGeometry x="1110" y="300" width="30" height="19" as="geometry" />
        </mxCell>
        <mxCell id="GUgBwOhU3VIkigM-xWJ9-2" value="" style="endArrow=classic;html=1;rounded=0;exitX=1.076;exitY=1.09;exitDx=0;exitDy=0;exitPerimeter=0;" edge="1" parent="i6NcPud4-Uv3nX3KhL0C-1" source="i6NcPud4-Uv3nX3KhL0C-33">
          <mxGeometry width="50" height="50" relative="1" as="geometry">
            <mxPoint x="884.86" y="340" as="sourcePoint" />
            <mxPoint x="930" y="350" as="targetPoint" />
          </mxGeometry>
        </mxCell>
        <mxCell id="GUgBwOhU3VIkigM-xWJ9-3" value="" style="shape=umlActor;verticalLabelPosition=bottom;verticalAlign=top;html=1;outlineConnect=0;" vertex="1" parent="i6NcPud4-Uv3nX3KhL0C-1">
          <mxGeometry x="850" y="310" width="30" height="60" as="geometry" />
        </mxCell>
      </root>
    </mxGraphModel>
  </diagram>
</mxfile>
